<svg width="550" height="468" viewBox="0 0 550 468" fill="none" xmlns="http://www.w3.org/2000/svg">
<path d="M54.2072 409.675C54.2072 409.675 41.1614 342.002 41.1267 328.087C41.085 308.829 55.8206 301.163 55.8206 301.163L50.0974 284.834H81.5642L76.5923 301.052C76.5923 301.052 93.1775 309.846 90.8623 329.82C86.5368 367.159 79.6522 409.647 79.6522 409.647L54.2072 409.675Z" fill="#EFF0F7"/>
<path d="M204.004 458.42C202.244 457.643 200.335 457.263 198.412 457.307C196.489 457.352 194.599 457.819 192.877 458.677C192.786 455.161 191.806 451.724 190.032 448.688C188.257 445.651 185.744 443.113 182.726 441.308C179.708 439.503 176.283 438.491 172.769 438.365C169.256 438.239 165.767 439.004 162.628 440.588C161.567 437.688 159.883 435.055 157.694 432.877C155.505 430.699 152.865 429.027 149.96 427.982C147.055 426.936 143.957 426.541 140.882 426.824C137.808 427.108 134.834 428.064 132.169 429.624C129.523 426.503 126.012 424.237 122.081 423.112C118.148 421.986 113.971 422.052 110.075 423.299C106.241 424.684 102.899 427.171 100.472 430.449C98.045 433.726 96.6391 437.648 96.4318 441.722C93.7523 441.044 90.9431 441.072 88.2776 441.804C85.6121 442.535 83.182 443.945 81.2231 445.897C77.3636 449.828 72.2526 461.898 73.7756 467.186L211.195 466.908C210.692 465.051 209.787 463.329 208.545 461.862C207.302 460.395 205.752 459.219 204.004 458.42Z" fill="#EFF0F7"/>
<path d="M463.641 409.727C463.641 409.824 359.844 409.908 231.834 409.908C103.824 409.908 0 409.818 0 409.727C0 409.636 103.775 409.54 231.834 409.54C359.893 409.54 463.641 409.623 463.641 409.727Z" fill="#DCDDEB"/>
<path d="M37.3718 348.068C34.094 346.372 30.2311 346.152 26.5876 346.737C24.6329 347.064 22.5985 347.648 21.2687 349.119C19.939 350.589 19.6864 353.176 21.2155 354.44C22.2036 355.107 23.3934 355.408 24.5798 355.291C27.4254 355.259 30.5636 354.752 32.8707 356.469C34.1671 357.453 35.0315 359.077 36.5872 359.562C37.3653 359.742 38.181 359.664 38.9105 359.339C39.6401 359.014 40.2437 358.459 40.6296 357.76C41.3737 356.324 41.5379 354.657 41.0884 353.103C40.8963 352.035 40.4612 351.025 39.8168 350.152C39.1723 349.279 38.3357 348.566 37.3718 348.068Z" fill="#05C168"/>
<path d="M44.8912 333.553C42.8966 336.42 38.9806 335.47 37.1788 333.72C35.377 331.97 34.6057 329.436 33.9076 326.995C32.3186 321.474 30.7163 315.687 31.913 310.047C32.1975 308.343 32.9451 306.75 34.0738 305.443C34.6456 304.799 35.3764 304.317 36.1931 304.043C37.0098 303.77 37.8839 303.716 38.7279 303.887C40.7225 304.406 41.9126 306.335 42.7969 308.171C45.4004 313.579 46.7634 319.502 46.7861 325.505C46.7861 328.299 46.467 331.226 44.8978 333.533" fill="#05C168"/>
<path d="M50.3965 337.638C48.2224 335.051 47.8036 331.279 48.7742 328.04C49.7449 324.8 51.9324 322.053 54.4589 319.792C57.4308 317.157 60.8854 315.124 64.6313 313.805C66.0832 313.223 67.6429 312.957 69.2053 313.027C69.9869 313.073 70.7457 313.31 71.4149 313.715C72.0847 314.12 72.6457 314.683 73.0488 315.355C74.1191 317.397 73.0949 319.878 71.9845 321.9C70.025 325.461 67.7914 328.864 65.3028 332.078C63.3082 334.665 61.0012 337.213 57.9494 338.377C54.8977 339.54 51.7262 339.407 50.104 337.292" fill="#05C168"/>
<path d="M45.0241 376.79C44.913 376.355 44.8527 375.908 44.8446 375.459C44.7515 374.515 44.6318 373.325 44.4989 371.907C44.3204 370.157 44.0541 368.416 43.701 366.693C43.2306 364.595 42.5971 362.538 41.8062 360.54C41.0245 358.545 39.9658 356.671 38.6613 354.972C37.596 353.58 36.2331 352.444 34.6721 351.646C33.6245 351.13 32.503 350.78 31.3478 350.609C30.8995 350.591 30.454 350.528 30.0181 350.422C30.4597 350.369 30.9061 350.369 31.3478 350.422C32.5566 350.509 33.7395 350.816 34.8383 351.327C36.4713 352.099 37.9045 353.237 39.027 354.653C40.3873 356.375 41.4851 358.29 42.2848 360.333C43.0906 362.359 43.718 364.451 44.1598 366.586C44.4886 368.331 44.7107 370.095 44.8246 371.868C44.9376 373.377 44.9775 374.601 44.9975 375.446C45.059 375.892 45.0679 376.342 45.0241 376.79Z" fill="#211F54"/>
<path d="M44.7782 374.056C44.7552 373.855 44.7552 373.652 44.7782 373.451C44.7782 372.998 44.7782 372.426 44.7782 371.721C44.7782 370.225 44.7782 368.056 44.6984 365.376C44.5655 360.015 44.1067 354.24 43.2158 346.085C42.3714 338.436 41.2212 329.536 40.0444 323.749C39.7851 322.419 39.5258 321.248 39.2864 320.21C39.0471 319.173 38.8543 318.275 38.6614 317.55C38.4686 316.825 38.3689 316.312 38.2626 315.867C38.2029 315.675 38.1672 315.476 38.1561 315.275C38.2447 315.455 38.3138 315.645 38.3622 315.84L38.8675 317.496C39.0869 318.215 39.3197 319.106 39.579 320.157C39.8383 321.208 40.1308 322.372 40.4167 323.689C41.8921 330.534 43.0017 337.453 43.741 344.416C44.6319 352.564 45.0707 359.988 45.0707 365.362C45.0707 368.023 45.0707 370.225 44.9777 371.721C44.9378 372.426 44.8979 372.998 44.8713 373.451C44.8677 373.656 44.8363 373.859 44.7782 374.056Z" fill="#211F54"/>
<path d="M44.7448 359.741C44.6938 359.141 44.6938 358.538 44.7448 357.939C44.8113 356.775 44.9709 355.099 45.2966 353.043C45.6925 350.641 46.223 348.262 46.8856 345.919C47.6632 343.036 48.6589 340.216 49.8643 337.485C51.9305 332.451 54.8954 327.834 58.6139 323.862C59.2568 323.18 59.943 322.54 60.6683 321.946C60.9874 321.68 61.2667 321.414 61.5459 321.202L62.3504 320.649C62.8321 320.283 63.3436 319.959 63.8796 319.678C63.9661 319.798 61.7254 321.115 58.8998 324.122C55.3082 328.131 52.4237 332.721 50.3695 337.698C49.187 340.415 48.1875 343.208 47.3777 346.059C46.6934 348.379 46.1276 350.733 45.6822 353.11C45.3099 355.145 45.0971 356.808 44.9642 357.952C44.9345 358.553 44.8612 359.151 44.7448 359.741Z" fill="#211F54"/>
<path d="M58.5736 384.991L57.1375 404.641H31.9058L30.4697 384.991H58.5736Z" fill="#E0623B"/>
<path d="M61.014 377.249H27.4648V384.991H61.014V377.249Z" fill="#E0623B"/>
<path d="M61.0072 403.889V406.037H59.4315H28.0166V403.889H61.0072Z" fill="#E0623B"/>
<path d="M57.8893 409.816L59.4317 406.038H29.2202L31.022 409.816H57.8893Z" fill="#E0623B"/>
<path d="M425.161 216.705C428.438 215.009 432.301 214.789 435.944 215.375C437.899 215.701 439.933 216.286 441.263 217.756C442.593 219.226 442.846 221.813 441.317 223.078C440.328 223.744 439.138 224.046 437.952 223.929C435.106 223.895 431.968 223.39 429.661 225.106C428.365 226.091 427.5 227.713 425.945 228.199C425.167 228.38 424.351 228.302 423.622 227.976C422.892 227.65 422.288 227.096 421.903 226.396C421.159 224.961 420.994 223.293 421.443 221.74C421.636 220.672 422.07 219.663 422.715 218.789C423.359 217.916 424.196 217.203 425.161 216.705Z" fill="#05C168"/>
<path d="M417.641 202.191C419.635 205.057 423.551 204.106 425.353 202.357C427.155 200.608 427.926 198.073 428.624 195.632C430.213 190.111 431.815 184.325 430.618 178.683C430.334 176.98 429.586 175.387 428.458 174.08C427.886 173.437 427.155 172.953 426.338 172.681C425.521 172.407 424.648 172.354 423.804 172.524C421.809 173.043 420.619 174.972 419.735 176.808C417.131 182.217 415.768 188.139 415.745 194.142C415.745 196.936 416.065 199.863 417.634 202.171" fill="#05C168"/>
<path d="M412.136 206.275C414.31 203.688 414.729 199.916 413.758 196.676C412.787 193.437 410.6 190.69 408.073 188.429C405.101 185.794 401.647 183.761 397.901 182.442C396.449 181.86 394.889 181.594 393.326 181.664C392.546 181.71 391.787 181.946 391.117 182.352C390.448 182.757 389.887 183.32 389.484 183.992C388.413 186.034 389.438 188.515 390.547 190.537C392.507 194.098 394.741 197.501 397.229 200.714C399.224 203.302 401.531 205.85 404.583 207.014C407.635 208.177 410.806 208.044 412.428 205.929" fill="#05C168"/>
<path d="M417.508 245.427C417.619 244.992 417.679 244.546 417.688 244.096C417.78 243.152 417.9 241.961 418.033 240.544C418.212 238.794 418.478 237.053 418.831 235.33C419.301 233.233 419.935 231.175 420.726 229.176C421.508 227.182 422.567 225.308 423.871 223.609C424.936 222.217 426.299 221.08 427.86 220.284C428.908 219.767 430.029 219.417 431.184 219.246C431.633 219.228 432.078 219.166 432.514 219.059C432.073 219.007 431.626 219.007 431.184 219.059C429.975 219.146 428.793 219.453 427.694 219.964C426.061 220.736 424.628 221.875 423.505 223.29C422.145 225.012 421.047 226.927 420.247 228.971C419.441 230.996 418.814 233.088 418.372 235.223C418.043 236.968 417.821 238.732 417.708 240.504C417.595 242.015 417.555 243.239 417.534 244.083C417.473 244.528 417.464 244.98 417.508 245.427Z" fill="#211F54"/>
<path d="M417.754 242.692C417.776 242.492 417.776 242.289 417.754 242.087C417.754 241.635 417.754 241.063 417.754 240.358C417.754 238.861 417.754 236.693 417.833 234.012C417.966 228.651 418.425 222.877 419.316 214.723C420.16 207.073 421.31 198.173 422.488 192.386C422.746 191.055 423.006 189.885 423.245 188.847C423.484 187.81 423.678 186.911 423.87 186.186C424.063 185.461 424.163 184.949 424.269 184.504C424.329 184.311 424.364 184.113 424.376 183.911C424.287 184.092 424.218 184.282 424.17 184.477L423.664 186.133C423.445 186.852 423.212 187.743 422.953 188.794C422.694 189.845 422.401 191.009 422.115 192.326C420.64 199.171 419.53 206.09 418.791 213.053C417.899 221.201 417.461 228.624 417.461 233.999C417.461 236.659 417.461 238.861 417.554 240.358C417.594 241.063 417.634 241.635 417.66 242.087C417.664 242.293 417.695 242.496 417.754 242.692Z" fill="#211F54"/>
<path d="M417.787 228.379C417.838 227.779 417.838 227.176 417.787 226.576C417.721 225.412 417.561 223.736 417.235 221.681C416.84 219.278 416.309 216.9 415.646 214.557C414.869 211.674 413.873 208.854 412.668 206.123C410.601 201.088 407.637 196.472 403.918 192.5C403.275 191.818 402.589 191.177 401.864 190.584C401.545 190.318 401.265 190.051 400.986 189.839L400.182 189.287C399.7 188.921 399.188 188.596 398.653 188.316C398.566 188.436 400.807 189.753 403.632 192.759C407.224 196.768 410.108 201.359 412.163 206.335C413.345 209.052 414.345 211.846 415.154 214.697C415.839 217.016 416.404 219.37 416.85 221.747C417.222 223.783 417.435 225.445 417.568 226.589C417.597 227.19 417.671 227.789 417.787 228.379Z" fill="#211F54"/>
<path d="M400.134 345.601H390.945V382.154H400.134V345.601Z" fill="#EFF0F7"/>
<path d="M461.238 345.601H452.05V382.154H461.238V345.601Z" fill="#DCDDEB"/>
<path d="M520.163 261.351H390.818V345.534H520.163V261.351Z" fill="#EFF0F7"/>
<path d="M504.442 303.459C504.432 303.301 504.432 303.141 504.442 302.983C504.442 302.648 504.442 302.197 504.442 301.618C504.442 300.395 504.442 298.631 504.442 296.352C504.442 291.755 504.378 285.086 504.339 276.652L504.545 276.858L403.661 276.987L403.995 276.652V280.065C403.995 281.211 403.995 282.344 403.995 283.49V303.434L403.661 303.099L475.627 303.253L496.823 303.343H502.537H504.03H504.557H504.069H502.627H496.977L475.859 303.446L403.661 303.588H403.339V290.275C403.339 288.034 403.339 285.781 403.339 283.515V276.678L403.686 276.344L504.571 276.473H504.596V276.678C504.596 285.163 504.519 291.871 504.493 296.493C504.493 298.76 504.493 300.498 504.493 301.721C504.493 302.288 504.493 302.725 504.493 303.008C504.493 303.292 504.442 303.459 504.442 303.459Z" fill="#DCDDEB"/>
<path d="M458.407 290.056C458.407 290.93 458.147 291.783 457.662 292.509C457.177 293.235 456.488 293.802 455.682 294.136C454.875 294.47 453.987 294.558 453.131 294.387C452.275 294.217 451.488 293.796 450.871 293.179C450.254 292.561 449.833 291.774 449.663 290.918C449.492 290.06 449.58 289.173 449.914 288.366C450.248 287.559 450.814 286.869 451.54 286.384C452.265 285.899 453.119 285.639 453.992 285.639C455.163 285.639 456.286 286.105 457.114 286.933C457.941 287.761 458.407 288.885 458.407 290.056Z" fill="#DCDDEB"/>
<path d="M409.722 229.864L414.664 236.971C414.664 236.971 403.544 240.061 403.544 249.937C403.544 259.812 410.34 261.666 417.701 261.666C425.062 261.666 432.205 259.503 431.857 249.628C431.51 239.752 422.282 236.044 422.282 236.044L426.915 229.864H409.722Z" fill="#E0623B"/>
<path d="M359.968 48.2502C360.258 47.972 362.253 49.3993 364.864 52.3507C366.389 54.085 367.779 55.933 369.023 57.8785C370.546 60.2684 371.884 62.7715 373.025 65.3658C374.135 67.9752 375.048 70.6641 375.758 73.4098C376.329 75.6507 376.733 77.9311 376.966 80.2316C377.329 84.1626 376.967 86.5941 376.604 86.6182C375.661 86.6182 374.802 77.1717 370.16 66.6241C365.517 56.0762 359.267 48.8913 359.968 48.2502Z" fill="#05C168"/>
<path d="M379.687 94.4689C379.276 94.4689 378.152 89.3278 377.1 80.8006C376.048 72.2726 375.165 60.431 374.827 47.3432C374.488 34.2555 374.621 22.4257 374.827 13.8619C375.032 5.298 375.492 0 375.927 0C376.362 0 376.749 5.29799 377.051 13.8498C377.354 22.4015 377.572 34.2313 377.922 47.2586C378.273 60.2858 378.78 72.0674 379.276 80.5947C379.772 89.1226 380.147 94.4689 379.687 94.4689Z" fill="#05C168"/>
<path d="M398.766 20.1396C399.177 20.3694 397.557 24.0103 395.368 30.0824C393.18 36.1546 390.46 44.5975 387.8 54.1048C385.14 63.6122 383.133 72.2484 381.9 78.611C380.667 84.9735 380.159 88.8925 379.687 88.8805C379.215 88.8684 378.962 84.7796 379.687 78.2727C380.732 69.821 382.426 61.4619 384.753 53.2702C386.983 45.0516 389.841 37.0164 393.301 29.2357C396.045 23.2724 398.427 19.9339 398.766 20.1396Z" fill="#05C168"/>
<path d="M355.131 83.5823V93.9969C355.129 96.9171 355.7 99.8085 356.815 102.507C357.93 105.206 359.566 107.659 361.628 109.724C363.691 111.79 366.14 113.429 368.836 114.547C371.533 115.666 374.423 116.241 377.342 116.241C380.259 116.243 383.149 115.669 385.845 114.553C388.54 113.437 390.991 111.801 393.054 109.737C395.118 107.674 396.755 105.224 397.872 102.527C398.988 99.8306 399.563 96.9398 399.563 94.0209V83.5823H355.131Z" fill="#6E7191"/>
<path d="M530.465 116.265H325.45V128.131H530.465V116.265Z" fill="#EFF0F7"/>
<path d="M371.078 128.131H364.32V148.67H371.078V128.131Z" fill="#DCDDEB"/>
<path d="M483.542 128.131H476.783V148.67H483.542V128.131Z" fill="#DCDDEB"/>
<path d="M549.241 243.25V261.34H471.47C469.081 261.34 466.789 260.39 465.1 258.7C463.41 257.01 462.462 254.718 462.462 252.327C462.462 249.937 463.41 247.644 465.1 245.954C466.789 244.264 469.081 243.314 471.47 243.314" fill="#E0623B"/>
<path d="M549.241 225.868V243.959H471.47C469.081 243.959 466.789 243.009 465.1 241.318C463.41 239.628 462.462 237.336 462.462 234.946C462.462 232.555 463.41 230.263 465.1 228.573C466.789 226.883 469.081 225.933 471.47 225.933L549.241 225.868Z" fill="#E0623B"/>
<path d="M442.605 73.5188L437.962 116.629H497.459L502.403 73.5188H442.605Z" fill="#DCDDEB"/>
<path d="M445.047 76.6157L440.525 114.343H494.23L498.583 76.6157H445.047Z" fill="white"/>
<path d="M454.091 82.9531L451.31 107.991H485.199L486.94 82.9531H454.091Z" fill="#E0623B"/>
<g filter="url(#filter0_d_265_50)">
<path d="M378.849 375.141L386.272 409.984H376.751L360.808 374.555L378.849 375.141Z" fill="#6E7191"/>
<path d="M378.849 375.142H378.496H377.551L373.934 375.053L360.783 374.694L360.903 374.517L374.469 404.57C375.28 406.385 376.085 408.173 376.883 409.934L376.732 409.833H386.253L386.101 410.022C383.978 399.936 382.151 391.223 380.847 385.039C380.216 381.95 379.699 379.491 379.346 377.783C379.177 376.945 379.044 376.295 378.956 375.835C378.912 375.62 378.88 375.456 378.855 375.324C378.85 375.265 378.85 375.206 378.855 375.148C378.874 375.199 378.889 375.252 378.899 375.305L379.013 375.791C379.114 376.245 379.258 376.881 379.441 377.682L381.016 384.906C382.359 391.11 384.236 399.828 386.423 409.953L386.467 410.142H376.644L376.605 410.048L374.186 404.683C369.019 393.152 364.287 382.618 360.695 374.599L360.613 374.416H360.808L374.041 374.908L377.633 375.059L378.559 375.104C378.656 375.11 378.753 375.122 378.849 375.142Z" fill="#6E7191"/>
<path d="M115.651 375.141L108.228 409.984H117.743L133.691 374.555L115.651 375.141Z" fill="#6E7191"/>
<path d="M115.651 375.142C115.753 375.134 115.857 375.134 115.959 375.142L116.886 375.098L120.471 374.946L133.703 374.455H133.905L133.823 374.637L120.326 404.721C119.511 406.537 118.707 408.325 117.912 410.086L117.868 410.18H108.032L108.07 409.991C110.256 399.867 112.141 391.148 113.477 384.945C114.151 381.881 114.686 379.435 115.058 377.739C115.247 376.913 115.386 376.276 115.486 375.848L115.607 375.362C115.607 375.255 115.644 375.199 115.651 375.205C115.643 375.264 115.633 375.323 115.619 375.381C115.619 375.514 115.563 375.677 115.524 375.892C115.43 376.352 115.298 377.002 115.134 377.84C114.781 379.548 114.27 382.007 113.628 385.096C112.329 391.28 110.477 399.98 108.379 410.079L108.227 409.89H117.743L117.598 409.991C118.387 408.23 119.192 406.442 120.011 404.627L133.578 374.574L133.691 374.751L120.54 375.11L116.93 375.199H115.978L115.651 375.142Z" fill="#6E7191"/>
<path d="M399.303 340.343H117.132V385.543H399.303V340.343Z" fill="#CBCDDC"/>
<path d="M254.417 304.169V253.231C254.416 252.337 254.59 251.451 254.931 250.624C255.272 249.798 255.773 249.046 256.404 248.413C257.036 247.78 257.786 247.278 258.612 246.935C259.437 246.593 260.322 246.416 261.216 246.416H380.09C381.892 246.416 383.619 247.132 384.894 248.407C386.167 249.681 386.883 251.41 386.883 253.212V323.995L254.241 327.778L254.417 304.169Z" fill="#CBCDDC"/>
<path d="M121.341 304.169V253.231C121.341 252.335 121.519 251.447 121.863 250.62C122.206 249.792 122.71 249.04 123.344 248.408C123.979 247.775 124.732 247.273 125.56 246.931C126.388 246.59 127.275 246.415 128.171 246.416H247.593C249.399 246.413 251.132 247.127 252.411 248.401C253.691 249.675 254.412 251.406 254.418 253.212L254.241 327.752L121.341 323.97V304.169Z" fill="#CBCDDC"/>
<path d="M416.859 385.057H386.373C383.525 385.057 381.219 382.031 381.219 378.299V297.82C381.219 294.088 383.525 291.062 386.455 291.062H416.934C419.701 291.062 421.975 294.088 421.975 297.82V378.299C422.013 382.031 419.707 385.057 416.859 385.057Z" fill="#CBCDDC"/>
<path d="M416.859 385.058C416.859 385.058 417.085 385.058 417.489 384.976C418.135 384.861 418.745 384.598 419.272 384.207C420.117 383.561 420.783 382.711 421.207 381.736C421.485 381.119 421.682 380.468 421.793 379.8C421.903 379.037 421.946 378.264 421.919 377.493C421.919 370.924 421.887 361.423 421.862 349.685C421.837 337.947 421.862 323.964 421.862 308.437C421.862 306.495 421.862 304.533 421.862 302.549V299.548C421.897 298.547 421.865 297.545 421.767 296.547C421.623 295.554 421.288 294.597 420.784 293.729C420.288 292.853 419.554 292.133 418.667 291.655C418.227 291.42 417.741 291.28 417.243 291.246C416.745 291.201 416.203 291.246 415.687 291.246H386.398C385.307 291.288 384.271 291.738 383.494 292.507C382.714 293.265 382.132 294.201 381.798 295.236C381.477 296.276 381.337 297.363 381.382 298.451V314.621C381.382 323.069 381.382 331.221 381.382 338.981C381.382 346.741 381.382 354.111 381.382 361.046C381.382 364.492 381.382 367.823 381.382 371.038V375.747C381.382 376.51 381.382 377.273 381.382 378.023C381.363 378.757 381.431 379.491 381.584 380.21C381.859 381.601 382.557 382.874 383.581 383.854C384.08 384.311 384.674 384.651 385.321 384.85C385.965 385 386.627 385.054 387.287 385.014H394.754H406.726L414.287 385.046H406.726H394.754H387.287C386.608 385.091 385.926 385.034 385.264 384.875C384.583 384.676 383.958 384.322 383.437 383.841C382.369 382.826 381.642 381.504 381.357 380.059C381.201 379.324 381.128 378.573 381.143 377.821V375.545C381.143 374.007 381.143 372.437 381.143 370.836C381.143 367.629 381.143 364.298 381.143 360.844C381.143 353.909 381.143 346.565 381.143 338.779C381.143 330.993 381.143 322.867 381.143 314.419C381.143 310.217 381.143 305.922 381.143 301.534V298.249C381.1 297.127 381.247 296.006 381.578 294.933C381.927 293.845 382.54 292.859 383.361 292.065C384.2 291.252 385.313 290.782 386.48 290.748H415.674C416.204 290.748 416.708 290.748 417.256 290.748C417.795 290.791 418.32 290.943 418.799 291.195C419.739 291.701 420.516 292.461 421.042 293.389C421.569 294.291 421.916 295.286 422.063 296.321C422.163 297.334 422.196 298.354 422.164 299.372C422.164 300.374 422.164 301.376 422.164 302.372V308.261C422.164 323.788 422.164 337.764 422.127 349.509C422.089 361.254 422.089 370.748 422.076 377.317C422.1 378.095 422.052 378.874 421.931 379.643C421.81 380.32 421.598 380.977 421.301 381.597C420.871 382.596 420.187 383.466 419.316 384.118C418.779 384.507 418.157 384.762 417.501 384.862C417.293 384.947 417.078 385.012 416.859 385.058Z" fill="#6E7191"/>
<path d="M377.922 323.075H259.408C256.415 323.075 253.989 325.502 253.989 328.497V343.772C253.989 346.766 256.415 349.194 259.408 349.194H377.922C380.916 349.194 383.342 346.766 383.342 343.772V328.497C383.342 325.502 380.916 323.075 377.922 323.075Z" fill="#CBCDDC"/>
<path d="M377.922 349.175C377.922 349.175 378.187 349.175 378.691 349.093C379.678 348.941 380.603 348.52 381.365 347.875C382.128 347.229 382.696 346.385 383.007 345.436C383.235 344.683 383.324 343.895 383.272 343.11C383.272 342.265 383.272 341.364 383.272 340.412C383.272 338.521 383.272 336.377 383.272 334.057C383.272 332.897 383.272 331.68 383.272 330.426C383.272 329.171 383.423 327.822 382.913 326.587C382.414 325.29 381.428 324.241 380.166 323.662C378.874 323.031 377.343 323.214 375.812 323.182H366.076L259.402 323.277C258.139 323.279 256.919 323.738 255.967 324.57C255.018 325.39 254.4 326.529 254.229 327.772C254.172 328.4 254.152 329.032 254.172 329.663V342.953C254.144 343.562 254.178 344.172 254.273 344.774C254.386 345.361 254.6 345.924 254.902 346.438C255.511 347.474 256.463 348.264 257.593 348.67C258.696 349.111 259.931 348.967 261.147 348.992H285.791L333.732 349.03L366.044 349.099L374.867 349.137L366.044 349.175L333.732 349.238L285.791 349.282H259.326C258.365 349.272 257.423 349.015 256.59 348.536C255.757 348.056 255.061 347.371 254.569 346.546C254.239 345.992 254.005 345.387 253.875 344.755C253.778 344.13 253.742 343.497 253.769 342.864V329.669C253.746 329.018 253.767 328.364 253.831 327.715C254.019 326.373 254.691 325.147 255.722 324.267C256.749 323.376 258.061 322.884 259.42 322.88L366.044 322.936H375.78H378.049C378.803 322.949 379.546 323.121 380.229 323.441C381.192 323.885 382.009 324.596 382.58 325.49C383.152 326.383 383.456 327.423 383.455 328.484C383.455 329.114 383.455 329.783 383.455 330.413C383.455 331.674 383.455 332.884 383.455 334.044C383.455 336.365 383.455 338.489 383.455 340.4C383.455 341.351 383.455 342.253 383.455 343.097C383.501 343.897 383.403 344.698 383.165 345.462C382.763 346.658 381.96 347.679 380.89 348.348C380.239 348.76 379.506 349.022 378.741 349.118C378.471 349.167 378.197 349.186 377.922 349.175Z" fill="#6E7191"/>
<path d="M116.414 385.543H85.928C83.0861 385.543 80.7736 382.517 80.7736 378.785V298.313C80.7736 294.58 83.0861 291.554 86.0163 291.554H116.495C119.262 291.554 121.536 294.58 121.536 298.313V378.804C121.568 382.517 119.262 385.543 116.414 385.543Z" fill="#CBCDDC"/>
<path d="M116.413 385.543C116.413 385.543 116.64 385.543 117.043 385.468C117.687 385.347 118.296 385.084 118.826 384.698C119.673 384.055 120.339 383.204 120.761 382.227C121.039 381.61 121.235 380.959 121.347 380.292C121.458 379.528 121.501 378.756 121.473 377.985C121.473 371.409 121.473 361.909 121.422 350.177C121.372 338.444 121.422 324.449 121.385 308.928C121.385 306.987 121.385 305.022 121.385 303.034V300.04C121.42 299.037 121.388 298.032 121.29 297.033C121.144 296.041 120.811 295.087 120.307 294.221C119.814 293.341 119.079 292.622 118.19 292.147C117.749 291.913 117.264 291.771 116.766 291.731C116.268 291.693 115.726 291.731 115.21 291.731H112.059H85.9274C84.8397 291.762 83.8028 292.201 83.0226 292.96C82.2437 293.718 81.6614 294.656 81.3278 295.69C81.0056 296.727 80.8652 297.813 80.912 298.899V315.069C80.912 323.523 80.912 331.667 80.912 339.435C80.912 347.201 80.912 354.564 80.912 361.499C80.912 364.948 80.912 368.282 80.912 371.485V376.194C80.912 376.963 80.912 377.719 80.912 378.476C80.8926 379.211 80.9608 379.945 81.1132 380.664C81.3913 382.054 82.0886 383.326 83.1108 384.308C83.6095 384.763 84.2039 385.101 84.8497 385.297C85.4935 385.452 86.156 385.509 86.8159 385.468H94.2828H106.256L113.817 385.499L106.256 385.531H94.2828H86.8159C86.1373 385.573 85.4554 385.516 84.7935 385.36C84.1277 385.201 83.5046 384.9 82.9657 384.478C81.8994 383.462 81.1734 382.141 80.8866 380.695C80.7288 379.96 80.6593 379.209 80.6786 378.458C80.6786 377.701 80.6786 376.945 80.6786 376.175C80.6786 374.637 80.6786 373.067 80.6786 371.466C80.6786 368.264 80.6786 364.929 80.6786 361.481C80.6786 354.546 80.6786 347.195 80.6786 339.416C80.6786 331.636 80.6786 323.504 80.6786 315.05C80.6786 310.847 80.6786 306.552 80.6786 302.164V298.88C80.6252 297.768 80.7589 296.656 81.0758 295.589C81.4247 294.5 82.0371 293.515 82.8588 292.721C83.7038 291.897 84.8303 291.426 86.0096 291.403H115.298C115.827 291.403 116.331 291.403 116.88 291.403C117.42 291.443 117.945 291.596 118.423 291.85C119.365 292.354 120.143 293.115 120.666 294.045C121.192 294.946 121.539 295.942 121.687 296.976C121.787 297.99 121.82 299.009 121.788 300.027V308.916C121.788 324.437 121.788 338.42 121.751 350.164C121.713 361.909 121.713 371.396 121.7 377.972C121.724 378.75 121.675 379.529 121.555 380.298C121.436 380.975 121.224 381.633 120.925 382.252C120.492 383.24 119.807 384.096 118.94 384.736C118.403 385.126 117.781 385.383 117.125 385.487C116.89 385.526 116.652 385.545 116.413 385.543Z" fill="#6E7191"/>
<path d="M248.57 322.785H122.752C119.76 322.785 117.333 325.213 117.333 328.207V344.062C117.333 347.056 119.76 349.484 122.752 349.484H248.57C251.563 349.484 253.989 347.056 253.989 344.062V328.207C253.989 325.213 251.563 322.785 248.57 322.785Z" fill="#CBCDDC"/>
<path d="M248.57 349.484C248.57 349.484 248.847 349.484 249.383 349.395C250.419 349.226 251.384 348.758 252.157 348.046C252.93 347.334 253.476 346.412 253.73 345.392C253.896 344.579 253.953 343.748 253.901 342.921C253.901 342.032 253.901 341.086 253.901 340.084C253.901 338.073 253.901 335.841 253.901 333.395C253.901 332.172 253.901 330.873 253.901 329.575C253.901 328.913 253.901 328.226 253.857 327.557C253.778 326.875 253.563 326.214 253.226 325.616C252.874 324.984 252.396 324.43 251.822 323.99C251.248 323.55 250.589 323.232 249.887 323.056C249.139 322.902 248.374 322.848 247.612 322.892H245.217H234.978L122.777 322.955C121.452 322.954 120.175 323.458 119.207 324.364C118.239 325.27 117.652 326.511 117.566 327.835C117.566 330.52 117.566 333.225 117.566 335.891C117.566 338.558 117.566 341.206 117.566 343.835C117.531 345.11 117.953 346.356 118.757 347.346C119.553 348.316 120.672 348.967 121.908 349.181C122.535 349.256 123.167 349.282 123.798 349.256H151.65L202.091 349.3L236.118 349.363L245.362 349.401L236.118 349.433L202.091 349.502L151.65 349.54H123.792C123.137 349.569 122.482 349.541 121.832 349.458C120.487 349.237 119.269 348.533 118.405 347.479C117.541 346.424 117.09 345.091 117.138 343.728C117.138 341.101 117.138 338.453 117.138 335.785C117.138 333.105 117.138 330.438 117.138 327.703C117.233 326.279 117.866 324.944 118.907 323.968C119.948 322.993 121.319 322.448 122.746 322.445L234.946 322.508H245.186H247.581C248.362 322.468 249.146 322.529 249.912 322.69C250.643 322.878 251.329 323.211 251.927 323.672C252.525 324.132 253.022 324.71 253.39 325.37C253.732 325.998 253.946 326.688 254.021 327.4C254.089 328.106 254.052 328.774 254.058 329.443C254.058 330.766 254.058 332.04 254.058 333.263C254.058 335.709 254.058 337.939 254.058 339.952C254.058 340.954 254.058 341.9 254.058 342.788C254.108 343.634 254.042 344.482 253.863 345.31C253.597 346.346 253.031 347.279 252.234 347.991C251.437 348.704 250.447 349.164 249.389 349.313C249.18 349.343 248.97 349.358 248.759 349.357L248.57 349.484Z" fill="#6E7191"/>
<path d="M254.417 252.657C254.531 252.657 254.619 268.953 254.619 289.051C254.619 309.149 254.531 325.445 254.417 325.445C254.304 325.445 254.222 309.155 254.222 289.051C254.222 268.947 254.31 252.657 254.417 252.657Z" fill="#6E7191"/>
<path d="M322.32 275.693C322.32 275.693 322.2 275.864 322.042 276.179C321.837 276.626 321.767 277.123 321.841 277.61C321.885 277.963 322.005 278.302 322.193 278.603C322.381 278.905 322.633 279.162 322.931 279.356C323.315 279.533 323.74 279.601 324.159 279.552C324.579 279.503 324.977 279.339 325.309 279.079C325.641 278.818 325.895 278.47 326.043 278.074C326.19 277.678 326.225 277.249 326.145 276.834C326.027 276.499 325.836 276.195 325.586 275.942C325.337 275.689 325.035 275.494 324.702 275.372C324.245 275.184 323.742 275.138 323.258 275.239C322.919 275.315 322.742 275.422 322.723 275.39C322.854 275.244 323.025 275.139 323.215 275.088C323.728 274.916 324.283 274.916 324.796 275.088C325.184 275.212 325.539 275.424 325.834 275.705C326.129 275.987 326.356 276.332 326.498 276.715C326.661 277.182 326.661 277.691 326.498 278.158C326.316 278.647 326.004 279.077 325.596 279.401C325.186 279.724 324.696 279.929 324.179 279.993C323.686 280.049 323.189 279.938 322.767 279.678C322.428 279.452 322.145 279.152 321.94 278.8C321.735 278.448 321.612 278.054 321.582 277.647C321.527 277.11 321.651 276.569 321.935 276.109C322.118 275.787 322.307 275.68 322.32 275.693Z" fill="#6E7191"/>
<path d="M334.387 266.199C334.387 266.269 333.581 266.281 332.345 266.634C330.735 267.079 329.265 267.925 328.071 269.094C326.878 270.263 326 271.716 325.521 273.316C325.143 274.577 325.105 275.353 325.036 275.346C324.997 275.159 324.997 274.966 325.036 274.779C325.061 274.259 325.142 273.743 325.275 273.241C325.696 271.556 326.576 270.022 327.816 268.808C329.056 267.594 330.609 266.747 332.301 266.363C332.806 266.243 333.321 266.173 333.839 266.155C334.023 266.134 334.209 266.149 334.387 266.199Z" fill="#6E7191"/>
<path d="M306.479 279.633C306.574 279.437 306.702 279.258 306.857 279.104C307.247 278.653 307.681 278.243 308.155 277.881C309.724 276.664 311.614 275.93 313.593 275.769C315.573 275.607 317.556 276.026 319.302 276.973C319.825 277.243 320.319 277.566 320.776 277.937C321.098 278.215 321.255 278.385 321.236 278.404C321.217 278.423 320.499 277.843 319.17 277.2C317.45 276.35 315.532 275.984 313.621 276.141C311.71 276.297 309.877 276.971 308.318 278.088C307.115 278.959 306.535 279.684 306.479 279.633Z" fill="#6E7191"/>
<path d="M325.237 286.233C325.193 286.233 324.878 285.925 324.444 285.313C323.833 284.516 323.428 283.581 323.265 282.59C323.195 282.08 323.245 281.562 323.41 281.075C323.575 280.588 323.851 280.146 324.216 279.785C324.847 279.249 325.363 279.261 325.357 279.299C325.351 279.337 324.897 279.456 324.418 279.986C324.124 280.337 323.906 280.745 323.778 281.185C323.65 281.624 323.615 282.085 323.675 282.539C323.842 283.472 324.188 284.362 324.696 285.162C324.927 285.491 325.109 285.852 325.237 286.233Z" fill="#6E7191"/>
</g>
<path d="M387.402 399.738L399.087 434.763L353.041 450.23C351.899 445.985 372.895 429.637 372.895 429.637L364.455 407.525L387.402 399.738Z" fill="#A0A3BD"/>
<g opacity="0.6">
<path opacity="0.6" d="M399.061 434.809L397.766 431.292L354.084 447.398C354.084 447.398 352.286 448.927 353.014 450.212L399.061 434.809Z" fill="white"/>
</g>
<path d="M370.064 418.883C370.886 418.828 371.68 418.559 372.365 418.101C373.148 417.686 373.878 417.179 374.54 416.59C374.931 416.244 375.3 415.875 375.646 415.484C375.855 415.262 376.03 415.01 376.167 414.738C376.264 414.541 376.289 414.316 376.238 414.103C376.187 413.89 376.063 413.701 375.889 413.569C375.721 413.458 375.53 413.387 375.331 413.36C375.131 413.334 374.929 413.353 374.738 413.416C374.445 413.513 374.167 413.648 373.911 413.821C373.46 414.082 373.033 414.383 372.635 414.72C371.974 415.307 371.407 415.993 370.954 416.752C370.199 418.047 370.109 418.964 370.199 418.982C370.289 419 370.621 418.173 371.44 417.04C371.926 416.372 372.493 415.768 373.129 415.242C373.505 414.935 373.905 414.659 374.324 414.414C374.765 414.126 375.178 413.983 375.376 414.145C375.574 414.306 375.466 414.243 375.376 414.405C375.273 414.604 375.143 414.789 374.99 414.953C374.678 415.329 374.344 415.686 373.992 416.024C373.388 416.601 372.732 417.122 372.033 417.579C371.351 417.974 370.694 418.409 370.064 418.883Z" fill="#263238"/>
<path d="M370.46 419.09C370.686 418.333 370.651 417.523 370.361 416.788C370.125 415.965 369.745 415.193 369.237 414.504C368.929 414.095 368.58 413.718 368.195 413.38C367.965 413.13 367.674 412.944 367.352 412.839C367.029 412.733 366.685 412.712 366.352 412.777C366.156 412.844 365.982 412.963 365.849 413.121C365.716 413.28 365.629 413.472 365.597 413.676C365.548 413.975 365.548 414.278 365.597 414.576C365.684 415.087 365.851 415.582 366.091 416.042C366.502 416.819 367.102 417.481 367.836 417.966C368.486 418.481 369.31 418.725 370.136 418.649C370.181 418.515 369.237 418.37 368.204 417.516C367.6 417.03 367.112 416.415 366.775 415.717C366.587 415.313 366.46 414.882 366.397 414.441C366.307 413.955 366.397 413.541 366.568 413.541C366.763 413.536 366.957 413.572 367.138 413.648C367.317 413.724 367.479 413.838 367.61 413.983C367.963 414.282 368.288 414.613 368.581 414.971C369.073 415.584 369.473 416.266 369.768 416.994C370.298 418.226 370.325 419.099 370.46 419.09Z" fill="#263238"/>
<path d="M294.851 407.831L296.954 444.321L248.419 444.96C248.635 440.572 273.585 431.472 273.585 431.472L272.319 407.831H294.851Z" fill="#A0A3BD"/>
<g opacity="0.6">
<path opacity="0.6" d="M296.955 444.359L296.766 440.645L250.271 442.641C250.271 442.641 248.123 443.54 248.392 444.997L296.955 444.359Z" fill="white"/>
</g>
<path d="M273.145 425.817C273.244 426.014 274.332 425.69 275.671 425.762C277.01 425.835 278.061 426.212 278.178 426.023C278.295 425.835 277.28 425.043 275.707 424.98C274.134 424.917 273.019 425.655 273.145 425.817Z" fill="#263238"/>
<path d="M274.215 420.367C275.014 420.557 275.849 420.542 276.641 420.322C277.513 420.161 278.364 419.901 279.177 419.548C279.654 419.341 280.116 419.1 280.56 418.829C280.831 418.687 281.077 418.501 281.288 418.281C281.448 418.127 281.545 417.92 281.562 417.7C281.579 417.479 281.513 417.26 281.378 417.085C281.252 416.928 281.092 416.801 280.91 416.716C280.728 416.629 280.528 416.587 280.326 416.59C280.023 416.591 279.72 416.633 279.428 416.716C278.913 416.842 278.411 417.013 277.927 417.228C277.117 417.584 276.369 418.064 275.707 418.649C274.592 419.647 274.224 420.493 274.305 420.538C274.386 420.583 274.952 419.899 276.103 419.072C276.765 418.587 277.487 418.189 278.251 417.885C278.703 417.707 279.169 417.565 279.644 417.462C280.156 417.327 280.542 417.319 280.731 417.534C280.776 417.615 280.785 417.642 280.677 417.786C280.522 417.947 280.342 418.083 280.147 418.191C279.734 418.449 279.308 418.687 278.87 418.901C278.122 419.274 277.339 419.575 276.534 419.8C275.748 419.932 274.973 420.121 274.215 420.367Z" fill="#263238"/>
<path d="M274.529 420.682C274.974 420.026 275.186 419.242 275.132 418.451C275.158 417.6 275.033 416.751 274.763 415.943C274.596 415.457 274.38 414.99 274.116 414.549C273.974 414.242 273.755 413.975 273.482 413.776C273.208 413.576 272.888 413.449 272.552 413.407C272.339 413.41 272.132 413.473 271.953 413.589C271.776 413.705 271.634 413.87 271.546 414.063C271.422 414.331 271.34 414.616 271.303 414.909C271.221 415.424 271.221 415.949 271.303 416.464C271.454 417.329 271.826 418.141 272.381 418.82C273.343 419.998 274.341 420.259 274.359 420.178C274.377 420.097 273.604 419.647 272.858 418.514C272.432 417.864 272.159 417.127 272.058 416.356C271.995 415.915 271.995 415.467 272.058 415.026C272.13 414.54 272.319 414.127 272.507 414.189C272.696 414.252 273.164 414.549 273.406 414.935C273.656 415.327 273.868 415.743 274.035 416.176C274.315 416.909 274.485 417.679 274.539 418.461C274.628 419.809 274.395 420.655 274.529 420.682Z" fill="#263238"/>
<path d="M281.666 260.637C281.666 260.637 262.728 352.87 262.728 356.018C262.728 359.165 270.036 427.344 270.036 427.344H297.8L291.446 353.51L313.978 291.687L311.731 260.637H281.666Z" fill="#001837"/>
<path d="M309.448 276.463C309.898 279.539 365.704 423.504 365.704 423.504L393.271 413.765C393.01 413.765 361.458 329.304 361.458 329.304C361.458 329.304 360.449 284.261 357.771 261.912C356.086 247.842 343.414 239.55 343.414 239.55L306.652 258.991L309.448 276.463Z" fill="#001837"/>
<path d="M265.559 173.744C265.38 174.643 282.016 231.586 282.016 231.586L283.257 252.113L280.884 261.913C280.884 261.913 300.226 264.251 314.706 264.899C329.186 265.546 344.174 241.741 344.174 241.741L336.79 179.427L310.724 149.24L300.721 152.244C300.721 152.244 294.996 171.811 278.331 164.311L276.084 165.597L265.559 173.744Z" fill="#E0623B"/>
<path d="M267.145 166.58L284.522 157.899L308.55 149.925C308.55 149.925 322.439 146.954 330.846 151.661C338.207 155.804 341.826 226.722 341.826 226.722L343.894 240.864L283.491 252.316L284.522 238.294C284.522 238.294 272.563 216.381 269.798 206.765C268.745 192.801 267.145 166.58 267.145 166.58Z" fill="#E0623B"/>
<path d="M336.019 172.644C335.969 172.682 335.915 172.713 335.857 172.737L335.386 172.968C334.974 173.17 334.372 173.436 333.619 173.751C329.681 175.382 325.553 176.51 321.333 177.107C320.525 177.22 319.868 177.297 319.41 177.332L318.889 177.369C318.827 177.382 318.765 177.386 318.702 177.382C318.761 177.363 318.822 177.349 318.883 177.343L319.402 177.265C319.854 177.208 320.513 177.109 321.312 176.978C323.407 176.638 325.483 176.19 327.532 175.637C329.576 175.074 331.59 174.404 333.566 173.631C334.323 173.335 334.935 173.086 335.356 172.907L335.844 172.708C335.9 172.68 335.959 172.659 336.019 172.644Z" fill="white"/>
<path d="M290.047 72.5566C290.585 71.7557 291.299 71.0892 292.136 70.6092C292.973 70.1298 293.909 69.8497 294.872 69.7915C295.654 69.7374 296.529 69.8263 297.119 69.3095C297.487 68.8816 297.781 68.3949 297.989 67.8695C298.215 67.5118 298.511 67.2023 298.859 66.9603C299.207 66.7189 299.6 66.5484 300.014 66.4608C300.428 66.3733 300.856 66.3693 301.272 66.4495C301.688 66.529 302.084 66.6922 302.436 66.9275C302.735 67.2203 303.08 67.4617 303.457 67.6422C305.089 68.1543 306.226 65.0551 307.855 65.582C307.228 65.9608 306.733 66.5224 306.434 67.1916C306.293 67.5278 306.27 67.9022 306.368 68.2539C306.465 68.6055 306.678 68.9137 306.972 69.1297C308.588 70.0997 310.382 66.9489 312.116 67.6776C313.058 68.0968 313.427 69.4793 314.445 69.5341C314.837 69.5021 315.22 69.4031 315.579 69.2413C316.221 69.0782 316.902 69.1651 317.482 69.4853C318.062 69.8056 318.499 70.3344 318.704 70.9648C319.017 72.0499 318.706 73.4993 319.67 74.0916C320.263 74.4533 321.029 74.2394 321.693 74.0134C321.86 75.0356 321.794 76.0832 321.499 77.076C322.477 77.4738 323.264 78.2359 323.694 79.2013C324.123 80.1673 324.162 81.2617 323.802 82.2552C324.839 82.7205 325.773 83.3837 326.554 84.2087C327.28 85.0758 327.641 86.3467 327.149 87.3669C327.014 87.5848 326.909 87.8208 326.839 88.0682C326.812 88.3483 326.862 88.6298 326.983 88.8831C327.383 89.8799 328.02 90.8012 328.162 91.8649C328.304 92.9278 327.745 94.2288 326.675 94.3284C326.429 94.3451 326.14 94.3171 325.958 94.4902C325.835 94.6366 325.775 94.8258 325.791 95.0164C325.86 95.7872 326.051 96.542 326.355 97.254C326.66 97.972 326.68 98.7796 326.411 99.5123C326.081 100.21 325.08 100.611 324.511 100.102C325.026 101.221 325.537 102.346 326.051 103.465C326.355 104.133 326.64 104.954 326.237 105.559C325.695 106.35 324.392 106.038 323.741 105.331C323.09 104.624 322.774 103.656 322.12 102.963C321.82 102.709 321.547 102.424 321.307 102.112C321.139 101.852 321.043 101.519 320.771 101.368C320.225 101.067 319.615 101.857 319.793 102.457C319.971 103.056 320.537 103.433 321.005 103.828C321.475 104.222 321.917 104.857 321.696 105.445C321.594 105.724 321.348 105.955 321.265 106.228C320.932 107.222 322.403 107.848 322.738 108.834C322.988 109.559 322.567 110.336 322.126 110.969C321.588 111.74 320.418 112.497 319.855 111.745C319.714 111.452 319.589 111.15 319.482 110.843C319.251 110.537 318.949 110.292 318.602 110.128C317.792 109.625 317.148 108.893 316.751 108.024C317.702 108.847 318.756 109.972 318.403 111.176C318.201 111.664 317.927 112.118 317.59 112.525C317.019 113.38 316.752 114.418 316.191 115.283C315.631 116.148 314.579 116.852 313.605 116.527C313.849 116.991 313.929 117.524 313.832 118.04C313.736 118.556 313.468 119.023 313.072 119.367C312.676 119.711 312.175 119.911 311.652 119.934C311.128 119.957 310.611 119.803 310.187 119.495C309.98 119.301 309.735 119.153 309.467 119.06C309.159 119.036 308.851 119.101 308.578 119.243C307.707 119.557 306.768 119.625 305.862 119.439C304.956 119.253 304.119 118.821 303.442 118.19L304.292 117.703C302.469 117.797 300.562 117.877 298.912 117.108C297.261 116.34 295.92 114.512 296.399 112.749C296.603 111.983 297.112 111.146 296.692 110.476C296.402 110.011 295.796 109.883 295.261 109.8L288.493 108.709C287.398 108.534 286.239 108.333 285.402 107.606C284.565 106.878 284.241 105.444 285.037 104.674C284.366 103.774 283.45 103.084 282.399 102.689C281.227 102.241 279.937 102.181 278.755 101.793C277.573 101.404 276.379 100.502 276.235 99.2743C276.091 98.0469 277.611 96.7506 278.626 97.5147C278.12 95.6909 274.795 96.1709 274.18 94.3833C273.676 92.9285 275.455 91.804 276.227 90.4776C275.932 90.013 275.342 89.7583 275.032 89.2843C274.38 88.2908 275.305 87.0126 276.28 86.3179C277.256 85.6233 278.442 84.8799 278.489 83.6919C278.537 82.5039 277.302 81.348 277.736 80.2101C277.868 79.8999 278.111 79.6506 278.418 79.5122C278.725 79.3738 279.074 79.3564 279.392 79.4634C279.853 77.1689 284.147 78.0527 284.964 75.8592C285.039 75.6888 285.054 75.4982 285.009 75.3177C284.953 75.1666 284.856 75.0336 284.729 74.934C284.156 74.4306 283.381 74.2467 282.716 73.8997C282.051 73.5534 281.407 72.8702 281.549 72.1268C281.691 71.384 283.015 71.16 283.135 71.9095C283.305 71.7203 283.515 71.5732 283.75 71.4776C283.985 71.382 284.239 71.3412 284.491 71.3579C284.745 71.3753 284.991 71.4489 285.211 71.5752C285.431 71.7009 285.62 71.8754 285.763 72.0846C286.164 71.3673 287.157 71.1955 287.948 71.4803C288.698 71.8313 289.355 72.3541 289.865 73.0066" fill="#001837"/>
<path d="M304.454 94.3391C303.168 91.4189 300.407 89.4079 297.529 88.026C296.356 87.3735 295.039 87.0219 293.697 87.0032C292.357 87.0674 290.978 87.8241 290.553 89.0971L291.188 91.2424C291.624 94.775 294.905 97.143 296.851 100.119C297.693 101.415 298.51 103.018 299.987 103.332C300.797 103.461 301.626 103.282 302.31 102.83C305.08 101.214 305.742 97.2834 304.454 94.3391Z" fill="#E0623B"/>
<path d="M308.071 110.335C308.736 108.802 308.841 107.084 308.368 105.48C307.895 103.877 306.874 102.491 305.483 101.564C306.4 99.6795 305.399 97.3168 303.756 96.0192C302.112 94.7209 299.992 94.2382 297.947 93.7936C295.893 89.3351 289.916 87.2091 285.505 89.3625C282.295 86.334 277.002 86.9183 273.132 89.0389C272.226 89.6259 271.242 90.0805 270.208 90.3887C269.424 90.497 268.633 90.5525 267.841 90.5545C263.5 90.9215 259.986 94.8085 259.218 99.0911C259.142 99.7851 258.976 100.466 258.724 101.116C258.335 101.94 257.595 102.54 257.013 103.236C256.383 104 255.925 104.891 255.671 105.848C255.416 106.805 255.37 107.806 255.537 108.782C255.827 110.432 256.736 112.053 256.366 113.691C256.185 114.509 255.693 115.253 255.596 116.085C255.314 118.503 258.315 120.264 258.368 122.688C258.402 123.171 258.262 123.666 258.232 124.154C258.174 125.181 258.492 126.195 259.126 127.005C259.61 127.621 260.287 128.137 260.499 128.889C260.586 129.478 260.599 130.076 260.537 130.668C260.561 132.123 264.747 136.826 266.121 137.318L302.135 129.686C303.426 129.079 304.497 128.086 305.199 126.843C305.901 125.601 306.198 124.17 306.051 122.751C305.935 122.29 305.95 121.806 306.095 121.354C306.315 121.015 306.602 120.724 306.938 120.499C308.974 118.744 308.554 115.502 307.729 112.937C307.594 112.586 307.518 112.213 307.507 111.836C307.595 111.304 307.787 110.795 308.071 110.335Z" fill="#001837"/>
<path d="M297.786 112.667C296.485 106.276 290.877 99.8475 283.872 98.1334C279.429 97.0557 276.341 97.7282 274.191 97.9462C271.19 98.3165 268.372 99.5908 266.11 101.6C264.232 102.508 258.442 110.763 259.661 118.073C261.014 126.183 262.989 136.032 265.322 141.777C270.012 153.324 279.553 152.715 279.553 152.715L283.101 172.859L305.059 152.14L297.786 112.667Z" fill="#FFBF9D"/>
<path d="M283.929 126.4C283.979 126.856 284.206 127.274 284.56 127.565C284.913 127.856 285.367 127.999 285.824 127.961C286.048 127.952 286.268 127.899 286.472 127.803C286.675 127.707 286.857 127.572 287.007 127.405C287.157 127.237 287.273 127.042 287.346 126.83C287.42 126.618 287.45 126.393 287.436 126.169C287.386 125.712 287.16 125.294 286.806 125.002C286.452 124.71 285.998 124.569 285.541 124.607C285.316 124.616 285.096 124.67 284.893 124.766C284.69 124.861 284.507 124.996 284.358 125.164C284.207 125.331 284.092 125.526 284.018 125.739C283.945 125.95 283.914 126.176 283.929 126.4Z" fill="#211F54"/>
<path d="M266.099 127.647C266.149 128.103 266.377 128.523 266.731 128.814C267.086 129.106 267.541 129.247 267.999 129.208C268.222 129.198 268.442 129.144 268.645 129.049C268.848 128.952 269.03 128.817 269.18 128.65C269.33 128.484 269.445 128.289 269.519 128.077C269.593 127.865 269.624 127.64 269.61 127.416C269.561 126.96 269.335 126.541 268.981 126.249C268.626 125.957 268.172 125.816 267.715 125.854C267.49 125.862 267.27 125.916 267.066 126.012C266.862 126.107 266.68 126.242 266.529 126.409C266.378 126.576 266.262 126.772 266.189 126.984C266.115 127.197 266.084 127.422 266.099 127.647Z" fill="#211F54"/>
<path d="M262.329 122.24C262.571 122.442 263.777 121.304 265.645 121.081C267.512 120.858 269.012 121.637 269.189 121.382C269.277 121.268 269.01 120.909 268.356 120.517C267.474 120.051 266.47 119.869 265.481 119.995C264.505 120.112 263.59 120.534 262.868 121.203C262.369 121.718 262.21 122.151 262.329 122.24Z" fill="#211F54"/>
<path d="M281.485 121.099C281.75 121.274 282.833 120.033 284.676 119.603C286.519 119.173 288.087 119.807 288.238 119.534C288.312 119.412 288.006 119.064 287.315 118.758C286.385 118.385 285.363 118.308 284.388 118.541C283.426 118.752 282.557 119.268 281.909 120.01C281.458 120.571 281.358 121.02 281.485 121.099Z" fill="#211F54"/>
<path d="M275.854 135.295C275.847 135.189 274.658 135.127 272.735 135.111C272.25 135.12 271.762 135.082 271.663 134.763C271.563 134.445 271.645 133.886 271.813 133.297C272.125 132.08 272.45 130.824 272.792 129.47C274.135 124.036 275.046 119.573 274.829 119.52C274.612 119.468 273.34 123.839 271.998 129.283C271.674 130.621 271.37 131.9 271.077 133.125C270.962 133.691 270.726 134.348 271.056 135.039C271.147 135.199 271.273 135.337 271.425 135.442C271.577 135.546 271.75 135.615 271.933 135.642C272.206 135.686 272.484 135.691 272.759 135.658C274.677 135.543 275.861 135.402 275.854 135.295Z" fill="#211F54"/>
<path d="M277.218 139.735C277.519 139.241 277.942 138.832 278.446 138.548C278.951 138.264 279.519 138.113 280.098 138.111C280.518 138.099 280.935 138.171 281.327 138.324C281.718 138.476 282.073 138.707 282.373 139C282.662 139.284 282.857 139.649 282.932 140.047C283.007 140.445 282.957 140.856 282.791 141.224C282.359 141.998 281.333 142.297 280.429 142.142C279.503 141.935 278.628 141.546 277.854 140.997C277.623 140.872 277.418 140.705 277.247 140.505C277.166 140.41 277.115 140.292 277.101 140.168C277.088 140.043 277.111 139.918 277.169 139.807" fill="#FF9A6C"/>
<path d="M281.542 135.932C281.238 135.954 281.478 137.991 279.905 139.649C278.331 141.308 276.141 141.345 276.161 141.635C276.17 141.765 276.694 141.971 277.634 141.886C278.832 141.759 279.947 141.213 280.783 140.345C281.584 139.51 282.028 138.396 282.022 137.238C281.971 136.378 281.681 135.903 281.542 135.932Z" fill="#211F54"/>
<path d="M279.165 113.867C279.46 114.332 281.248 113.673 283.474 113.444C285.7 113.216 287.587 113.414 287.775 112.901C287.854 112.652 287.442 112.249 286.624 111.923C285.546 111.54 284.396 111.409 283.26 111.536C282.123 111.665 281.032 112.05 280.066 112.663C279.344 113.16 279.033 113.648 279.165 113.867Z" fill="#211F54"/>
<path d="M262.03 114.094C262.412 114.481 263.656 113.884 265.209 113.673C266.762 113.463 268.117 113.615 268.369 113.132C268.474 112.896 268.218 112.497 267.593 112.162C266.764 111.756 265.83 111.619 264.921 111.771C264.008 111.9 263.157 112.307 262.484 112.937C261.991 113.461 261.863 113.922 262.03 114.094Z" fill="#211F54"/>
<path d="M279.562 152.705C285.242 151.475 290.47 148.693 294.665 144.667C294.665 144.667 292.355 154.116 280.092 155.785L279.562 152.705Z" fill="#894943"/>
<path d="M298.496 124.493C298.288 123.6 298.832 121.255 299.702 120.913C301.972 119.997 306.259 119.196 307.686 125.171C309.64 133.336 301.045 133.612 300.981 133.384C300.916 133.155 299.201 127.565 298.496 124.493Z" fill="#FFBF9D"/>
<path d="M302.49 129.85C302.521 129.814 302.654 129.912 302.925 129.965C303.297 130.03 303.679 129.948 303.992 129.735C304.778 129.195 305.177 127.667 304.865 126.189C304.718 125.483 304.414 124.818 303.977 124.245C303.839 124.009 303.647 123.81 303.415 123.664C303.183 123.519 302.919 123.432 302.647 123.411C302.473 123.407 302.303 123.463 302.167 123.572C302.031 123.68 301.937 123.832 301.902 124.002C301.847 124.254 301.93 124.408 301.898 124.43C301.866 124.451 301.692 124.338 301.676 123.96C301.67 123.746 301.74 123.537 301.872 123.368C302.056 123.146 302.32 123.004 302.606 122.972C302.958 122.958 303.307 123.034 303.62 123.193C303.934 123.352 304.201 123.589 304.397 123.881C304.913 124.506 305.268 125.248 305.432 126.042C305.776 127.698 305.301 129.45 304.203 130.066C304 130.18 303.772 130.248 303.538 130.264C303.304 130.281 303.07 130.245 302.852 130.16C302.551 130.036 302.467 129.871 302.49 129.85Z" fill="#894943"/>
<path d="M257.873 118.596C259.283 117.177 260.012 115.533 259.467 113.629C260.636 113.703 261.423 112.036 261.841 110.938C262.259 109.841 262.932 109.183 262.61 108.054C262.532 107.834 262.515 107.597 262.562 107.368C262.654 107.017 263.009 106.822 263.331 106.64C264.137 106.155 264.809 105.476 265.286 104.665C265.762 103.854 266.028 102.937 266.059 101.997C267.992 102.353 269.985 102.225 271.857 101.625C272.426 102.142 273.117 102.506 273.864 102.683C274.612 102.861 275.393 102.846 276.133 102.64C276.874 102.434 277.551 102.043 278.1 101.505C278.648 100.967 279.052 100.299 279.273 99.5625C279.666 99.9951 280.147 100.339 280.684 100.57C281.221 100.801 281.801 100.915 282.386 100.903C283.553 100.872 284.709 100.67 285.819 100.304C285.87 101.459 286.334 102.558 287.126 103.401C287.917 104.244 288.984 104.776 290.133 104.901C290.289 104.886 290.446 104.903 290.595 104.95C290.744 104.997 290.883 105.073 291.002 105.175C291.147 105.466 291.17 105.803 291.067 106.112C291.022 106.618 291.079 107.128 291.234 107.612C291.39 108.096 291.642 108.543 291.973 108.927C292.305 109.312 292.711 109.625 293.167 109.85C293.623 110.074 294.119 110.204 294.626 110.232C294.379 110.58 294.214 110.979 294.144 111.4C294.073 111.82 294.098 112.251 294.218 112.661C294.338 113.07 294.548 113.447 294.835 113.763C295.121 114.079 295.474 114.327 295.87 114.486C296.212 114.598 296.648 114.723 296.683 115.08C296.684 115.216 296.65 115.351 296.584 115.471C296.166 116.422 295.752 117.446 295.92 118.474C296.089 119.5 297.031 120.474 298.045 120.267C297.81 120.546 297.632 120.87 297.525 121.22C297.418 121.57 297.382 121.937 297.42 122.301C297.572 123.014 298.48 123.572 299.062 123.157C299.322 122.984 303.203 121.236 303.33 120.956C304.911 117.276 301.203 114.482 300.071 110.638C298.859 106.795 296.773 103.284 293.977 100.383C292.854 99.1313 291.571 98.0322 290.162 97.1156C288.498 96.165 286.732 95.4042 284.898 94.8479C282.537 94.0417 280.112 93.2408 277.618 93.2401C272.968 93.2207 268.753 95.8902 265.08 98.7442C263.642 99.7878 262.352 101.021 261.245 102.411C260.041 104.159 259.159 106.109 258.639 108.167C257.781 111.106 257.22 114.19 257.617 117.225" fill="#001837"/>
<path d="M255.608 116.108C255.634 115.769 255.714 115.435 255.844 115.12C255.954 114.807 256.127 114.436 256.25 113.976C256.401 113.445 256.437 112.887 256.354 112.342C256.245 111.657 256.078 110.984 255.854 110.328C255.58 109.539 255.413 108.716 255.358 107.882C255.323 106.917 255.487 105.955 255.84 105.056C256.031 104.567 256.278 104.101 256.578 103.669C256.901 103.221 257.259 102.8 257.649 102.41C258.053 102.013 258.39 101.553 258.646 101.049C258.86 100.498 259.001 99.9215 259.065 99.3345C259.5 96.6818 260.871 94.2723 262.929 92.5442C263.484 92.0815 264.087 91.6811 264.729 91.3501C265.393 91.0165 266.096 90.7678 266.822 90.6114C267.192 90.5338 267.565 90.479 267.941 90.4456C268.323 90.4189 268.699 90.3928 269.071 90.3667C269.827 90.3567 270.573 90.1875 271.259 89.8686C271.96 89.5524 272.614 89.1232 273.326 88.7528C274.04 88.3778 274.784 88.0629 275.55 87.8109C276.328 87.5515 277.126 87.3596 277.937 87.2359C278.765 87.1169 279.602 87.0795 280.438 87.1243C282.164 87.2018 283.822 87.8216 285.177 88.8952L285.574 89.2262L285.431 89.2075C287.715 88.1986 290.3 88.107 292.649 88.9514C294.999 89.7951 296.934 91.5106 298.056 93.7422L297.973 93.6753C299.061 93.8913 300.135 94.1761 301.187 94.5284C302.215 94.8687 303.171 95.3962 304.008 96.0834C304.805 96.7707 305.398 97.6625 305.722 98.6633C306.048 99.6207 305.997 100.666 305.577 101.586L305.539 101.453C306.897 102.338 307.904 103.671 308.384 105.22C308.847 106.599 308.877 108.086 308.468 109.482C308.371 109.801 308.252 110.113 308.111 110.415C307.971 110.712 307.821 110.989 307.715 111.278C307.609 111.554 307.573 111.852 307.611 112.145C307.658 112.432 307.731 112.715 307.83 112.989C308.157 114.004 308.368 115.053 308.456 116.115C308.535 116.973 308.446 117.839 308.193 118.663C308 119.271 307.671 119.825 307.229 120.284C306.872 120.659 306.521 120.854 306.35 121.05C306.259 121.148 306.177 121.254 306.105 121.368C306.154 121.242 306.229 121.128 306.325 121.032C306.495 120.821 306.839 120.612 307.182 120.239C307.607 119.781 307.924 119.233 308.108 118.635C308.343 117.82 308.42 116.968 308.335 116.124C308.241 115.071 308.024 114.034 307.687 113.033C307.588 112.75 307.51 112.46 307.457 112.165C307.417 111.848 307.455 111.525 307.566 111.225C307.684 110.924 307.818 110.63 307.965 110.343C308.101 110.048 308.215 109.743 308.304 109.431C308.695 108.07 308.66 106.622 308.203 105.282C307.729 103.779 306.747 102.488 305.425 101.631L305.344 101.584L305.387 101.498C305.786 100.618 305.831 99.6187 305.512 98.7068C305.196 97.7474 304.625 96.893 303.859 96.2352C303.04 95.5706 302.109 95.0605 301.109 94.7283C300.064 94.3847 298.999 94.1039 297.92 93.8879L297.862 93.8919L297.858 93.8338C296.753 91.675 294.864 90.0204 292.579 89.2095C290.294 88.3978 287.785 88.4908 285.567 89.4695L285.491 89.5043L285.424 89.4508L285.042 89.1279C283.726 88.0896 282.118 87.4913 280.443 87.4151C279.626 87.3696 278.806 87.4044 277.995 87.5187C277.197 87.6404 276.409 87.8282 275.642 88.081C274.89 88.3303 274.158 88.6399 273.455 89.0062C272.757 89.3612 272.093 89.7958 271.373 90.1227C271.017 90.2905 270.644 90.4188 270.26 90.5064C269.878 90.5846 269.49 90.6294 269.1 90.6415C268.719 90.6676 268.345 90.6649 267.972 90.6909C267.606 90.7237 267.242 90.7785 266.883 90.8547C266.177 91.0078 265.493 91.2465 264.846 91.5654C264.22 91.889 263.631 92.2787 263.087 92.7273C261.064 94.4181 259.711 96.7774 259.272 99.3787C259.204 99.983 259.056 100.577 258.833 101.142C258.563 101.662 258.213 102.136 257.795 102.546C257.409 102.927 257.054 103.34 256.736 103.78C256.44 104.2 256.195 104.654 256.005 105.132C255.655 106.008 255.487 106.947 255.514 107.89C255.563 108.706 255.721 109.511 255.982 110.285C256.203 110.949 256.366 111.632 256.469 112.324C256.546 112.884 256.5 113.454 256.334 113.994C256.187 114.456 256.009 114.827 255.894 115.132C255.799 115.362 255.721 115.6 255.662 115.842C255.646 116.023 255.613 116.108 255.608 116.108Z" fill="#4A4566"/>
<path d="M281.258 88.4454C281.258 88.4454 281.015 88.3706 280.571 88.2656C279.948 88.1219 279.306 88.0851 278.671 88.156C277.737 88.2562 276.847 88.6032 276.091 89.1615C275.167 89.8587 274.487 90.8308 274.15 91.9386C274.05 92.2702 273.986 92.6118 273.959 92.9568C273.936 93.1085 273.947 93.2636 273.991 93.4107C274.034 93.5578 274.11 93.6935 274.213 93.8085L274.476 94.0371L274.126 94.0184C273.212 93.9783 272.319 94.2985 271.64 94.9109C271.104 95.3923 270.739 96.0341 270.599 96.7407C270.504 97.2101 270.5 97.6934 270.586 98.1647C270.633 98.3332 270.671 98.5037 270.699 98.6762C270.673 98.6381 270.651 98.5973 270.633 98.5545C270.582 98.4342 270.54 98.3105 270.506 98.1848C270.385 97.7101 270.364 97.2161 270.443 96.7327C270.569 95.9806 270.939 95.2913 271.494 94.7705C272.204 94.114 273.144 93.7657 274.11 93.8005L274.023 94.0157C273.892 93.878 273.793 93.7129 273.733 93.5324C273.674 93.3519 273.655 93.16 273.678 92.9715C273.707 92.6065 273.775 92.2454 273.88 91.8945C274.231 90.7339 274.949 89.7177 275.924 88.9983C276.59 88.519 277.355 88.1967 278.164 88.0563C278.972 87.9153 279.801 87.9601 280.589 88.1867C280.759 88.2375 280.926 88.2984 281.088 88.3699C281.206 88.4053 281.262 88.4354 281.258 88.4454Z" fill="#4A4566"/>
<path d="M296.682 94.7906C296.629 94.9216 296.556 95.0433 296.464 95.1503C296.236 95.4638 295.975 95.7506 295.684 96.006C295.247 96.4004 294.729 96.6946 294.167 96.8698C293.45 97.0964 292.673 97.0429 291.992 96.7207L292.168 96.6551C292.118 96.7802 292.059 96.9105 292.006 97.0449C291.952 97.18 291.868 97.3023 291.799 97.4287C291.371 98.1473 290.769 98.747 290.048 99.1729C289.469 99.5252 288.826 99.7599 288.155 99.8635C287.706 99.9303 287.25 99.931 286.802 99.8662C286.631 99.8494 286.464 99.8053 286.307 99.7351C286.909 99.7946 287.516 99.7786 288.114 99.6863C288.753 99.562 289.362 99.3206 289.913 98.9737C290.59 98.5572 291.157 97.9842 291.567 97.3036C291.636 97.178 291.706 97.061 291.765 96.9359C291.824 96.8102 291.869 96.6906 291.919 96.5702L291.973 96.4405L292.093 96.5C292.717 96.7889 293.425 96.8397 294.084 96.6424C294.624 96.4887 295.126 96.2239 295.558 95.8643C296.317 95.2626 296.645 94.7638 296.682 94.7906Z" fill="#4A4566"/>
<path d="M302.743 101.377C302.743 101.377 302.746 101.43 302.754 101.536C302.746 101.684 302.715 101.831 302.662 101.97C302.451 102.489 302.053 102.91 301.547 103.15C300.788 103.475 299.953 103.574 299.14 103.435C298.69 103.379 298.225 103.329 297.732 103.223C297.201 103.133 296.718 102.859 296.368 102.449L296.286 102.328L296.492 102.344C295.901 103.119 295.196 103.798 294.4 104.359C293.739 104.819 292.962 105.084 292.158 105.123C291.619 105.156 291.08 105.046 290.598 104.805C290.466 104.742 290.343 104.662 290.231 104.568C290.155 104.506 290.118 104.469 290.122 104.464C290.127 104.459 290.3 104.573 290.625 104.715C291.103 104.913 291.621 104.993 292.136 104.95C292.901 104.883 293.634 104.614 294.261 104.169C295.026 103.609 295.706 102.942 296.282 102.188L296.389 102.054L296.492 102.203L296.557 102.3C296.873 102.661 297.305 102.902 297.779 102.981C298.233 103.078 298.691 103.152 299.152 103.201C299.921 103.346 300.714 103.274 301.443 102.992C301.923 102.783 302.314 102.412 302.549 101.944C302.632 101.762 302.697 101.572 302.743 101.377Z" fill="#4A4566"/>
<path d="M304.797 70.1606C304.797 70.1606 304.659 70.1994 304.425 70.3177C304.093 70.5009 303.822 70.7783 303.646 71.1146C303.372 71.6394 303.282 72.2404 303.391 72.8221C303.555 73.5789 303.83 74.3076 304.208 74.9841L304.269 75.1058L304.134 75.1152C303.115 75.3191 302.191 75.8512 301.503 76.6294C301.112 77.0593 300.829 77.5754 300.674 78.135C300.519 78.6946 300.498 79.2829 300.612 79.8525C300.706 80.3733 300.918 80.8653 301.233 81.2905C301.549 81.7157 301.957 82.0627 302.429 82.3033L302.749 82.4558L302.4 82.534C301.821 82.6704 301.277 82.9244 300.801 83.2814C300.325 83.6378 299.927 84.089 299.634 84.6065C299.165 85.4415 298.998 86.4136 299.161 87.3582C299.269 87.9806 299.504 88.5736 299.851 89.1011C300.1 89.4721 300.277 89.6446 300.258 89.6553C300.24 89.6667 300.208 89.6199 300.124 89.5383C299.999 89.4207 299.886 89.2903 299.786 89.1492C299.299 88.4854 299.01 87.6965 298.953 86.8749C298.895 86.0532 299.072 85.2322 299.462 84.5062C299.767 83.954 300.185 83.4713 300.688 83.0896C301.192 82.7085 301.769 82.4364 302.384 82.292L302.356 82.522C301.849 82.2659 301.408 81.8955 301.068 81.4403C300.728 80.9843 300.498 80.4562 300.397 79.8966C300.265 79.2769 300.292 78.6337 300.474 78.0267C300.648 77.4517 300.942 76.9196 301.336 76.4663C302.063 75.6547 303.038 75.1051 304.109 74.9032L304.032 75.0543C303.65 74.359 303.379 73.6083 303.231 72.8287C303.132 72.211 303.245 71.5779 303.552 71.0337C303.746 70.6847 304.047 70.4073 304.409 70.2408C304.502 70.196 304.602 70.1646 304.704 70.1472C304.736 70.1472 304.767 70.1512 304.797 70.1606Z" fill="#4A4566"/>
<path d="M323.461 84.5314C323.461 84.5314 323.425 84.5775 323.347 84.6417C323.231 84.7426 323.11 84.8369 322.983 84.9245C322.502 85.2494 321.975 85.5021 321.42 85.6746C320.569 85.9474 319.67 86.043 318.78 85.956C317.636 85.8604 316.539 85.456 315.607 84.7848L315.788 84.7286C315.555 85.4861 315.155 86.1814 314.619 86.765C314.083 87.3486 313.424 87.8046 312.689 88.1014C311.895 88.4009 311.026 88.4437 310.206 88.2231C309.387 88.0031 308.656 87.5305 308.12 86.872L308.329 86.8138C308.253 87.4008 308.023 87.9577 307.665 88.4283C307.339 88.8435 306.944 89.1998 306.496 89.4813C305.754 89.9265 304.925 90.2113 304.066 90.3163C303.513 90.3932 302.956 90.4319 302.4 90.4326C302.201 90.4426 302.002 90.4353 301.806 90.4112C302.002 90.3805 302.201 90.3671 302.4 90.3698C302.952 90.341 303.501 90.2815 304.047 90.1913C304.887 90.0729 305.693 89.7801 306.414 89.3315C306.867 89.0581 307.254 88.6877 307.549 88.2478C307.844 87.8079 308.037 87.3085 308.118 86.785L308.151 86.4909L308.328 86.7262C308.835 87.3419 309.522 87.7839 310.292 87.9911C311.063 88.1983 311.878 88.1602 312.626 87.8821C313.325 87.598 313.953 87.1634 314.465 86.6086C314.977 86.0543 315.361 85.3938 315.59 84.6745L315.642 84.52L315.774 84.6129C316.67 85.2668 317.723 85.6692 318.826 85.7782C319.691 85.8718 320.566 85.7956 321.402 85.5543C322.136 85.3209 322.831 84.976 323.461 84.5314Z" fill="#4A4566"/>
<path d="M317.636 98.4758C317.636 98.4758 317.641 98.5386 317.576 98.6449C317.472 98.7886 317.328 98.8969 317.16 98.9558C316.555 99.155 315.91 99.2005 315.282 99.0875C314.346 98.9364 313.48 98.4965 312.806 97.8279C311.98 96.9976 311.497 95.8852 311.453 94.7139L311.451 94.6845L311.662 94.7814C310.755 95.5061 309.643 95.9239 308.484 95.9747C307.549 96.0195 306.616 95.8491 305.756 95.4767C305.179 95.2293 304.64 94.9024 304.155 94.506C303.971 94.3776 303.806 94.2258 303.662 94.0547C304.329 94.5648 305.054 94.9933 305.823 95.3309C306.664 95.6686 307.57 95.8156 308.474 95.7621C309.58 95.692 310.637 95.2788 311.497 94.5795L311.69 94.4204L311.71 94.7005C311.753 95.8083 312.203 96.8606 312.974 97.6561C313.609 98.3026 314.427 98.7385 315.318 98.905C315.917 99.032 316.537 99.022 317.131 98.8756C317.344 98.8107 317.524 98.6676 317.636 98.4758Z" fill="#4A4566"/>
<path d="M286.989 74.5671C286.9 75.4383 286.971 76.3187 287.2 77.1644C287.482 78.1773 288.041 79.0912 288.815 79.8032C289.588 80.5152 290.545 80.9972 291.577 81.1937C292.229 81.3261 292.898 81.3455 293.556 81.2499L293.716 81.2385L293.727 81.393C293.658 82.3069 293.762 83.2248 294.032 84.0999C294.252 84.7979 294.569 85.4611 294.976 86.0688C295.127 86.2987 295.295 86.5174 295.478 86.7226C295.539 86.7968 295.615 86.8563 295.702 86.8971C295.789 86.9379 295.883 86.9593 295.979 86.9593C296.04 86.9546 296.099 86.9365 296.151 86.9058C296.203 86.875 296.249 86.8329 296.283 86.7828C296.331 86.7119 296.327 86.6584 296.337 86.6624C296.347 86.6671 296.341 86.7159 296.323 86.8042C296.29 86.8663 296.243 86.9205 296.186 86.9613C296.13 87.0021 296.064 87.0295 295.994 87.0408C295.881 87.0549 295.767 87.0408 295.66 87.0014C295.554 86.9613 295.458 86.8964 295.382 86.8122C295.187 86.6103 295.009 86.3917 294.851 86.1597C294.414 85.5506 294.071 84.8788 293.833 84.1674C293.539 83.2662 293.421 82.3169 293.487 81.3709L293.628 81.5019C292.94 81.6096 292.239 81.5929 291.557 81.4525C290.482 81.2499 289.488 80.7452 288.691 79.9964C287.893 79.2483 287.325 78.2876 287.054 77.2279C286.89 76.5988 286.833 75.9463 286.886 75.2979C286.903 75.1214 286.931 74.9455 286.97 74.7724C286.964 74.6273 286.98 74.5678 286.989 74.5671Z" fill="#4A4566"/>
<path d="M306.033 133.952C306.07 134.487 305.947 135.021 305.68 135.487C305.414 135.951 305.015 136.327 304.535 136.566C304.055 136.804 303.515 136.895 302.984 136.827C302.452 136.759 301.953 136.534 301.548 136.182C301.144 135.83 300.854 135.366 300.713 134.848C300.572 134.331 300.588 133.783 300.759 133.275C300.928 132.766 301.246 132.321 301.67 131.992C302.094 131.664 302.605 131.469 303.14 131.431C303.495 131.407 303.852 131.452 304.19 131.565C304.528 131.679 304.841 131.857 305.109 132.092C305.378 132.326 305.598 132.611 305.757 132.93C305.915 133.249 306.009 133.597 306.033 133.952Z" fill="#E0623B"/>
<path d="M326.635 206.203C326.592 206.221 326.547 206.231 326.501 206.235L326.112 206.308L324.591 206.555C323.273 206.765 321.365 207.052 319.004 207.399C314.28 208.084 307.741 209.645 300.501 210.465C293.261 211.284 286.694 211.189 281.937 211.59C279.56 211.783 277.633 211.927 276.302 212.016L274.767 212.123L274.37 212.151C274.325 212.161 274.28 212.164 274.234 212.16C274.279 212.151 274.325 212.148 274.37 212.151L274.767 212.123L276.299 211.98L281.929 211.477C286.679 211.045 293.243 211.104 300.48 210.285C307.715 209.466 314.256 207.931 318.983 207.292L324.585 206.524L326.108 206.322L326.505 206.294L326.635 206.203Z" fill="white"/>
<g opacity="0.3">
<path opacity="0.3" d="M318.06 170.539L325.493 199.871L329.151 200.492L330.894 213.054L298.627 261.252H313.323L316.505 252.62L343.012 234.921V230.76L332.845 194.224L327.992 196.743L318.06 170.539Z" fill="black"/>
</g>
<path d="M267.2 166.563C261.179 171.972 258.432 177.703 255.486 184.267C250.153 196.523 248.862 201.136 248.862 201.136L271.726 212.099L270.263 203.854L267.2 166.563Z" fill="#E0623B"/>
<path d="M245.922 168.261L239.431 206.889L255.587 216.067L258.478 168.027L245.922 168.261Z" fill="#FFBF9D"/>
<path d="M239.431 206.889C239.431 206.889 236.708 221.16 248.29 225.938C256.892 229.491 266.552 221.725 269.024 210.678L256.398 204.808L239.431 206.889Z" fill="#FFBF9D"/>
<path d="M256.312 201.87C256.472 202.647 256.55 203.438 256.546 204.23C256.687 208.059 256.308 211.89 255.419 215.616C255.269 216.396 255.037 217.158 254.726 217.889C254.812 217.102 254.947 216.322 255.128 215.552C255.403 214.118 255.733 212.135 255.934 209.912C256.135 207.688 256.223 205.689 256.232 204.271C256.201 203.47 256.228 202.667 256.312 201.87Z" fill="#FF9A6C"/>
<path d="M258.47 168.253C258.551 167.947 262.071 154.998 262.071 154.998L260.098 142.299C260.098 142.299 259.727 138.544 257.681 139.27C255.636 139.994 256.296 144.104 256.296 144.104L249.096 151.815L247.243 150.655C246.011 151.975 245.281 153.686 245.182 155.49C245.182 158.165 245.89 168.277 245.89 168.277" fill="#FFBF9D"/>
<path d="M245.922 168.253C245.894 168.145 245.878 168.034 245.874 167.923L245.793 166.947C245.729 166.053 245.64 164.804 245.535 163.249C245.43 161.694 245.309 159.712 245.173 157.512C245.173 156.956 245.1 156.384 245.068 155.804C245.019 155.184 245.073 154.561 245.229 153.958C245.584 152.672 246.238 151.487 247.138 150.502L247.243 150.389L247.371 150.47L249.232 151.63H248.99L256.175 143.911L256.118 144.08C255.981 143.155 255.981 142.216 256.118 141.292C256.191 140.804 256.355 140.333 256.601 139.906C256.871 139.461 257.3 139.135 257.801 138.996C258.056 138.927 258.325 138.93 258.579 139.006C258.832 139.081 259.059 139.226 259.235 139.423C259.555 139.781 259.794 140.204 259.936 140.664C260.179 141.525 260.349 142.407 260.443 143.298C260.58 144.152 260.709 144.998 260.838 145.82C261.337 149.132 261.804 152.202 262.223 154.934V155.006L259.533 164.676C259.211 165.793 258.942 166.679 258.728 167.334C258.647 167.617 258.575 167.842 258.518 168.027C258.498 168.106 258.468 168.181 258.43 168.253C258.429 168.171 258.442 168.089 258.47 168.011C258.47 167.826 258.567 167.593 258.631 167.31C258.8 166.649 259.026 165.755 259.315 164.627C259.936 162.274 260.806 158.986 261.869 154.958V155.03C261.434 152.299 260.951 149.229 260.427 145.917C260.298 145.111 260.161 144.241 260.024 143.387C259.936 142.525 259.769 141.672 259.525 140.841C259.4 140.438 259.195 140.065 258.921 139.745C258.794 139.601 258.629 139.497 258.445 139.444C258.261 139.391 258.066 139.392 257.882 139.447C257.488 139.605 257.149 139.874 256.906 140.222C256.663 140.569 256.526 140.98 256.513 141.404C256.38 142.283 256.38 143.177 256.513 144.056V144.16L256.449 144.233L249.24 151.928L249.127 152.049L248.998 151.96L247.146 150.8H247.371C246.511 151.739 245.88 152.864 245.527 154.087C245.328 155.229 245.301 156.394 245.446 157.544C245.551 159.744 245.648 161.67 245.721 163.273C245.793 164.877 245.841 166.086 245.874 166.98C245.874 167.383 245.874 167.705 245.874 167.963C245.9 168.057 245.916 168.155 245.922 168.253Z" fill="#FF9A6C"/>
<path d="M248.492 153.652C248.867 153.798 249.249 153.924 249.636 154.031C249.636 154.031 249.241 157.6 250.32 157.737C252.994 158.083 252.922 154.57 252.922 154.57C252.922 154.57 253.357 156.786 254.734 156.77C256.111 156.754 257.006 156.407 256.748 153.886L256.288 149.309C256.213 148.838 255.963 148.412 255.588 148.116L254.332 147.23L257.392 147.931C257.392 147.931 258.729 150.348 260.122 149.655C260.421 149.485 260.649 149.214 260.764 148.89C260.879 148.566 260.875 148.211 260.751 147.891C260.435 146.883 259.982 145.923 259.406 145.038C258.6 144.112 254.307 142.298 253.357 142.71C252.407 143.12 251.843 145.852 251.843 145.852C251.843 145.852 249.684 146.174 249.12 149.075C248.127 149.618 247.293 150.413 246.704 151.379" fill="#FFBF9D"/>
<path d="M246.711 151.412C246.711 151.412 246.711 151.339 246.808 151.21C246.918 151.019 247.042 150.836 247.179 150.663C247.696 149.99 248.342 149.428 249.079 149.011L249.023 149.084C249.133 148.396 249.388 147.738 249.772 147.157C250.246 146.433 250.977 145.914 251.818 145.707L251.697 145.828C251.829 145.198 252.015 144.581 252.253 143.983C252.379 143.656 252.54 143.345 252.736 143.056C252.845 142.894 252.985 142.754 253.147 142.645C253.321 142.531 253.527 142.474 253.734 142.484C254.491 142.538 255.235 142.706 255.941 142.984C256.684 143.248 257.408 143.563 258.108 143.926C258.48 144.114 258.836 144.332 259.171 144.579C259.518 144.85 259.794 145.201 259.977 145.602C260.38 146.377 260.715 147.186 260.975 148.02C261.034 148.265 261.037 148.521 260.983 148.767C260.931 149.014 260.823 149.246 260.669 149.446C260.507 149.652 260.291 149.809 260.045 149.9C259.799 149.991 259.533 150.012 259.276 149.961C258.795 149.816 258.364 149.537 258.036 149.156C257.704 148.809 257.417 148.422 257.182 148.004L257.319 148.108L256.779 147.987L254.258 147.407L254.427 147.028L255.684 147.923C255.928 148.158 256.135 148.43 256.296 148.729C256.371 148.889 256.42 149.061 256.441 149.237V149.704C256.506 150.316 256.562 150.921 256.618 151.516C256.675 152.113 256.739 152.701 256.795 153.273C256.867 153.85 256.893 154.433 256.876 155.014C256.89 155.323 256.83 155.631 256.699 155.911C256.568 156.192 256.373 156.437 256.127 156.625C255.628 156.874 255.07 156.974 254.516 156.916C254.242 156.872 253.982 156.764 253.758 156.6C253.534 156.436 253.352 156.221 253.227 155.973C252.977 155.542 252.797 155.074 252.696 154.587H253.018C253.061 155.605 252.709 156.601 252.035 157.367C251.697 157.682 251.258 157.868 250.795 157.89C250.584 157.918 250.37 157.918 250.158 157.89C250.062 157.833 249.979 157.756 249.913 157.664C249.848 157.573 249.803 157.468 249.78 157.359C249.558 156.728 249.465 156.06 249.507 155.393C249.512 154.924 249.544 154.455 249.603 153.991L249.652 154.055L248.789 153.741C248.696 153.711 248.607 153.671 248.524 153.62C248.623 153.626 248.721 153.648 248.814 153.684L249.676 153.942H249.724V153.991C249.7 154.452 249.7 154.915 249.724 155.377C249.706 156.011 249.809 156.643 250.03 157.238C250.118 157.375 250.215 157.528 250.36 157.552C250.542 157.573 250.726 157.573 250.908 157.552C251.31 157.526 251.69 157.357 251.979 157.077C252.583 156.361 252.888 155.441 252.833 154.506V153.144L253.139 154.474C253.237 154.919 253.406 155.346 253.638 155.739C253.734 155.945 253.878 156.125 254.057 156.266C254.236 156.405 254.446 156.501 254.669 156.544C255.156 156.592 255.647 156.503 256.086 156.287C256.276 156.13 256.425 155.931 256.524 155.705C256.621 155.48 256.665 155.235 256.65 154.989C256.661 154.429 256.629 153.869 256.554 153.313C256.498 152.741 256.433 152.153 256.377 151.557L256.191 149.744L256.143 149.285C256.13 149.153 256.094 149.025 256.038 148.906C255.891 148.652 255.706 148.421 255.491 148.221L254.234 147.335L253.372 146.722L254.403 146.956L256.924 147.536L257.456 147.657H257.544L257.593 147.738C257.972 148.513 258.618 149.125 259.413 149.462C259.594 149.499 259.782 149.485 259.956 149.421C260.13 149.357 260.282 149.245 260.395 149.1C260.511 148.948 260.591 148.772 260.63 148.585C260.669 148.398 260.666 148.205 260.621 148.02C260.373 147.22 260.056 146.443 259.67 145.699C259.513 145.344 259.269 145.034 258.962 144.797C258.642 144.566 258.305 144.358 257.955 144.176C257.27 143.819 256.562 143.507 255.837 143.241C255.176 142.973 254.478 142.805 253.767 142.742C253.618 142.737 253.47 142.774 253.341 142.847C253.212 142.922 253.105 143.03 253.034 143.161C252.845 143.425 252.691 143.712 252.575 144.015C252.339 144.592 252.15 145.188 252.011 145.796V145.893H251.915C251.145 146.076 250.473 146.542 250.03 147.198C249.652 147.746 249.392 148.366 249.265 149.019V149.067C248.539 149.455 247.892 149.974 247.356 150.598C246.889 151.162 246.735 151.428 246.711 151.412Z" fill="#FF9A6C"/>
<path d="M248.919 149.301C248.919 149.245 249.337 149.18 249.99 149.301C250.849 149.523 251.61 150.022 252.157 150.722C252.703 151.421 253.003 152.281 253.01 153.168C253.01 153.846 252.849 154.232 252.8 154.216C252.748 153.875 252.719 153.53 252.712 153.185C252.616 152.386 252.31 151.627 251.826 150.985C251.324 150.353 250.658 149.871 249.901 149.591C249.568 149.515 249.24 149.418 248.919 149.301Z" fill="#FF9A6C"/>
<path d="M354.137 446.275C348.578 446.189 343.063 445.28 337.77 443.577C326.355 440.079 317.942 432.184 312.765 420.125C308.397 409.946 307.147 398.544 306.59 390.865C305.341 373.78 315.91 321.229 318.041 311.589C319.677 304.206 320.683 285.215 313.358 273.687C312.112 271.57 310.439 269.736 308.446 268.301C306.452 266.866 304.183 265.861 301.781 265.351C283.149 261.448 264.678 284.765 263.132 286.743L222.47 360.57L217.661 357.764L258.503 283.605L258.611 283.462C259.51 282.302 280.084 255.064 302.869 259.82C309.161 261.143 314.284 264.776 317.996 270.611C325.977 283.201 325.564 303.164 323.389 312.812C320.117 327.613 310.967 375.47 312.055 390.433C313.313 407.716 317.511 431.474 339.307 438.155C362.074 445.124 371.116 436.357 377.812 427.544C385.29 417.716 389.91 412.761 395.95 411.16C405.181 408.723 411.086 412.384 414.78 415.702L411.05 420.827C410.879 420.548 404.848 414.649 397.352 416.627C392.858 417.805 388.75 422.392 382.198 431.015C376.266 438.847 368.275 446.275 354.137 446.275Z" fill="#4A4566"/>
<path d="M183.95 429.826L178.719 426.804L218.555 356.665L223.777 359.686L183.95 429.826Z" fill="#DCDDEB"/>
<path d="M146.574 433.775C146.574 433.775 143.797 434.009 142.871 434.827C141.945 435.645 134.072 451.454 134.072 451.454V456.489H155.985L161.189 442.318L161.594 436.383C161.617 436.051 161.572 435.718 161.462 435.403C161.352 435.09 161.179 434.802 160.953 434.558C160.727 434.313 160.454 434.118 160.15 433.983C159.845 433.848 159.517 433.778 159.185 433.775H146.574Z" fill="#E0623B"/>
<path d="M182.437 416.051L176.199 428.514L167.669 433.01L172.316 440.582L179.354 436.607C181.359 435.46 183.001 433.771 184.091 431.733L190.14 420.422L182.437 416.051Z" fill="#4A4566"/>
<path d="M144.058 439.692H159.248V448.19H168.569C168.569 448.19 171.13 447.65 171.75 445.86C172.172 444.135 172.389 442.367 172.397 440.591L167.669 433.01L162.429 435.708H149.603C148.64 435.707 147.693 435.955 146.854 436.427C146.015 436.9 145.311 437.581 144.813 438.406L144.058 439.692Z" fill="#E0623B"/>
<path d="M144.058 439.692V439.62C144.097 439.535 144.141 439.455 144.193 439.377L144.732 438.424C145.028 437.916 145.401 437.458 145.837 437.066C146.43 436.529 147.132 436.127 147.896 435.888C148.34 435.739 148.802 435.651 149.271 435.627C149.756 435.627 150.26 435.627 150.79 435.627H154.214H162.403L167.679 432.93L167.76 432.885V432.966L172.406 440.528C172.394 441.789 172.294 443.048 172.11 444.296C172.042 444.777 171.937 445.252 171.795 445.717C171.642 446.189 171.373 446.615 171.013 446.958C170.323 447.602 169.482 448.063 168.569 448.297H159.149V448.198C159.149 445.132 159.149 442.282 159.149 439.701L159.23 439.791L148.12 439.737H145.091H148.157L159.194 439.683H159.274V439.764C159.274 442.345 159.274 445.159 159.274 448.261L159.176 448.162H168.434C169.327 447.964 170.155 447.543 170.842 446.94C171.469 446.242 171.834 445.349 171.876 444.412C172.056 443.17 172.155 441.918 172.173 440.663V440.726L167.526 433.154H167.651L162.385 435.807H154.196H150.817C150.295 435.807 149.783 435.807 149.298 435.807C148.841 435.835 148.388 435.917 147.949 436.05C147.204 436.28 146.517 436.67 145.936 437.192C145.501 437.573 145.128 438.019 144.831 438.514L144.264 439.413L144.112 439.656L144.058 439.692Z" fill="#263238"/>
<path d="M505.767 399.936C502.046 394.226 497.741 391.052 485.67 389.658H482.515C459.227 390.431 438.581 395.053 419.067 407.804C414.052 411.069 408.956 415.601 408.65 421.571C408.318 427.866 413.45 433.082 418.834 436.319C429.521 442.748 442.203 444.682 454.598 446.354C463.487 447.55 472.574 448.683 481.409 447.253C490.245 445.823 499.08 441.543 503.934 433.99C507.349 428.684 508.545 422.228 508.742 415.915C508.922 410.43 508.76 404.522 505.767 399.936Z" fill="#E0623B"/>
<path d="M489.813 409.774C489.741 409.739 489.674 409.693 489.616 409.638L489.076 409.225C488.356 408.72 487.589 408.286 486.784 407.93C484.699 406.986 481.391 406.428 477.284 406.474C469.087 406.572 457.654 406.932 445.484 409.989C439.756 411.349 434.153 413.183 428.73 415.475C426.369 416.478 424.099 417.681 421.944 419.072C420.974 419.701 420.07 420.427 419.247 421.238C418.529 422.009 417.924 422.878 417.45 423.82C417.044 424.68 416.743 425.585 416.551 426.517C416.393 427.365 416.33 428.227 416.362 429.089C416.437 430.475 416.741 431.839 417.261 433.126C417.73 434.213 418.283 435.263 418.915 436.265C418.915 436.265 418.861 436.21 418.762 436.085C418.663 435.959 418.529 435.752 418.357 435.527C418.144 435.222 417.949 434.903 417.773 434.574C417.514 434.132 417.285 433.673 417.09 433.198C416.542 431.896 416.22 430.509 416.137 429.098C416.091 428.216 416.145 427.332 416.299 426.463C416.676 424.397 417.64 422.483 419.077 420.951C419.899 420.117 420.802 419.367 421.773 418.712C423.939 417.295 426.225 416.07 428.604 415.052C434.036 412.737 439.656 410.893 445.403 409.539C457.636 406.464 469.113 406.159 477.32 406.141C481.436 406.141 484.798 406.752 486.892 407.768C487.7 408.139 488.463 408.6 489.166 409.144L489.687 409.602C489.768 409.711 489.822 409.765 489.813 409.774Z" fill="#211F54"/>
<path d="M409.567 421.32C409.315 421.747 408.914 422.066 408.442 422.217C407.97 422.368 407.458 422.34 407.005 422.138C406.556 421.94 406.106 421.761 405.657 421.554C405.149 421.365 404.689 421.067 404.31 420.68C403.931 420.293 403.642 419.827 403.464 419.315C403.341 418.382 403.527 417.434 403.994 416.618C404.785 414.819 405.648 413.119 406.601 411.438C406.967 410.653 407.519 409.971 408.21 409.451C408.672 409.183 409.187 409.018 409.719 408.967C410.251 408.916 410.787 408.979 411.293 409.154C412.3 409.508 413.253 410.001 414.124 410.619C414.124 410.619 414.834 410.827 414.493 412.319C414.24 413.425 411.247 418.622 409.567 421.32Z" fill="#211F54"/>
<path d="M445.142 409.675C444.201 407.597 443.405 405.458 442.76 403.272C441.971 401.135 441.325 398.948 440.827 396.726C442.562 400.937 444.003 405.264 445.142 409.675Z" fill="#211F54"/>
<g opacity="0.3">
<path opacity="0.3" d="M508.177 442.415C516.366 434.222 516.366 420.938 508.177 412.746C499.988 404.553 486.711 404.553 478.522 412.746C470.333 420.938 470.333 434.222 478.522 442.415C486.711 450.607 499.988 450.607 508.177 442.415Z" fill="black"/>
</g>
<path d="M511.298 444.423C519.487 436.231 519.487 422.947 511.298 414.754C503.109 406.562 489.831 406.562 481.642 414.754C473.453 422.947 473.453 436.231 481.642 444.423C489.831 452.616 503.109 452.616 511.298 444.423Z" fill="#5C2F21"/>
<path d="M496.554 447.118C493.085 447.118 489.695 446.089 486.811 444.161C483.927 442.233 481.679 439.492 480.352 436.287C479.025 433.08 478.679 429.552 479.356 426.149C480.033 422.745 481.704 419.619 484.158 417.166C486.611 414.713 489.737 413.043 493.139 412.367C496.541 411.691 500.067 412.04 503.271 413.369C506.475 414.698 509.213 416.948 511.139 419.834C513.065 422.72 514.092 426.113 514.09 429.584C514.083 434.233 512.233 438.691 508.945 441.978C505.658 445.265 501.202 447.114 496.554 447.118ZM496.554 412.948C493.264 412.948 490.047 413.924 487.311 415.753C484.576 417.582 482.443 420.181 481.184 423.223C479.924 426.264 479.595 429.611 480.237 432.84C480.879 436.069 482.464 439.034 484.79 441.362C487.117 443.69 490.081 445.275 493.309 445.918C496.536 446.559 499.881 446.23 502.921 444.97C505.961 443.711 508.56 441.577 510.387 438.84C512.216 436.103 513.191 432.884 513.191 429.592C513.189 425.178 511.436 420.945 508.316 417.823C505.197 414.7 500.967 412.944 496.554 412.939V412.948Z" fill="white"/>
<path d="M310.751 149.276C310.751 149.276 323.281 146.74 331.559 152.558C336.34 155.921 352.357 183.843 352.357 183.843L328.655 196.126L310.751 149.276Z" fill="#E0623B"/>
<path d="M330.148 195.352L334.157 210.639L308.649 237.742L314.374 250.916C314.374 250.916 349.149 229.028 353.832 222.087C358.515 215.145 355.53 204.723 354.38 200.91C353.23 197.097 349.383 185.407 349.383 185.407L330.148 195.352Z" fill="#FFBF9D"/>
<path d="M278.223 268.398C278.223 268.398 287.904 256.951 288.829 255.916C289.755 254.882 301.593 244.442 301.593 244.442L309.169 237.248L317.654 247.284L313.735 251.618C313.735 251.618 312.836 255.215 311.704 256.753C310.571 258.29 301.817 258.794 301.817 258.794L300.532 262.957L301.664 264.692L304.109 264.423C304.109 264.423 304.109 266.896 302.599 267.355C301.456 267.607 300.269 267.579 299.138 267.274C298.888 267.746 298.486 268.121 297.998 268.34C297.509 268.559 296.962 268.607 296.442 268.478C296.151 268.388 295.875 268.255 295.625 268.083C294.461 267.32 293.577 266.2 293.107 264.89L292.514 263.29L291.867 266.635L294.267 268.874C294.441 269.033 294.562 269.242 294.614 269.472C294.666 269.702 294.646 269.943 294.559 270.161C294.471 270.38 294.319 270.567 294.122 270.697C293.925 270.826 293.694 270.893 293.458 270.889H293.117C291.692 270.472 290.353 269.805 289.162 268.919C288.146 268.244 287.778 266.689 287.75 265.466L288.11 264.037C288.11 264.037 281.675 269.018 280.021 269.666C278.736 270.16 278.223 268.398 278.223 268.398Z" fill="#FFBF9D"/>
<path d="M346.83 212.438C344.76 211.731 342.642 211.172 340.494 210.766C338.319 210.515 336.129 210.423 333.941 210.487C334.556 210.268 335.203 210.15 335.855 210.136C337.426 210.01 339.007 210.064 340.565 210.298C342.121 210.534 343.644 210.951 345.105 211.539C345.721 211.75 346.303 212.054 346.83 212.438Z" fill="#FF9A6C"/>
<path d="M291.912 255.466C291.957 255.539 291.472 255.889 290.851 256.608C290.056 257.559 289.446 258.651 289.054 259.827C288.658 261.001 288.358 262.203 288.155 263.425C288.1 263.95 287.979 264.467 287.795 264.962C287.709 264.438 287.709 263.903 287.795 263.379C287.919 262.104 288.194 260.849 288.613 259.639C289.022 258.408 289.704 257.285 290.609 256.357C290.966 255.96 291.413 255.655 291.912 255.466Z" fill="#FF9A6C"/>
<path d="M296.29 255.071C296.29 255.142 295.849 255.439 295.22 256.059C294.404 256.875 293.762 257.848 293.333 258.919C292.317 261.455 292.434 263.757 292.29 263.739C292.142 263.262 292.1 262.759 292.164 262.264C292.197 261.055 292.444 259.862 292.892 258.74C293.344 257.608 294.066 256.604 294.996 255.817C295.357 255.463 295.803 255.206 296.29 255.071Z" fill="#FF9A6C"/>
<path d="M299.292 255.071C298.978 255.67 298.614 256.241 298.204 256.779C297.26 258.057 296.679 259.567 296.523 261.149C296.581 262.739 297.089 264.28 297.989 265.591C298.372 266.142 298.712 266.723 299.004 267.327C298.497 266.876 298.06 266.352 297.71 265.771C297.281 265.165 296.913 264.517 296.613 263.838C296.23 262.991 296.041 262.07 296.056 261.14C296.205 259.468 296.86 257.88 297.935 256.59C298.307 256.017 298.765 255.505 299.292 255.071Z" fill="#FF9A6C"/>
<path d="M352.358 183.843C352.218 183.951 352.067 184.045 351.908 184.122L350.569 184.868L345.572 187.566L328.764 196.36L328.53 196.486L328.44 196.234C328.162 195.478 327.874 194.669 327.541 193.86C324.773 186.307 322.265 179.473 320.432 174.455C319.533 172.027 318.76 170.04 318.22 168.601L317.619 167.009C317.531 166.829 317.468 166.639 317.429 166.443C317.54 166.609 317.63 166.787 317.7 166.973C317.87 167.324 318.104 167.872 318.391 168.529C318.976 169.887 319.775 171.874 320.737 174.338C322.661 179.266 325.231 186.118 327.982 193.698C328.279 194.516 328.566 195.317 328.88 196.072L328.548 195.946L345.419 187.287L350.488 184.742L351.863 184.076C352.015 183.975 352.182 183.896 352.358 183.843Z" fill="#263238"/>
<path d="M275.887 167.131C275.882 167.286 275.863 167.44 275.831 167.593L275.603 168.888C275.401 170.014 275.072 171.639 274.661 173.643C273.846 177.658 272.551 183.165 271.584 189.331C271.131 192.225 270.833 195.142 270.693 198.068C270.667 198.747 270.642 199.405 270.617 200.041C270.617 200.673 270.617 201.305 270.617 201.9C270.617 203.101 270.699 204.22 270.737 205.239C270.882 207.274 271.034 208.924 271.204 210.056C271.268 210.6 271.325 211.03 271.363 211.365C271.389 211.517 271.399 211.672 271.394 211.826C271.351 211.677 271.32 211.526 271.299 211.371C271.242 211.043 271.167 210.613 271.078 210.107C270.869 208.982 270.68 207.331 270.503 205.289C270.453 204.264 270.338 203.145 270.345 201.938C270.345 201.305 270.345 200.711 270.345 200.041C270.345 199.371 270.383 198.738 270.402 198.062C270.526 195.123 270.81 192.193 271.255 189.286C272.228 183.102 273.562 177.602 274.415 173.606C274.851 171.633 275.205 170.027 275.457 168.87C275.578 168.339 275.673 167.908 275.742 167.605C275.772 167.442 275.821 167.283 275.887 167.131Z" fill="#263238"/>
<path opacity="0.3" d="M274.002 175.662C267.347 186.21 266.022 196.983 266.381 209.451L271.355 211.827C270.505 200.675 271.748 186.001 274.002 175.662Z" fill="black"/>
<path d="M138.83 424.203C139.26 427.744 143.996 429.288 146.924 427.682C148.368 426.821 149.473 425.49 150.052 423.912C150.63 422.333 150.648 420.603 150.102 419.013C152.682 420.926 156.805 419.159 157.876 416.125C158.947 413.092 157.453 409.6 154.97 407.554C152.967 405.905 149.851 405.091 147.835 406.726C148.843 403.248 146.089 399.289 142.515 398.628C138.941 397.967 135.171 400.305 133.76 403.658C132.348 407.012 133.106 411.054 135.276 413.976C133.155 413.078 130.498 414.616 129.858 416.828C129.219 419.041 130.352 421.525 132.223 422.874C134.172 424.151 136.535 424.637 138.83 424.231" fill="#DCDDEB"/>
<defs>
<filter id="filter0_d_265_50" x="80.6672" y="240.856" width="348.459" height="169.324" filterUnits="userSpaceOnUse" color-interpolation-filters="sRGB">
<feFlood flood-opacity="0" result="BackgroundImageFix"/>
<feColorMatrix in="SourceAlpha" type="matrix" values="0 0 0 0 0 0 0 0 0 0 0 0 0 0 0 0 0 0 127 0" result="hardAlpha"/>
<feOffset dx="6.94971" dy="-5.55979"/>
<feComposite in2="hardAlpha" operator="out"/>
<feColorMatrix type="matrix" values="0 0 0 0 0.127552 0 0 0 0 0.123438 0 0 0 0 0.329167 0 0 0 0.06 0"/>
<feBlend mode="normal" in2="BackgroundImageFix" result="effect1_dropShadow_265_50"/>
<feBlend mode="normal" in="SourceGraphic" in2="effect1_dropShadow_265_50" result="shape"/>
</filter>
</defs>
</svg>
