<svg width="428" height="487" viewBox="0 0 428 487" fill="none" xmlns="http://www.w3.org/2000/svg">
<path opacity="0.7" d="M424.716 178.322C424.716 178.322 414.967 83.6763 345.259 25.2253C275.552 -33.2256 243.306 24.9473 208.273 49.2082C173.239 73.4691 154.253 40.0785 95.7609 24.3448C37.2687 8.61114 -13.3856 165.322 3.18474 287.797C19.7551 410.272 56.3036 453.881 136.222 481.71C216.141 509.54 263.406 417.687 319.944 434.393C376.483 451.1 443.72 357.382 424.716 178.322Z" fill="white"/>
<path d="M367.86 262.418V259.788H347.695V262.418H367.86Z" fill="#CBE2FF"/>
<path d="M368.737 349.216V283.46H352.955V349.216H368.737Z" fill="#8DBDF9"/>
<path d="M368.737 330.805V323.791H352.955V330.805H368.737Z" fill="#CBE2FF"/>
<path d="M368.737 299.242V296.612H352.955V299.242H368.737Z" fill="#CBE2FF"/>
<path d="M352.955 349.216V272.063H338.927V349.216H352.955Z" fill="#CBE2FF"/>
<path d="M350.325 308.886V279.953H342.434V308.886H350.325Z" fill="#F4F9FF"/>
<path d="M126.329 305.268L136.4 307.353L126.329 310.225C125.7 310.402 125.132 310.744 124.687 311.214C124.242 311.683 123.937 312.262 123.804 312.888L121.289 324.667L118.504 313.115C118.349 312.471 118.012 311.882 117.531 311.416C117.051 310.95 116.445 310.625 115.785 310.478L105.714 308.24L116.063 305.395C116.707 305.219 117.29 304.871 117.744 304.392C118.198 303.912 118.506 303.318 118.634 302.677L120.946 291.351L123.553 302.604C123.706 303.261 124.049 303.861 124.541 304.334C125.033 304.806 125.654 305.13 126.329 305.268Z" fill="#E4F0FF"/>
<path d="M80.0756 390.742L85.5483 391.832L80.0659 393.349C79.729 393.444 79.426 393.626 79.1901 393.872C78.9549 394.119 78.7951 394.422 78.7287 394.748L77.3534 400.944L75.8433 394.857C75.763 394.517 75.5804 394.206 75.3175 393.961C75.0553 393.716 74.7233 393.548 74.3622 393.476L68.8902 392.295L74.5164 390.796C74.8672 390.704 75.184 390.522 75.4317 390.27C75.6793 390.019 75.8488 389.707 75.9208 389.37L77.1708 383.409L78.5848 389.333C78.6664 389.677 78.8505 389.993 79.114 390.242C79.3783 390.491 79.711 390.664 80.0756 390.742Z" fill="#E4F0FF"/>
<path d="M153.692 294.827L156.565 295.482L153.692 296.418C153.512 296.471 153.348 296.577 153.221 296.724C153.094 296.872 153.006 297.054 152.97 297.251L152.247 300.995L151.455 297.354C151.408 297.151 151.311 296.967 151.172 296.822C151.034 296.676 150.86 296.575 150.671 296.53L147.798 295.828L150.758 294.892C150.941 294.835 151.105 294.726 151.234 294.576C151.363 294.426 151.451 294.241 151.489 294.04L152.151 290.474L152.891 294.012C152.941 294.215 153.043 294.397 153.184 294.541C153.326 294.685 153.502 294.784 153.692 294.827Z" fill="#E4F0FF"/>
<path d="M168.588 356.246L171.469 356.892L168.588 357.828C168.407 357.885 168.245 357.993 168.118 358.141C167.99 358.29 167.903 358.473 167.865 358.671L167.151 362.367L166.359 358.736C166.311 358.534 166.214 358.349 166.075 358.201C165.937 358.055 165.764 357.951 165.575 357.903L162.702 357.201L165.662 356.265C165.846 356.21 166.011 356.101 166.14 355.95C166.269 355.8 166.357 355.614 166.393 355.413L167.055 351.847L167.796 355.385C167.836 355.595 167.933 355.789 168.073 355.941C168.214 356.094 168.392 356.2 168.588 356.246Z" fill="#E4F0FF"/>
<path d="M94.3543 376.542L96.9466 377.086L94.3543 377.849C94.1953 377.898 94.0513 377.989 93.9376 378.111C93.8238 378.233 93.7443 378.383 93.7066 378.546L93.0396 381.656L92.3247 378.603C92.2829 378.434 92.1966 378.281 92.0739 378.158C91.9512 378.035 91.7976 377.948 91.629 377.907L89.0559 377.344L91.7147 376.59C91.8806 376.542 92.0293 376.45 92.1472 376.324C92.2644 376.198 92.346 376.043 92.3823 375.875L92.9732 372.888L93.6401 375.856C93.6846 376.025 93.7751 376.178 93.9012 376.299C94.0274 376.42 94.1843 376.505 94.3543 376.542Z" fill="#E4F0FF"/>
<path d="M260.348 405.123L262.652 405.612L260.348 406.289C260.205 406.334 260.076 406.417 259.975 406.528C259.874 406.64 259.804 406.777 259.771 406.924L259.196 409.712L258.56 406.976C258.523 406.824 258.446 406.686 258.337 406.576C258.228 406.466 258.092 406.387 257.942 406.35L255.638 405.818L258.001 405.149C258.147 405.105 258.278 405.021 258.381 404.908C258.483 404.795 258.554 404.656 258.586 404.506L259.12 401.821L259.712 404.489C259.75 404.644 259.828 404.785 259.941 404.898C260.053 405.01 260.194 405.088 260.348 405.123Z" fill="#E0E0E0"/>
<path d="M194.303 231.891L196.895 232.443L194.303 233.195C194.142 233.245 193.997 233.336 193.883 233.46C193.77 233.583 193.691 233.735 193.654 233.899L193.007 236.993L192.292 233.957C192.25 233.788 192.163 233.635 192.041 233.512C191.918 233.39 191.765 233.303 191.596 233.261L189.004 232.671L191.663 231.919C191.828 231.872 191.978 231.78 192.095 231.654C192.212 231.528 192.294 231.373 192.33 231.205L192.921 228.225L193.588 231.186C193.63 231.358 193.719 231.515 193.845 231.64C193.971 231.764 194.129 231.851 194.303 231.891Z" fill="#E4F0FF"/>
<path d="M298.055 103.886L300.351 104.438L298.055 105.19C297.913 105.24 297.784 105.331 297.683 105.455C297.581 105.579 297.511 105.73 297.479 105.894L296.903 108.988L296.268 105.952C296.23 105.782 296.152 105.628 296.041 105.505C295.931 105.383 295.792 105.297 295.641 105.257L293.337 104.666L295.709 103.914C295.854 103.865 295.985 103.773 296.088 103.647C296.191 103.522 296.261 103.367 296.293 103.2L296.818 100.221L297.42 103.181C297.457 103.354 297.536 103.511 297.648 103.635C297.76 103.76 297.902 103.846 298.055 103.886Z" fill="#E4F0FF"/>
<path d="M194.35 367.066L199.525 368.166L194.35 369.671C194.027 369.769 193.736 369.95 193.507 370.199C193.278 370.447 193.121 370.753 193.051 371.082L191.753 377.272L190.322 371.195C190.241 370.857 190.068 370.549 189.822 370.303C189.577 370.057 189.267 369.884 188.93 369.803L183.744 368.627L189.07 367.122C189.4 367.029 189.698 366.847 189.932 366.596C190.166 366.346 190.327 366.037 190.398 365.701L191.583 359.737L192.92 365.664C193.002 366.008 193.18 366.322 193.433 366.57C193.686 366.818 194.003 366.99 194.35 367.066Z" fill="#E0E0E0"/>
<path d="M204.867 257.111L210.046 258.147L204.867 259.585C204.545 259.677 204.255 259.849 204.026 260.082C203.798 260.316 203.64 260.604 203.568 260.916L202.278 266.802L200.847 261.023C200.764 260.703 200.589 260.411 200.341 260.178C200.093 259.947 199.783 259.784 199.444 259.71L194.265 258.594L199.594 257.165C199.924 257.074 200.221 256.899 200.453 256.66C200.685 256.42 200.845 256.125 200.913 255.807L202.1 250.144L203.436 255.771C203.517 256.1 203.694 256.401 203.948 256.637C204.201 256.875 204.52 257.039 204.867 257.111Z" fill="#E4F0FF"/>
<path d="M275.309 72.9897L280.186 74.0264L275.309 75.4652C275.003 75.5561 274.727 75.7287 274.51 75.9647C274.293 76.2006 274.143 76.4911 274.077 76.8057L272.862 82.6861L271.479 76.904C271.401 76.5834 271.236 76.2909 271.003 76.059C270.769 75.8272 270.477 75.6649 270.158 75.5903L265.281 74.4732L270.3 73.0433C270.608 72.9529 270.887 72.7797 271.106 72.542C271.325 72.3043 271.475 72.0111 271.541 71.6938L272.658 66.028L273.926 71.6491C274.005 71.9828 274.177 72.2866 274.422 72.5243C274.668 72.762 274.976 72.9235 275.309 72.9897Z" fill="#E4F0FF"/>
<path d="M157.442 52H75.9047V137.044H157.442V52Z" fill="#FFC6B5"/>
<path d="M152.182 52H70.6446V137.044H152.182V52Z" fill="#FFFAF9"/>
<path d="M152.182 137.044H70.6446V52H152.182V137.044ZM70.691 136.998H152.135V52.0645H70.691V136.998Z" fill="#FFC6B5"/>
<path d="M140.784 63.3975H82.0419V125.646H140.784V63.3975Z" fill="white"/>
<path d="M82.0423 125.646C81.5952 126.256 81.0774 126.818 80.4984 127.321C79.5335 128.308 78.1049 129.648 76.5319 131.097C74.9589 132.546 73.5206 133.813 72.4495 134.764C71.9129 135.3 71.3062 135.772 70.6446 136.167C71.0917 135.557 71.6061 134.993 72.1794 134.483C73.1444 133.496 74.582 132.165 76.1557 130.708C77.7287 129.25 79.176 127.991 80.2479 127.041C80.7824 126.508 81.3849 126.04 82.0423 125.646Z" fill="#E0623B"/>
<path d="M140.784 125.646C141.403 126.054 141.969 126.533 142.472 127.073C143.462 127.965 144.805 129.284 146.258 130.737C147.71 132.191 148.981 133.52 149.888 134.5C150.426 135 150.901 135.559 151.305 136.167C150.687 135.768 150.123 135.295 149.625 134.759C148.636 133.867 147.293 132.538 145.84 131.085C144.388 129.632 143.117 128.286 142.155 127.305C141.634 126.806 141.174 126.25 140.784 125.646Z" fill="#E0623B"/>
<path d="M140.784 63.3976C141.19 62.7804 141.666 62.2137 142.202 61.7092C143.093 60.7197 144.421 59.3853 145.875 57.9238C147.328 56.4624 148.657 55.2006 149.638 54.2928C150.132 53.7507 150.692 53.2748 151.305 52.8767C150.899 53.4831 150.42 54.0351 149.878 54.5197C148.987 55.5092 147.658 56.8527 146.205 58.3142C144.752 59.7757 143.414 61.0375 142.433 61.9906C141.939 62.5238 141.386 62.996 140.784 63.3976Z" fill="#E0623B"/>
<path d="M81.1656 63.3976C80.548 62.9915 79.9808 62.5157 79.4757 61.98C78.4857 61.0884 77.15 59.7599 75.696 58.3066C74.2426 56.8533 72.971 55.5248 72.062 54.544C71.5288 54.0409 71.0537 53.4818 70.6446 52.8767C71.2641 53.2775 71.8287 53.7539 72.3254 54.2944C73.316 55.186 74.6609 56.5145 76.1234 57.9678C77.5858 59.4211 78.849 60.7585 79.7573 61.7393C80.2919 62.2358 80.7643 62.7925 81.1656 63.3976Z" fill="#E0623B"/>
<path d="M140.554 125.454C140.548 125.353 140.548 125.252 140.554 125.152C140.554 124.941 140.554 124.657 140.554 124.29C140.554 123.512 140.554 122.403 140.554 120.956C140.554 118.025 140.554 113.775 140.49 108.371C140.49 97.5535 140.426 82.1379 140.38 63.6906L140.61 63.9195H81.4862L81.7426 63.6631C81.7426 86.3331 81.7426 107.538 81.7426 125.426L81.5225 125.197L124.332 125.316L136.357 125.371H139.537H140.353H140.646H140.38H139.583H136.449L124.47 125.435L81.4308 125.646H81.1652V125.426C81.1652 107.538 81.1652 86.3331 81.1652 63.6631V63.3975H81.4308H140.554H140.784V63.6264C140.728 82.1379 140.692 97.5993 140.664 108.453C140.664 113.83 140.664 118.071 140.601 120.984C140.601 122.412 140.601 123.512 140.601 124.272C140.601 124.629 140.601 124.913 140.601 125.115C140.601 125.316 140.554 125.454 140.554 125.454Z" fill="#E0623B"/>
<path d="M121.495 84.4396H101.33V104.605H121.495V84.4396Z" fill="#FF630B"/>
<path d="M157.442 158.086H75.9047V243.13H157.442V158.086Z" fill="#FFC6B5"/>
<path d="M152.182 158.086H70.6446V243.13H152.182V158.086Z" fill="#FFFAF9"/>
<path d="M152.182 243.13H70.6446V158.086H152.182V243.13ZM70.6903 243.075H152.126V158.132H70.6903V243.075Z" fill="#FFC6B5"/>
<path d="M140.784 169.484H81.1652V231.733H140.784V169.484Z" fill="white"/>
<path d="M81.1656 231.732C80.7548 232.348 80.2762 232.915 79.7405 233.421C78.8491 234.41 77.5311 235.745 76.0791 237.206C74.6264 238.667 73.2994 239.929 72.3106 240.838C71.8102 241.373 71.2508 241.848 70.6446 242.253C71.0573 241.653 71.5353 241.101 72.0697 240.611C72.961 239.621 74.2881 238.278 75.7401 236.816C77.1921 235.354 78.5287 234.092 79.5175 233.139C80.0109 232.606 80.5639 232.133 81.1656 231.732Z" fill="#E0623B"/>
<path d="M140.784 231.732C141.403 232.135 141.97 232.611 142.472 233.15C143.461 234.041 144.805 235.37 146.257 236.815C147.71 238.259 148.981 239.605 149.888 240.586C150.43 241.081 150.906 241.64 151.305 242.253C150.691 241.846 150.127 241.37 149.625 240.835C148.636 239.944 147.292 238.616 145.839 237.162C144.387 235.709 143.117 234.371 142.154 233.391C141.636 232.89 141.176 232.334 140.784 231.732Z" fill="#E0623B"/>
<path d="M140.784 169.484C141.192 168.872 141.667 168.31 142.202 167.809C143.093 166.822 144.422 165.482 145.875 164.033C147.328 162.585 148.656 161.317 149.637 160.366C150.136 159.832 150.695 159.361 151.305 158.963C150.899 159.574 150.423 160.133 149.887 160.629C148.995 161.615 147.667 162.956 146.213 164.413C144.76 165.871 143.423 167.129 142.442 168.08C141.949 168.616 141.392 169.088 140.784 169.484Z" fill="#E0623B"/>
<path d="M81.1656 169.484C80.5483 169.071 79.9807 168.591 79.4727 168.053C78.481 167.159 77.143 165.836 75.6871 164.379C74.2306 162.923 72.975 161.59 72.0645 160.634C71.5277 160.132 71.0518 159.571 70.6446 158.963C71.2593 159.371 71.8242 159.848 72.3283 160.384C73.3207 161.277 74.6679 162.609 76.1329 164.067C77.5979 165.524 78.8633 166.864 79.7732 167.856C80.3028 168.341 80.7708 168.888 81.1656 169.484Z" fill="#E0623B"/>
<path d="M140.527 231.641C140.519 231.543 140.519 231.445 140.527 231.347C140.527 231.136 140.527 230.851 140.527 230.475C140.527 229.704 140.527 228.584 140.527 227.133C140.527 224.205 140.527 219.936 140.463 214.521C140.463 203.679 140.398 188.238 140.353 169.741L140.582 169.971H81.4132L81.6698 169.704C81.6698 192.424 81.6698 213.685 81.6698 231.604L81.4495 231.384L124.293 231.494L136.326 231.558H139.509H140.619C140.53 231.567 140.441 231.567 140.353 231.558H139.555H136.418L124.43 231.613L81.4495 231.733H81.1652V231.641C81.1652 213.721 81.1652 192.461 81.1652 169.741V169.484H81.431H140.6H140.784V169.713C140.729 188.266 140.692 203.762 140.664 214.64C140.664 220.037 140.619 224.288 140.6 227.207C140.6 228.639 140.6 229.741 140.6 230.502C140.6 230.86 140.6 231.136 140.6 231.338C140.582 231.44 140.557 231.541 140.527 231.641Z" fill="#E0623B"/>
<path d="M121.495 190.526H101.33V210.691H121.495V190.526Z" fill="#FF630B"/>
<path d="M208.322 337.819L195.142 361.268L213.555 379.903L232.842 358.861L208.322 337.819Z" fill="#FFBE9D"/>
<path d="M93.4959 411.698L118.534 411.116C118.534 411.116 131.642 403.319 132.674 402.736C133.706 402.154 139.671 400.944 139.671 400.944L179.361 413.141V416.725H86.4257V414.01L90.7009 413.571L93.4959 411.698Z" fill="#FF9A6C"/>
<path d="M196.14 357.984C195.385 357.865 174.154 390.885 174.154 390.885L148.788 395.525L120.67 411.144C120.67 411.144 120.035 414.314 123.211 414.525C126.388 414.736 143.467 407.175 143.467 407.175C143.467 407.175 137.62 410.014 138.734 413.671C140.042 417.962 151.071 414.589 151.071 414.589L174.632 413.065C175.714 412.994 176.769 412.698 177.729 412.194C178.689 411.691 179.531 410.992 180.202 410.143L183.204 406.357L216.184 380.2C216.184 380.2 213.265 360.511 196.14 357.984Z" fill="#211F54"/>
<path d="M158.319 402.701C158.165 402.913 157.979 403.102 157.767 403.262C157.222 403.728 156.645 404.157 156.039 404.548C155.136 405.135 154.169 405.624 153.153 406.006C151.897 406.456 150.575 406.715 149.235 406.774C147.927 406.802 146.622 406.9 145.326 407.067C144.3 407.305 143.313 407.677 142.394 408.172C140.793 409.035 139.97 409.769 139.916 409.708C139.861 409.648 140.069 409.475 140.458 409.138C141.008 408.676 141.598 408.261 142.223 407.896C143.157 407.343 144.172 406.927 145.236 406.662C146.547 406.466 147.871 406.354 149.198 406.325C151.567 406.208 153.862 405.502 155.858 404.281C157.405 403.357 158.265 402.641 158.319 402.701Z" fill="white"/>
<path d="M177.604 398.314C177.47 398.314 177.145 396.646 176.063 394.744C175.337 393.629 174.681 392.478 174.1 391.3C175.107 392.262 175.923 393.364 176.513 394.561C177.265 395.701 177.643 396.999 177.604 398.314Z" fill="white"/>
<path d="M183.744 400.944C183.213 400.669 182.726 400.297 182.301 399.842C180.137 397.798 178.418 395.218 177.277 392.301C177.005 391.714 176.82 391.079 176.73 390.423C177.641 392.378 178.654 394.268 179.763 396.086C181.001 397.796 182.331 399.419 183.744 400.944Z" fill="white"/>
<path d="M191.88 393.93C191.793 393.658 191.748 393.375 191.746 393.09C191.746 392.548 191.649 391.763 191.639 390.792C191.603 388.257 191.781 385.724 192.17 383.218C192.564 380.707 193.161 378.231 193.955 375.811C194.264 374.877 194.543 374.149 194.766 373.645C194.85 373.375 194.977 373.12 195.142 372.888C194.919 373.911 194.639 374.921 194.303 375.914C192.899 380.762 192.125 385.76 191.996 390.792C192.015 391.839 191.977 392.886 191.88 393.93Z" fill="white"/>
<g opacity="0.3">
<path opacity="0.3" d="M193.989 376.197C192.188 381.25 191.46 386.623 191.849 391.974C193.589 386.907 194.316 381.546 193.989 376.197Z" fill="#133578"/>
</g>
<path d="M301.228 428.981L303.863 407.823L403.73 351.847C403.73 351.847 418.371 375.707 423.972 429L353.801 428.668L301.228 428.981Z" fill="#211F54"/>
<path d="M247.723 222.474L234.952 236.708L232.842 265.047L257.411 315.537L285.585 374.973C287.906 380.076 290.245 391.837 288.594 398.521C288.594 398.521 284.007 414.705 307.291 415.781C319.988 416.37 334.593 413.022 345.244 409.832L345.52 409.749C363.734 404.349 379.11 392.005 388.345 375.369L404.684 352.758C401.069 338.662 395.51 342.506 393.317 337.182C382.748 311.611 374.051 293.138 374.051 293.138L339.043 212.295C333.804 200.424 327.199 196.075 319.502 194.172C313.795 192.799 307.842 192.817 302.144 194.227L284.942 198.374L247.723 222.474Z" fill="#E0623B"/>
<path d="M234.306 369.381C241.44 361.092 253.007 303.942 253.007 303.942L235.136 236.993C235.136 236.993 226.871 246.489 224.307 255.57L209.328 335.58C209.328 335.58 203.855 336.731 203.91 345.214C203.918 350.924 234.306 369.381 234.306 369.381Z" fill="#E0623B"/>
<path d="M266.158 334.312C266.029 334.13 265.917 333.938 265.821 333.736L264.913 332.047L261.743 325.782C259.09 320.427 255.457 313.122 251.451 305.048L241.313 284.248L238.279 277.918C237.943 277.203 237.679 276.628 237.48 276.191C237.372 275.994 237.287 275.786 237.225 275.57C237.355 275.75 237.467 275.942 237.561 276.145L238.47 277.834L241.64 284.099C244.292 289.445 247.926 296.759 251.932 304.843L262.106 325.643L265.141 331.973C265.467 332.687 265.731 333.263 265.94 333.699C266.035 333.894 266.108 334.1 266.158 334.312Z" fill="#133578"/>
<path d="M393.286 343.079C393.238 343.341 393.168 343.598 393.075 343.848L392.38 346.027L391.867 347.603C391.666 348.179 391.419 348.784 391.162 349.434C390.641 350.753 390.11 352.273 389.332 353.875C388.966 354.69 388.582 355.541 388.188 356.43C387.795 357.318 387.273 358.197 386.824 359.131C385.909 361.017 384.756 362.931 383.576 364.973C378.296 373.738 371.7 381.638 364.019 388.397C362.189 389.917 360.532 391.4 358.848 392.636C358.007 393.259 357.228 393.9 356.433 394.468C355.636 395.036 354.859 395.539 354.126 396.052C352.681 397.087 351.281 397.884 350.081 398.635C349.478 399.001 348.919 399.349 348.397 399.651L346.934 400.402L344.911 401.473C344.677 401.603 344.435 401.72 344.188 401.821C344.4 401.658 344.627 401.514 344.865 401.391L346.842 400.237L348.269 399.422C348.791 399.111 349.34 398.745 349.935 398.369C351.115 397.6 352.498 396.785 353.925 395.732L356.204 394.13C356.991 393.57 357.769 392.93 358.592 392.298C360.267 391.053 361.933 389.551 363.717 388.049C371.333 381.288 377.896 373.427 383.192 364.726C384.372 362.702 385.534 360.798 386.458 358.929C386.934 358.014 387.429 357.098 387.841 356.246L389.021 353.719C389.799 352.126 390.357 350.624 390.897 349.324C391.162 348.665 391.419 348.06 391.638 347.493L392.188 345.936L392.965 343.784C393.055 343.542 393.163 343.306 393.286 343.079Z" fill="#133578"/>
<g opacity="0.3">
<path opacity="0.3" d="M328.51 339.85C336.003 339.712 346.581 338.462 353.78 336.366C360.979 334.27 367.866 330.656 373.017 325.231C378.168 319.807 381.502 312.359 381.281 304.902C377.048 314.106 368.784 322.492 359.391 327.254C356.259 328.845 350.613 331.622 349.969 330.794L328.51 339.85Z" fill="#133578"/>
</g>
<path d="M295.968 328.145C297.272 326.703 329.312 302.749 329.312 302.749L355.586 330.559L311.414 349.216L295.968 328.145Z" fill="#FFBE9D"/>
<path d="M349.2 333.435C355.107 331.056 360.812 328.539 364.683 325.566C383.029 311.447 384.24 298.71 381.854 289.395C379.24 279.147 337.514 207.044 332.909 202.405C328.304 197.766 313.756 190.336 299.217 206.889C290.778 216.505 307.556 243.608 307.556 243.608L337.367 295.654C328.974 294.236 325.14 302.828 325.14 302.828L349.2 333.435Z" fill="#E0623B"/>
<path d="M325.9 305.379C325.867 305.278 325.846 305.174 325.834 305.068C325.617 303.574 325.798 302.05 326.357 300.643C327.174 298.925 328.639 297.585 330.445 296.904C332.751 296.01 335.232 295.633 337.705 295.798L337.519 296.09C334.42 290.816 330.725 284.489 326.739 277.696L312.955 253.927L308.821 246.695C308.364 245.863 307.999 245.205 307.719 244.711C307.588 244.483 307.469 244.248 307.365 244.007C307.532 244.213 307.679 244.432 307.803 244.665C308.102 245.14 308.494 245.79 308.989 246.604L313.254 253.762C316.837 259.859 321.737 268.234 327.169 277.477L337.864 295.917L338.051 296.228H337.678C335.263 296.053 332.839 296.4 330.575 297.242C328.827 297.871 327.393 299.135 326.571 300.772C326.092 301.843 325.853 303.003 325.871 304.173C325.871 304.986 325.928 305.379 325.9 305.379Z" fill="#133578"/>
<path d="M380.476 286.091C380.586 286.282 380.678 286.483 380.75 286.691C380.905 287.089 381.188 287.671 381.436 288.456C382.181 290.667 382.618 292.972 382.733 295.304C382.813 296.918 382.743 298.537 382.523 300.137C382.247 301.97 381.807 303.774 381.207 305.525C380.517 307.443 379.667 309.298 378.666 311.07C377.583 312.964 376.361 314.774 375.011 316.485C370.133 322.415 364.114 327.28 357.318 330.781C355.278 331.857 353.165 332.783 350.994 333.554C350.226 333.849 349.614 334.016 349.212 334.146C349.004 334.221 348.79 334.277 348.572 334.312C348.766 334.209 348.968 334.122 349.176 334.053C349.577 333.896 350.181 333.701 350.93 333.378C353.062 332.534 355.143 331.566 357.163 330.477C363.857 326.907 369.796 322.047 374.645 316.171C375.991 314.482 377.212 312.697 378.301 310.829C379.29 309.075 380.137 307.242 380.832 305.349C381.434 303.626 381.881 301.85 382.167 300.045C382.403 298.474 382.492 296.883 382.431 295.295C382.349 292.984 381.968 290.695 381.298 288.484C381.079 287.698 380.823 287.107 380.705 286.691C380.604 286.501 380.528 286.3 380.476 286.091Z" fill="#133578"/>
<g opacity="0.3">
<path opacity="0.3" d="M337.096 295.865C340.418 296.24 343.624 297.308 346.509 298.999C349.394 300.69 351.893 302.967 353.845 305.684C354.335 306.298 354.68 307.015 354.856 307.78C354.932 308.166 354.898 308.565 354.756 308.931C354.615 309.297 354.372 309.615 354.056 309.849C353.732 310.015 353.37 310.094 353.007 310.078C352.643 310.061 352.29 309.951 351.981 309.757C351.375 309.357 350.835 308.864 350.384 308.295C346.169 303.514 342.588 299.46 337.326 295.865" fill="#133578"/>
</g>
<path d="M352.955 314.146C352.883 314.146 352.279 312.929 351.152 310.981C349.731 308.442 348.092 306.041 346.255 303.807C344.393 301.602 342.307 299.61 340.034 297.87C338.293 296.531 337.13 295.809 337.175 295.735C337.475 295.846 337.762 295.99 338.032 296.165C338.573 296.465 339.321 296.952 340.232 297.589C342.588 299.269 344.729 301.252 346.607 303.489C348.474 305.737 350.095 308.193 351.44 310.812C351.955 311.815 352.342 312.639 352.577 313.219C352.74 313.511 352.867 313.822 352.955 314.146Z" fill="#133578"/>
<path d="M320.516 194.04C318.033 194.134 315.574 194.56 313.202 195.307C310.645 196.155 308.247 197.431 306.111 199.082C303.471 201.07 301.309 203.63 299.785 206.573C298.261 209.515 297.414 212.766 297.307 216.082C297.174 218.788 297.503 221.495 298.279 224.089C299.022 226.478 300.084 228.754 301.435 230.856C301.435 230.856 301.306 230.725 301.102 230.455C300.797 230.057 300.512 229.643 300.251 229.216C299.27 227.649 298.498 225.96 297.955 224.192C297.124 221.567 296.755 218.817 296.862 216.064C296.95 212.675 297.804 209.352 299.36 206.346C300.917 203.34 303.133 200.732 305.842 198.719C308.03 197.064 310.486 195.803 313.101 194.991C314.855 194.446 316.672 194.132 318.507 194.059C319.156 194.003 319.655 194.059 319.998 194.059C320.169 194.032 320.343 194.026 320.516 194.04Z" fill="#133578"/>
<path d="M243.621 351.752L242.49 349.508L239.937 348.34C239.937 348.34 228.994 350.115 226.332 354.705C223.669 359.295 213.128 375.677 213.566 378.943C214.004 382.208 216.775 383.956 218.636 383.257C220.496 382.558 223.934 378.004 223.934 378.004L225.402 377.811L242.727 381.831L244.787 378.244L228.648 372.246L237.429 371.373L245.116 363.093L243.621 351.752Z" fill="#05C168"/>
<path d="M260.541 379.65C260.029 381.166 259.892 382.786 260.143 384.367C260.395 385.949 261.026 387.444 261.983 388.722C264.831 392.508 269.075 398.449 273.072 403.735C276.194 407.853 297.204 418.758 308.557 424.46C310.686 425.533 313.13 425.781 315.427 425.154C317.724 424.527 319.713 423.071 321.015 421.061C325.054 414.857 328.265 408.143 330.562 401.092C331.292 398.824 331.177 396.366 330.24 394.176C329.303 391.988 327.606 390.218 325.469 389.201L276.595 365.935C275.36 365.347 274.016 365.028 272.65 365C271.284 364.971 269.928 365.235 268.67 365.772C267.413 366.309 266.281 367.108 265.351 368.117C264.42 369.127 263.711 370.323 263.27 371.627L260.541 379.65Z" fill="white"/>
<path d="M260.587 379.717C260.587 379.717 260.587 379.542 260.724 379.222L261.187 377.784C261.606 376.511 262.224 374.662 263.007 372.291C263.395 370.934 264.051 369.67 264.934 368.573C266.001 367.268 267.387 366.264 268.954 365.661C270.757 364.961 272.725 364.811 274.611 365.23C275.626 365.496 276.608 365.874 277.54 366.357L280.496 367.749L308.88 381.181L325.642 389.139C327.14 389.907 328.419 391.046 329.358 392.449C330.297 393.852 330.865 395.474 331.008 397.16C331.132 398.876 330.858 400.597 330.208 402.187C329.653 403.799 329.062 405.401 328.389 406.985C327.092 410.123 325.614 413.18 323.959 416.142C323.141 417.601 322.286 419.023 321.395 420.409C320.96 421.12 320.46 421.787 319.904 422.405C318.493 423.891 316.663 424.902 314.66 425.302C312.659 425.702 310.583 425.471 308.717 424.639C305.916 423.284 303.26 421.892 300.614 420.537C295.357 417.79 290.4 415.162 285.834 412.552C283.543 411.253 281.351 409.961 279.295 408.643C277.273 407.436 275.366 406.041 273.602 404.476C272.864 403.662 272.181 402.799 271.556 401.894C270.928 401.033 270.31 400.191 269.737 399.385C268.545 397.756 267.408 396.217 266.353 394.807C265.298 393.397 264.325 392.06 263.416 390.805C262.549 389.71 261.762 388.553 261.06 387.344C260.181 385.598 259.848 383.625 260.105 381.685C260.175 381.012 260.34 380.351 260.597 379.726C260.597 379.726 260.597 379.89 260.469 380.22C260.343 380.705 260.253 381.197 260.196 381.695C259.983 383.612 260.34 385.55 261.224 387.262C261.933 388.453 262.727 389.592 263.598 390.668L266.572 394.642L269.973 399.22L271.838 401.72C272.454 402.615 273.132 403.465 273.866 404.266C275.619 405.803 277.509 407.173 279.514 408.358C281.569 409.659 283.76 410.941 286.053 412.232C290.6 414.824 295.584 417.46 300.831 420.171C303.46 421.508 306.161 422.918 308.926 424.255C310.34 424.883 311.886 425.153 313.427 425.039C314.968 424.926 316.458 424.433 317.766 423.605C318.432 423.182 319.042 422.677 319.585 422.103C320.121 421.508 320.602 420.864 321.022 420.18C321.931 418.798 322.75 417.433 323.56 415.931C325.208 412.988 326.68 409.949 327.971 406.83C328.626 405.255 329.207 403.661 329.789 402.059C330.427 400.533 330.695 398.876 330.572 397.224C330.438 395.619 329.898 394.075 329.005 392.739C328.112 391.402 326.895 390.318 325.469 389.588L308.735 381.603L280.386 368.078L277.44 366.668C276.531 366.193 275.573 365.819 274.584 365.551C272.766 365.144 270.87 365.281 269.128 365.945C267.596 366.52 266.239 367.485 265.189 368.747C264.311 369.826 263.655 371.072 263.261 372.41C262.443 374.772 261.797 376.604 261.361 377.903C261.142 378.508 260.979 378.984 260.851 379.323C260.724 379.661 260.587 379.717 260.587 379.717Z" fill="#133578"/>
<path d="M240.825 359.753C240.825 359.753 241.953 351.636 244.714 350.817C247.475 349.998 264.663 344.825 264.663 344.825L311.771 312.393L330.161 347.797L287.052 365.284C287.052 365.284 285.364 367.502 283.484 366.646C283.484 366.646 280.632 370.124 279.118 370.327C277.605 370.53 278.146 371.349 278.146 371.349C278.146 371.349 265.516 392.516 262.48 392.93C259.444 393.344 255.62 392.774 255.73 390.307C255.73 390.307 250.043 392.378 248.208 390.188C248.208 390.188 243.797 393.556 240.926 389.948C240.175 388.644 239.492 387.302 238.881 385.926C238.881 385.926 235.065 390.666 231.617 389.019C228.333 387.445 229.067 382.347 230.864 379.226C232.662 376.107 240.825 359.753 240.825 359.753Z" fill="#211F54"/>
<path d="M223.197 379.026C223.12 379.026 222.841 378.602 222.234 377.961C220.673 376.306 218.435 375.231 215.981 374.96C215.46 374.95 214.942 374.906 214.43 374.827C214.934 374.665 215.476 374.608 216.01 374.661C217.302 374.71 218.564 375.018 219.694 375.561C220.824 376.103 221.793 376.865 222.523 377.787C222.858 378.148 223.089 378.572 223.197 379.026Z" fill="#133578"/>
<path d="M238.102 365.874C237.372 366.53 236.587 367.128 235.758 367.663C234.288 368.728 232.242 370.168 230.111 371.913C228.283 373.395 226.593 375.026 225.059 376.788C223.896 378.148 223.281 379.06 223.198 379.024C223.279 378.775 223.402 378.54 223.561 378.327C223.933 377.722 224.343 377.14 224.789 376.583C226.259 374.74 227.934 373.057 229.785 371.564C231.626 370.072 233.552 368.68 235.553 367.395C236.356 366.819 237.209 366.31 238.102 365.874Z" fill="#133578"/>
<path d="M278.433 402.847L292.187 376.395L317.009 387.851L300.82 416.726L278.433 402.847Z" fill="#E0623B"/>
<path d="M262.652 379.904C262.498 380.509 262.262 381.09 261.949 381.63C261.279 382.976 260.528 384.28 259.698 385.532C258.863 386.784 257.95 387.979 256.964 389.113C256.592 389.615 256.146 390.057 255.642 390.423C255.533 390.33 257.365 388.172 259.288 385.265C261.211 382.359 262.515 379.839 262.652 379.904Z" fill="white"/>
<path d="M253.007 380.78C252.602 382.582 251.914 384.312 250.965 385.908C250.137 387.565 249.054 389.088 247.753 390.423C247.635 390.335 249.096 388.339 250.548 385.686C252 383.033 252.87 380.735 253.007 380.78Z" fill="white"/>
<path d="M243.363 379.028C242.92 380.338 242.318 381.594 241.572 382.768C240.955 384.022 240.073 385.136 238.984 386.04C238.894 385.953 240.058 384.53 241.169 382.568C242.279 380.607 243.229 378.958 243.363 379.028Z" fill="white"/>
<path d="M277.556 364.99C277.556 365.103 272.589 364.023 266.533 362.573C260.477 361.122 255.638 359.849 255.638 359.744C255.638 359.64 260.604 360.711 266.661 362.162C272.717 363.612 277.593 364.877 277.556 364.99Z" fill="white"/>
<path d="M274.925 360.614C274.353 360.565 273.791 360.421 273.26 360.187C271.945 359.74 270.659 359.201 269.41 358.572C268.159 357.95 266.945 357.243 265.777 356.456C265.271 356.167 264.809 355.797 264.405 355.361C264.474 355.24 266.701 356.697 269.583 358.145C272.466 359.593 274.96 360.428 274.925 360.614Z" fill="white"/>
<g opacity="0.3">
<path opacity="0.3" d="M283.526 364.216C283.315 363.811 283.177 363.398 282.975 362.984C280.807 358.574 277.723 354.677 273.931 351.555C273.581 351.27 273.113 350.976 272.719 351.197C272.572 351.293 272.463 351.437 272.408 351.604C272.353 351.77 272.356 351.951 272.416 352.116C272.528 352.442 272.713 352.738 272.957 352.98C276.382 357.008 279.137 360.86 282.562 364.887C282.819 365.227 283.756 364.676 283.526 364.216Z" fill="#133578"/>
</g>
<path d="M202.156 399.191C202.607 398.42 203.123 397.694 203.698 397.02C204.692 395.722 206.094 393.949 207.674 392.012C209.253 390.074 210.692 388.34 211.751 387.1C212.29 386.395 212.893 385.745 213.553 385.163C213.107 385.935 212.591 386.662 212.011 387.333C211.018 388.631 209.615 390.404 208.045 392.341C206.475 394.278 205.026 396.013 203.958 397.243C203.415 397.947 202.811 398.599 202.156 399.191Z" fill="#133578"/>
<path d="M205.668 412.341C205.547 412.341 207.606 406.781 210.265 399.979C212.924 393.178 215.18 387.738 215.302 387.793C215.423 387.849 213.373 393.353 210.714 400.155C208.056 406.957 205.799 412.397 205.668 412.341Z" fill="#133578"/>
<path d="M188.482 166.135C188.482 161.461 189.967 159.881 188.876 159.008C184.971 155.877 181.488 147.648 181.167 143.992C180.425 135.396 187.676 127.836 187.676 127.836C189.023 123.245 190.884 117.155 196.329 112.93C202.231 108.338 211.48 102.883 218.878 103.838C226.275 104.793 231.619 105.252 236.349 111.029L226.018 202.8C220.28 202.625 215.174 198.997 211.279 194.764C207.383 190.529 204.303 185.579 200.279 181.51C197.254 178.47 196.613 179.72 191.406 172.822C188.161 168.532 188.436 170.424 188.482 166.135Z" fill="#211F54"/>
<path d="M261.718 138.598C255.193 120.106 238.864 108.447 220.354 115.409L218.681 116.158C210.561 119.762 204.112 126.257 200.617 134.35C197.122 142.443 196.837 151.54 199.82 159.831C205.559 175.821 212.111 193.4 215.973 201.632C223.967 218.672 242.515 213.646 242.515 213.646L250.388 228.448C258.57 230.051 267.062 228.685 274.307 224.598C281.551 220.512 287.063 213.98 289.83 206.2L261.718 138.598Z" fill="#FFBE9D"/>
<path d="M241.823 170.588C242.129 171.228 242.663 171.719 243.313 171.957C243.962 172.195 244.675 172.161 245.301 171.863C245.613 171.73 245.896 171.534 246.134 171.286C246.372 171.038 246.56 170.743 246.686 170.419C246.812 170.094 246.875 169.747 246.87 169.398C246.864 169.048 246.792 168.702 246.656 168.382C246.352 167.741 245.818 167.249 245.168 167.01C244.518 166.772 243.804 166.806 243.178 167.107C242.866 167.24 242.583 167.436 242.345 167.684C242.108 167.933 241.92 168.227 241.794 168.552C241.667 168.876 241.605 169.223 241.61 169.573C241.615 169.923 241.688 170.267 241.823 170.588Z" fill="#211F54"/>
<path d="M217.274 181.986C217.58 182.627 218.115 183.119 218.765 183.356C219.416 183.593 220.13 183.558 220.755 183.258C221.067 183.124 221.349 182.927 221.586 182.679C221.823 182.431 222.01 182.137 222.137 181.812C222.262 181.489 222.325 181.142 222.32 180.793C222.316 180.444 222.245 180.099 222.11 179.779C221.806 179.138 221.272 178.646 220.622 178.408C219.973 178.169 219.26 178.204 218.634 178.504C218.321 178.636 218.038 178.832 217.799 179.08C217.56 179.328 217.372 179.623 217.245 179.948C217.118 180.272 217.055 180.619 217.06 180.97C217.065 181.32 217.137 181.665 217.274 181.986Z" fill="#211F54"/>
<path d="M209.311 176.489C209.769 176.664 210.918 174.227 213.509 172.832C216.1 171.437 218.687 171.796 218.808 171.302C218.878 171.077 218.3 170.672 217.146 170.435C215.62 170.211 214.068 170.494 212.699 171.246C211.345 171.976 210.241 173.143 209.545 174.581C209.095 175.659 209.093 176.417 209.311 176.489Z" fill="#211F54"/>
<path d="M235.682 164.219C236.182 164.328 237.146 162.082 239.719 160.57C242.292 159.058 245.036 159.143 245.114 158.693C245.159 158.489 244.5 158.165 243.276 158.09C241.65 158.042 240.048 158.448 238.69 159.254C237.339 160.026 236.3 161.169 235.723 162.513C235.347 163.508 235.444 164.174 235.682 164.219Z" fill="#211F54"/>
<path d="M235.47 187.957C235.405 187.809 233.698 188.337 230.981 189.314C230.302 189.58 229.594 189.778 229.291 189.375C228.987 188.973 228.816 188.132 228.75 187.204C228.567 185.306 228.381 183.345 228.169 181.235C227.275 172.781 226.271 165.94 225.938 165.977C225.605 166.015 226.054 172.914 226.953 181.38C227.183 183.458 227.411 185.441 227.626 187.341C227.753 188.209 227.758 189.27 228.577 190.084C228.787 190.265 229.036 190.396 229.303 190.467C229.571 190.536 229.851 190.544 230.122 190.49C230.53 190.409 230.924 190.272 231.294 190.082C233.939 188.921 235.535 188.105 235.47 187.957Z" fill="#211F54"/>
<path d="M243.435 185.281C243.036 185.475 244.355 188.342 243.051 191.624C241.747 194.905 238.817 196.132 238.986 196.547C239.062 196.734 239.868 196.757 241.091 196.129C242.64 195.3 243.873 193.9 244.573 192.177C245.242 190.52 245.295 188.643 244.719 186.945C244.23 185.706 243.607 185.164 243.435 185.281Z" fill="#211F54"/>
<path d="M228.599 155.378C229.28 155.843 231.555 154.139 234.704 152.788C237.853 151.437 240.732 150.802 240.732 150.046C240.716 149.685 239.896 149.356 238.519 149.319C236.731 149.332 234.97 149.705 233.369 150.41C231.768 151.115 230.369 152.132 229.278 153.386C228.483 154.375 228.287 155.156 228.599 155.378Z" fill="#211F54"/>
<path d="M205.048 165.044C205.788 165.421 207.248 163.819 209.344 162.635C211.441 161.45 213.444 160.93 213.553 160.052C213.58 159.635 213.01 159.167 211.949 159.003C210.563 158.844 209.165 159.155 207.952 159.892C206.722 160.596 205.723 161.689 205.092 163.025C204.664 164.099 204.72 164.873 205.048 165.044Z" fill="#211F54"/>
<path d="M236.349 111.411C235.757 111.181 235.147 110.952 234.5 110.741C229.343 108.908 223.547 107.9 219.11 110.861C216.559 112.556 214.932 115.343 212.483 117.194C209.174 119.697 204.774 120.228 201.132 122.226C198.953 123.445 197.099 125.162 195.724 127.235C194.35 129.307 193.495 131.675 193.229 134.142C192.85 137.973 193.876 142.116 192.064 145.508C191.223 147.084 188.367 148.184 187.378 149.659C187.378 149.659 185.612 162.125 195.253 161.575L196.464 160.558L205.92 148.156C209.072 147.102 212.316 146.323 213.693 143.455C214.617 141.557 214.359 139.266 214.489 137.139L219.545 131.181C221.144 130.787 222.909 130.641 224.499 130.265C226.382 129.842 228.159 129.047 229.725 127.928C231.291 126.809 232.613 125.387 233.612 123.75C234.611 122.112 235.268 120.291 235.541 118.396C235.814 116.501 235.699 114.571 235.203 112.721L236.349 111.411Z" fill="#211F54"/>
<path d="M220.623 125.348C222.738 123.619 227.007 119.949 227.402 117.3C228.267 111.552 231.892 106.329 237.081 104.425C239.79 103.51 242.722 103.495 245.439 104.384C248.157 105.272 250.515 107.016 252.159 109.354C258.304 106.779 265.958 108.067 271.349 112.592C274.066 114.932 276.173 117.898 277.486 121.234C278.798 124.571 279.278 128.176 278.884 131.739C278.654 133.579 278.194 135.492 278.884 137.257C279.804 139.41 282.076 140.421 283.953 141.718C289.077 145.24 291.69 151.972 291.58 158.272C291.469 164.572 290.605 167.101 287.707 169.584C282.022 174.459 294.257 185.844 283.337 190.525L263.521 152.009L263.474 152.083C263.082 152.815 262.49 153.42 261.767 153.829C261.044 154.237 260.219 154.432 259.39 154.391C248.35 153.683 249.058 142.104 251.257 139.924C247.962 138.982 244.8 137.626 241.846 135.887C238.93 134.048 233.981 130.424 232.968 127.022C230.724 128.061 219.693 126.102 220.623 125.348Z" fill="#211F54"/>
<path d="M263.528 152.476C263.759 152.223 273.476 143.792 278.236 155.574C282.996 167.355 270.388 169.782 270.228 169.456C270.067 169.13 263.528 152.476 263.528 152.476Z" fill="#FFBE9D"/>
<path d="M272.109 163.706C272.109 163.64 272.351 163.764 272.736 163.783C273.265 163.79 273.777 163.564 274.164 163.153C275.133 162.132 275.351 159.593 274.599 157.332C274.24 156.245 273.668 155.266 272.928 154.469C272.683 154.136 272.371 153.876 272.019 153.71C271.668 153.544 271.286 153.477 270.906 153.514C270.664 153.55 270.441 153.681 270.274 153.884C270.108 154.089 270.01 154.353 269.996 154.631C269.996 155.042 270.138 155.261 270.088 155.309C270.038 155.356 269.779 155.213 269.679 154.66C269.637 154.331 269.69 153.997 269.829 153.706C270.036 153.307 270.372 153.015 270.765 152.894C271.243 152.78 271.739 152.808 272.205 152.976C272.672 153.143 273.093 153.443 273.429 153.849C274.28 154.704 274.934 155.786 275.334 156.998C276.169 159.536 275.885 162.399 274.499 163.678C274.242 163.91 273.942 164.074 273.623 164.158C273.304 164.242 272.973 164.244 272.652 164.165C272.235 163.993 272.076 163.745 272.109 163.706Z" fill="#EB996E"/>
<path d="M242.486 213.96C242.486 213.96 257.273 204.903 263.476 194.033C263.476 194.033 265.416 210.546 245.436 219.458L242.486 213.96Z" fill="#EB996E"/>
<path d="M270.62 269.385L275.802 270.43L270.611 271.868C270.288 271.96 269.997 272.132 269.768 272.365C269.539 272.6 269.38 272.888 269.309 273.199L268.015 279.077L266.618 273.307C266.537 272.985 266.362 272.69 266.113 272.456C265.865 272.223 265.553 272.06 265.212 271.984L260.021 270.868L265.363 269.448C265.682 269.347 265.967 269.166 266.187 268.926C266.408 268.686 266.557 268.394 266.618 268.081L267.808 262.418L269.157 268.045C269.241 268.378 269.423 268.681 269.682 268.918C269.941 269.155 270.267 269.318 270.62 269.385Z" fill="white"/>
<path d="M259.474 285.006L261.774 285.5L259.474 286.175C259.33 286.22 259.199 286.301 259.097 286.413C258.995 286.525 258.924 286.663 258.892 286.812L258.319 289.598L257.68 286.86C257.647 286.706 257.57 286.566 257.461 286.455C257.351 286.344 257.212 286.267 257.061 286.232L254.76 285.709L257.127 285.035C257.273 284.99 257.406 284.907 257.51 284.794C257.614 284.68 257.686 284.54 257.718 284.388L258.244 281.707L258.835 284.369C258.87 284.526 258.949 284.67 259.062 284.783C259.175 284.896 259.318 284.973 259.474 285.006Z" fill="white"/>
<path d="M326.983 210.482L329.284 210.977L326.983 211.652C326.839 211.696 326.709 211.778 326.607 211.89C326.504 212.002 326.433 212.14 326.401 212.289L325.828 215.074L325.19 212.337C325.156 212.183 325.08 212.043 324.97 211.932C324.86 211.82 324.722 211.743 324.57 211.709L322.27 211.186L324.636 210.511C324.783 210.469 324.917 210.386 325.021 210.272C325.126 210.158 325.197 210.017 325.228 209.864L325.753 207.184L326.345 209.846C326.379 210.003 326.458 210.146 326.571 210.26C326.684 210.372 326.827 210.45 326.983 210.482Z" fill="white"/>
<path d="M311.749 414.972H60.9999V428.123H311.749V414.972Z" fill="#4A4566"/>
<path d="M311.749 414.972H238.979V428.123H311.749V414.972Z" fill="#6E7191"/>
<path d="M76.7818 428.123C76.6747 427.946 76.5797 427.762 76.4963 427.572C76.3179 427.217 76.0593 426.684 75.7204 426.072C73.9711 422.795 71.6546 419.851 68.8773 417.377C68.3421 416.897 67.9051 416.489 67.6016 416.267C67.4315 416.146 67.2756 416.005 67.1376 415.849C67.3147 415.96 67.4848 416.081 67.6465 416.213C67.9674 416.444 68.4223 416.808 68.9575 417.279C71.8022 419.713 74.1393 422.679 75.8359 426.009C76.1574 426.649 76.4071 427.173 76.5591 427.546C76.6464 427.733 76.7209 427.926 76.7818 428.123Z" fill="#8883A5"/>
<path d="M96.0698 428.123C94.8654 428.133 93.6636 428.014 92.4864 427.77C91.2433 427.516 90.0261 427.157 88.8488 426.696C87.3906 426.109 85.9948 425.386 84.6835 424.538C82.3115 422.976 80.2437 421.027 78.5734 418.78C77.8897 417.854 77.2905 416.873 76.7814 415.849C76.7814 415.849 76.8355 415.917 76.9161 416.046C76.9966 416.175 77.1487 416.416 77.2834 416.631C77.7209 417.344 78.1965 418.036 78.7075 418.702C80.3977 420.912 82.4629 422.832 84.8175 424.384C86.116 425.228 87.4962 425.95 88.9384 426.541C90.1208 427.011 91.3439 427.379 92.594 427.641C93.0727 427.751 93.5573 427.837 94.0451 427.899C94.4124 427.965 94.7836 428.008 95.156 428.028L95.8552 428.088L96.0698 428.123Z" fill="#8883A5"/>
<path d="M113.421 421.855C113.421 421.855 112.305 421.977 110.274 421.994C109.258 421.994 108.015 421.994 106.573 421.881C105.857 421.829 105.086 421.759 104.269 421.664L103.018 421.499C102.573 421.455 102.136 421.352 101.721 421.193C101.496 421.123 101.289 421.01 101.111 420.86C100.933 420.71 100.789 420.527 100.687 420.323C100.602 420.087 100.597 419.831 100.672 419.593C100.747 419.354 100.898 419.144 101.104 418.991C101.522 418.699 102.002 418.5 102.51 418.408C103.008 418.278 103.517 418.147 104.042 418.042C108.731 417.015 113.583 416.876 118.328 417.634C119.649 417.83 120.952 418.121 122.228 418.504C122.902 418.709 123.477 419.138 123.851 419.714C124.013 420.02 124.106 420.357 124.123 420.7C124.14 421.044 124.082 421.387 123.951 421.707C123.722 422.358 123.276 422.917 122.682 423.3C122.101 423.662 121.455 423.916 120.777 424.049C119.452 424.327 118.146 424.545 116.858 424.754C114.375 425.16 111.866 425.399 109.349 425.468C105.073 425.648 100.812 424.858 96.9139 423.161C94.2933 422.002 91.9545 420.329 90.0476 418.251C89.5309 417.704 89.0553 417.122 88.6234 416.51C88.3246 416.075 88.1792 415.849 88.1792 415.849C88.1792 415.849 88.3514 416.066 88.6508 416.484C89.0945 417.094 89.5792 417.676 90.1024 418.225C92.0302 420.247 94.3702 421.868 96.9772 422.987C100.863 424.658 105.104 425.43 109.357 425.242C111.863 425.165 114.36 424.923 116.831 424.519C118.119 424.31 119.435 424.084 120.741 423.814C121.386 423.68 122 423.436 122.554 423.091C123.112 422.726 123.532 422.198 123.751 421.585C123.871 421.288 123.923 420.97 123.906 420.652C123.889 420.334 123.802 420.023 123.652 419.74C123.305 419.197 122.763 418.795 122.128 418.608C120.863 418.229 119.572 417.939 118.264 417.738C113.545 416.99 108.72 417.12 104.052 418.121C103.526 418.225 103.018 418.356 102.528 418.478C102.036 418.561 101.571 418.752 101.167 419.035C100.987 419.17 100.854 419.355 100.785 419.565C100.717 419.775 100.718 420 100.786 420.21C100.957 420.603 101.284 420.916 101.693 421.08C102.101 421.234 102.528 421.333 102.963 421.377L104.215 421.55C105.022 421.646 105.793 421.725 106.51 421.777C107.943 421.89 109.231 421.925 110.201 421.925C111.172 421.925 112.015 421.925 112.532 421.881L113.421 421.855Z" fill="#8883A5"/>
<path d="M158.318 415.974H157.965C157.733 415.974 157.398 415.9 156.961 415.909C155.731 415.876 154.501 416.012 153.307 416.313C151.537 416.768 149.83 417.433 148.222 418.294C146.254 419.356 144.349 420.526 142.514 421.798C140.543 423.128 138.647 424.375 136.833 425.375C135.237 426.284 133.54 427.011 131.776 427.539C130.587 427.897 129.355 428.091 128.113 428.117C127.66 428.133 127.206 428.118 126.756 428.072H127.109C127.443 428.088 127.778 428.088 128.113 428.072C129.344 428.016 130.563 427.804 131.739 427.439C133.482 426.894 135.159 426.162 136.74 425.256C138.544 424.247 140.459 422.999 142.402 421.67C144.243 420.392 146.159 419.222 148.138 418.166C149.758 417.303 151.483 416.647 153.27 416.212C154.487 415.922 155.739 415.805 156.989 415.864C157.434 415.872 157.878 415.908 158.318 415.974Z" fill="#8883A5"/>
<path d="M174.913 421.653L174.227 421.502C173.57 421.363 172.903 421.278 172.233 421.249C171.175 421.191 170.114 421.279 169.078 421.512C168.43 421.653 167.793 421.848 167.176 422.094C166.47 422.301 165.85 422.74 165.41 423.343C165.216 423.7 165.14 424.112 165.194 424.517C165.249 424.923 165.431 425.298 165.712 425.588C166.313 426.249 167.069 426.74 167.907 427.015C169.766 427.631 171.759 427.673 173.641 427.137C174.667 426.885 175.671 426.546 176.641 426.123C177.673 425.738 178.637 425.183 179.495 424.479C179.929 424.116 180.283 423.66 180.529 423.143C180.775 422.626 180.909 422.06 180.921 421.484C180.883 420.287 180.421 419.145 179.623 418.272C178.836 417.38 177.822 416.729 176.696 416.394C175.602 416.079 174.462 415.97 173.33 416.075C171.185 416.327 169.081 416.87 167.075 417.69C163.63 418.967 160.296 420.537 157.107 422.385C154.957 423.631 152.875 424.995 150.869 426.47C150.155 426.996 149.616 427.41 149.25 427.691C148.885 427.973 148.674 428.123 148.674 428.123C148.674 428.123 149.415 427.475 150.823 426.404C152.821 424.908 154.897 423.525 157.042 422.263C160.226 420.391 163.562 418.804 167.011 417.521C169.031 416.692 171.151 416.143 173.313 415.887C174.468 415.784 175.632 415.891 176.751 416.207C177.903 416.542 178.946 417.191 179.769 418.084C180.599 418.993 181.077 420.182 181.114 421.428C181.1 422.031 180.959 422.624 180.7 423.165C180.441 423.707 180.07 424.184 179.614 424.564C178.741 425.281 177.763 425.848 176.714 426.245C175.733 426.663 174.72 427.002 173.687 427.259C171.77 427.794 169.743 427.745 167.853 427.118C166.992 426.829 166.217 426.318 165.602 425.634C165.315 425.297 165.126 424.884 165.054 424.442C164.99 424.015 165.077 423.578 165.301 423.212C165.756 422.587 166.399 422.131 167.13 421.916C167.755 421.675 168.397 421.484 169.051 421.343C170.094 421.127 171.161 421.048 172.224 421.108C172.899 421.148 173.569 421.248 174.227 421.409C174.721 421.577 174.913 421.653 174.913 421.653Z" fill="#8883A5"/>
<path d="M195.851 428.123C195.851 428.123 195.851 427.881 195.851 427.445C195.889 426.826 195.889 426.205 195.851 425.586C195.718 423.547 195.106 421.57 194.064 419.814C193.005 418.069 191.469 416.666 189.64 415.771C188.874 415.421 188.073 415.153 187.251 414.972C188.099 415.047 188.926 415.274 189.695 415.641C191.573 416.52 193.151 417.936 194.231 419.711C195.291 421.491 195.895 423.506 195.99 425.577C196.055 426.428 196.008 427.284 195.851 428.123Z" fill="#8883A5"/>
<path d="M222.32 428.123C221.036 427.941 219.765 427.666 218.517 427.302C217.156 426.92 215.816 426.46 214.505 425.924C212.908 425.246 211.35 424.47 209.841 423.601C207.111 421.991 204.566 420.066 202.251 417.861C201.346 417.011 200.675 416.294 200.223 415.774L199.697 415.179C199.58 415.047 199.525 414.972 199.525 414.972C199.525 414.972 199.597 415.028 199.724 415.16L200.277 415.727C200.739 416.227 201.445 416.926 202.333 417.757C205.947 421.145 210.095 423.857 214.595 425.773C215.896 426.316 217.223 426.789 218.571 427.189C219.721 427.528 220.672 427.764 221.288 427.906L222.049 428.067C222.141 428.074 222.232 428.093 222.32 428.123Z" fill="#8883A5"/>
<path d="M240.733 424.616L240.484 424.501C240.324 424.421 240.111 424.279 239.8 424.136C238.941 423.718 238.049 423.37 237.133 423.098C235.778 422.695 234.393 422.398 232.991 422.209C231.418 421.978 229.667 421.827 227.836 421.587C224.174 421.134 220.904 420.042 218.948 418.594C218.16 418.049 217.443 417.407 216.815 416.684C216.388 416.16 216.184 415.849 216.184 415.849C216.184 415.849 216.255 415.911 216.371 416.044C216.486 416.178 216.637 416.391 216.869 416.639C217.514 417.338 218.239 417.958 219.028 418.487C220.993 419.891 224.228 420.948 227.916 421.401C229.738 421.641 231.471 421.8 233.071 422.04C234.477 422.223 235.865 422.52 237.222 422.929C238.144 423.212 239.036 423.581 239.889 424.03C240.395 424.403 240.733 424.616 240.733 424.616Z" fill="#8883A5"/>
</svg>
