<svg width="600" height="515" viewBox="0 0 600 515" fill="none" xmlns="http://www.w3.org/2000/svg">
<g clip-path="url(#clip0_265_299)">
<path d="M458.858 427.785L459.504 426.514L460.964 425.852C460.964 425.852 467.217 426.858 468.739 429.456C470.261 432.056 476.285 441.332 476.036 443.18C475.785 445.03 474.201 446.019 473.138 445.624C472.074 445.228 470.11 442.649 470.11 442.649L469.271 442.54L459.369 444.816L458.191 442.785L467.416 439.389L462.397 438.894L458.003 434.207L458.858 427.785Z" fill="#05C168"/>
<path d="M451.814 442.438C452.107 443.296 452.185 444.212 452.041 445.106C451.897 446 451.537 446.846 450.991 447.569C449.365 449.71 446.941 453.069 444.659 456.058C442.876 458.386 430.878 464.553 424.395 467.777C423.18 468.384 421.784 468.524 420.472 468.17C419.161 467.815 418.026 466.992 417.281 465.855C414.976 462.348 413.142 458.55 411.83 454.564C411.413 453.281 411.478 451.89 412.014 450.653C412.549 449.415 413.518 448.414 414.738 447.839L442.647 434.684C443.352 434.351 444.12 434.17 444.9 434.154C445.679 434.138 446.453 434.287 447.172 434.591C447.89 434.895 448.536 435.347 449.067 435.918C449.599 436.488 450.004 437.164 450.256 437.902L451.814 442.438Z" fill="#E0623B"/>
<path d="M451.815 442.438C451.815 442.438 451.815 442.339 451.736 442.156L451.47 441.339C451.231 440.615 450.876 439.563 450.429 438.214C450.205 437.442 449.829 436.723 449.323 436.1C448.712 435.357 447.918 434.787 447.02 434.443C445.986 434.045 444.86 433.96 443.778 434.199C443.196 434.349 442.634 434.564 442.1 434.839L440.406 435.631L424.141 443.271L414.535 447.798C413.677 448.234 412.944 448.882 412.406 449.68C411.868 450.479 411.543 451.401 411.46 452.36C411.389 453.336 411.546 454.315 411.919 455.219C412.237 456.136 412.576 457.047 412.961 457.948C413.705 459.733 414.552 461.472 415.5 463.157C415.969 463.987 416.458 464.796 416.969 465.584C417.219 465.987 417.504 466.368 417.824 466.719C418.632 467.564 419.681 468.139 420.828 468.367C421.975 468.595 423.165 468.463 424.234 467.99C425.839 467.219 427.362 466.428 428.878 465.657C431.89 464.094 434.73 462.599 437.347 461.115C438.66 460.375 439.916 459.641 441.094 458.891C442.253 458.205 443.345 457.411 444.357 456.521C444.78 456.058 445.171 455.568 445.529 455.053C445.889 454.563 446.243 454.084 446.571 453.626C447.254 452.699 447.905 451.823 448.511 451.021C449.115 450.22 449.672 449.459 450.194 448.745C450.69 448.122 451.142 447.464 451.544 446.777C452.048 445.783 452.238 444.662 452.091 443.558C452.051 443.175 451.957 442.799 451.81 442.444C451.81 442.444 451.81 442.537 451.883 442.724C451.954 443 452.007 443.28 452.039 443.563C452.161 444.653 451.956 445.756 451.45 446.729C451.043 447.408 450.588 448.055 450.089 448.667L448.386 450.928L446.436 453.531L445.368 454.954C445.014 455.462 444.626 455.947 444.205 456.401C443.201 457.276 442.117 458.055 440.969 458.73C439.791 459.469 438.535 460.198 437.222 460.933C434.616 462.407 431.76 463.907 428.753 465.449C427.247 466.208 425.698 467.011 424.114 467.771C423.304 468.129 422.419 468.282 421.535 468.217C420.652 468.153 419.798 467.873 419.048 467.402C418.668 467.161 418.318 466.874 418.007 466.548C417.699 466.208 417.424 465.842 417.183 465.454C416.662 464.667 416.193 463.891 415.729 463.037C414.785 461.363 413.941 459.634 413.202 457.86C412.826 456.964 412.492 456.058 412.159 455.146C411.793 454.278 411.64 453.336 411.711 452.396C411.787 451.483 412.097 450.605 412.608 449.845C413.12 449.085 413.818 448.468 414.634 448.053L424.224 443.511L440.469 435.818L442.157 435.016C442.678 434.746 443.227 434.533 443.794 434.38C444.836 434.149 445.923 434.227 446.92 434.605C447.798 434.932 448.576 435.481 449.178 436.198C449.681 436.813 450.056 437.521 450.282 438.282C450.752 439.626 451.121 440.667 451.372 441.407C451.497 441.75 451.59 442.021 451.663 442.214C451.736 442.407 451.815 442.438 451.815 442.438Z" fill="#9C3A03"/>
<path d="M470.526 443.275C470.568 443.275 470.719 443.009 471.047 442.608C471.892 441.57 473.103 440.897 474.429 440.728C474.712 440.721 474.992 440.693 475.269 440.644C474.996 440.542 474.703 440.507 474.414 440.54C473.716 440.571 473.033 440.763 472.421 441.103C471.81 441.443 471.286 441.921 470.892 442.498C470.71 442.725 470.585 442.991 470.526 443.275Z" fill="#9C3A03"/>
<path d="M462.136 435.567C462.546 435.947 462.985 436.296 463.449 436.608C464.273 437.228 465.419 438.066 466.613 439.082C467.637 439.945 468.583 440.894 469.442 441.921C470.094 442.712 470.438 443.243 470.485 443.223C470.439 443.078 470.37 442.94 470.282 442.817C470.073 442.464 469.844 442.125 469.594 441.801C468.77 440.728 467.832 439.748 466.795 438.879C465.764 438.011 464.685 437.2 463.564 436.452C463.115 436.117 462.637 435.82 462.136 435.567Z" fill="#9C3A03"/>
<path d="M441.349 455.59L433.636 440.918L419.716 447.272L428.795 463.288L441.349 455.59Z" fill="white"/>
<path d="M482.336 454.431C482.083 454.018 481.794 453.627 481.471 453.265C480.914 452.567 480.127 451.613 479.24 450.572C478.355 449.53 477.547 448.598 476.952 447.931C476.651 447.552 476.312 447.203 475.941 446.889C476.192 447.305 476.482 447.696 476.806 448.056C477.365 448.755 478.152 449.707 479.032 450.749C479.912 451.791 480.726 452.723 481.325 453.384C481.63 453.763 481.968 454.114 482.336 454.431Z" fill="#9C3A03"/>
<path d="M480.21 461.848C480.278 461.848 479.132 458.723 477.651 454.9C476.171 451.077 474.915 448.019 474.848 448.051C474.78 448.082 475.921 451.176 477.401 454.999C478.881 458.822 480.137 461.879 480.21 461.848Z" fill="#9C3A03"/>
<path d="M473.539 457.743C473.661 456.111 473.693 454.472 473.633 452.836C473.661 451.199 473.6 449.561 473.45 447.93C473.328 449.563 473.297 451.2 473.357 452.836C473.329 454.474 473.389 456.112 473.539 457.743Z" fill="#9C3A03"/>
<path d="M572.037 167.148C569.883 167.497 567.771 168.071 565.737 168.86C563.631 169.441 561.592 170.244 559.655 171.254C561.813 170.921 563.927 170.347 565.956 169.544C568.064 168.969 570.103 168.166 572.037 167.148Z" fill="#DCDDEB"/>
<path d="M414.802 392.433V443.763H421.678L430.908 391.859L414.802 392.433Z" fill="#DCDDEB"/>
<path d="M477.314 392.433V443.763H484.202L493.42 391.859L477.314 392.433Z" fill="#DCDDEB"/>
<path d="M555.491 392.433V443.763H548.616L539.385 391.859L555.491 392.433Z" fill="#DCDDEB"/>
<path d="M599.402 392.433V443.763H592.527L583.296 391.859L599.402 392.433Z" fill="#DCDDEB"/>
<path d="M457.768 279.537C457.768 279.537 430.594 271.708 423.103 282.151C415.611 292.595 414.802 393.145 414.802 393.145C414.802 393.145 463.302 394.02 464.191 393.145C465.082 392.269 457.768 279.537 457.768 279.537Z" fill="#EB996E"/>
<path d="M598.02 374.803L598.818 200.875C598.855 195.525 598.219 189.781 596.187 184.831C594.155 179.88 591.16 175.383 587.374 171.6C583.588 167.816 579.088 164.822 574.134 162.792C569.18 160.761 563.873 159.734 558.519 159.77H494.474C489.154 159.771 483.887 160.834 478.984 162.898C474.08 164.962 469.639 167.985 465.922 171.789C462.205 175.593 459.286 180.102 457.338 185.05C455.389 189.998 454.451 195.284 454.577 200.6L458.686 374.803H598.02Z" fill="#E0623B"/>
<path d="M598.018 374.804C598.018 374.804 573.365 338.408 544.314 337.217C515.264 336.026 452.754 337.217 452.754 337.217C452.754 337.217 425.032 338.257 423.101 372.585V392.829H598.018V374.804Z" fill="#E0623B"/>
<path d="M541.247 338.257L469.436 337.874C461.944 337.874 453.412 336.916 446.153 338.983C424.745 345.047 421.609 372.408 423.307 391.27C423.375 392.05 422.17 392.05 422.102 391.27C420.732 375.461 422.348 353.3 435.88 342.761C443.701 336.683 452.768 336.587 462.095 336.629L541.247 337.053C541.406 337.053 541.56 337.117 541.673 337.229C541.786 337.342 541.849 337.496 541.849 337.656C541.849 337.815 541.786 337.968 541.673 338.081C541.56 338.194 541.406 338.257 541.247 338.257Z" fill="#56A4FF"/>
<path d="M474.408 165.219C474.57 165.199 474.73 165.167 474.888 165.123C475.202 165.123 475.654 164.904 476.257 164.794L478.558 164.48C479.476 164.397 480.531 164.274 481.708 164.192C486.474 163.864 493.391 163.699 501.924 163.699C506.197 163.699 510.868 163.699 515.881 163.85C521.219 163.828 526.555 164.093 531.865 164.644C534.718 164.999 537.548 165.516 540.343 166.19C543.254 166.876 546.08 167.886 548.765 169.201C554.271 172.276 558.806 176.827 561.86 182.341C562.592 183.754 563.171 185.241 563.586 186.777C563.933 188.318 564.171 189.882 564.298 191.458C564.681 194.605 564.996 197.713 565.297 200.765C565.9 206.884 566.352 212.783 566.667 218.408C567.407 229.674 567.763 239.829 568.036 248.358C568.311 256.885 568.448 263.756 568.584 268.56C568.584 270.915 568.708 272.762 568.748 274.035C568.748 274.637 568.748 275.103 568.748 275.403C568.731 275.568 568.731 275.733 568.748 275.896C568.761 275.732 568.761 275.568 568.748 275.403V274.035C568.748 272.735 568.748 270.887 568.748 268.56C568.748 263.783 568.625 256.885 568.434 248.343C568.242 239.802 567.913 229.646 567.215 218.368C566.858 212.742 566.421 206.829 565.845 200.711C565.544 197.644 565.229 194.537 564.859 191.375C564.73 189.767 564.483 188.17 564.119 186.598C563.748 185.025 563.206 183.496 562.503 182.041C560.958 179.173 558.986 176.556 556.655 174.28C554.421 172.037 551.875 170.128 549.094 168.613C546.363 167.27 543.486 166.246 540.52 165.561C537.695 164.883 534.832 164.372 531.946 164.028C526.619 163.481 521.264 163.235 515.908 163.289C510.881 163.289 506.211 163.193 501.938 163.289C493.391 163.289 486.474 163.59 481.708 164C480.517 164.11 479.462 164.247 478.544 164.343C477.627 164.438 476.859 164.63 476.243 164.74C475.627 164.849 475.175 165.054 474.873 165.137C474.716 165.148 474.56 165.176 474.408 165.219Z" fill="#DCDDEB"/>
<path d="M530.317 217.751C531.118 217.746 531.893 218.033 532.495 218.559C532.796 218.833 533.014 219.187 533.122 219.579C533.232 219.971 533.228 220.386 533.111 220.776C532.965 221.246 532.686 221.663 532.306 221.977C531.927 222.29 531.464 222.487 530.975 222.542C530.481 222.539 529.998 222.402 529.577 222.146C529.155 221.891 528.809 221.526 528.578 221.091C528.384 220.729 528.282 220.325 528.282 219.914C528.282 219.503 528.384 219.099 528.578 218.737C528.996 218.046 529.604 217.489 530.331 217.135C530.331 217.135 530.057 217.135 529.632 217.231C529.013 217.474 528.49 217.911 528.14 218.477C527.859 218.902 527.693 219.392 527.654 219.899C527.615 220.407 527.707 220.916 527.921 221.379C528.19 221.953 528.621 222.437 529.16 222.77C529.701 223.103 530.326 223.271 530.961 223.254C531.598 223.196 532.201 222.944 532.691 222.533C533.18 222.121 533.533 221.571 533.7 220.955C533.831 220.46 533.815 219.937 533.655 219.451C533.495 218.966 533.196 218.537 532.796 218.217C532.286 217.78 531.633 217.547 530.961 217.559C530.523 217.628 530.303 217.711 530.317 217.751Z" fill="#DCDDEB"/>
<path d="M532.673 201.601C531.826 201.979 531.079 202.551 530.496 203.27C528.959 204.918 527.927 206.971 527.522 209.184C527.117 211.399 527.355 213.683 528.208 215.767C528.47 216.642 528.94 217.441 529.578 218.094C529.687 218.094 529.126 217.163 528.619 215.603C527.938 213.581 527.783 211.419 528.166 209.319C528.549 207.22 529.459 205.252 530.81 203.599C531.906 202.326 532.742 201.696 532.673 201.601Z" fill="#DCDDEB"/>
<path d="M531.125 240.364C531.207 240.295 530.536 239.378 529.755 237.75C528.718 235.632 528.063 233.347 527.824 231.001C527.592 228.264 527.824 225.677 528.851 224.281C529.424 223.526 530.219 222.971 531.125 222.693C531.125 222.693 530.823 222.584 530.303 222.693C529.562 222.901 528.905 223.337 528.427 223.938C527.736 224.838 527.301 225.907 527.167 227.032C526.987 228.362 526.959 229.707 527.084 231.043C527.321 233.475 528.068 235.83 529.276 237.955C529.713 238.881 530.343 239.702 531.125 240.364Z" fill="#DCDDEB"/>
<path d="M521.169 219.861C522.166 219.619 523.176 219.44 524.196 219.326C525.217 219.425 526.228 219.599 527.222 219.847C527.36 219.71 526.127 218.601 524.196 218.614C522.264 218.629 521.018 219.738 521.169 219.861Z" fill="#DCDDEB"/>
<path d="M489.57 217.751C490.371 217.745 491.146 218.032 491.748 218.559C492.049 218.833 492.267 219.187 492.376 219.579C492.485 219.971 492.481 220.386 492.364 220.776C492.218 221.246 491.939 221.663 491.559 221.977C491.18 222.29 490.717 222.487 490.228 222.542C489.735 222.539 489.251 222.402 488.83 222.146C488.407 221.891 488.062 221.526 487.831 221.091C487.647 220.723 487.558 220.316 487.57 219.906C487.581 219.495 487.694 219.093 487.899 218.737C488.322 218.049 488.929 217.494 489.653 217.135C489.653 217.135 489.379 217.135 488.954 217.231C488.339 217.482 487.818 217.917 487.462 218.477C487.181 218.902 487.014 219.392 486.976 219.899C486.937 220.407 487.029 220.916 487.242 221.379C487.511 221.953 487.943 222.437 488.482 222.77C489.023 223.103 489.648 223.271 490.282 223.254C490.92 223.196 491.523 222.944 492.012 222.533C492.502 222.121 492.854 221.571 493.022 220.955C493.153 220.46 493.137 219.937 492.976 219.451C492.816 218.966 492.517 218.537 492.118 218.217C491.607 217.78 490.954 217.547 490.282 217.559C489.789 217.628 489.556 217.711 489.57 217.751Z" fill="#DCDDEB"/>
<path d="M491.926 201.601C491.079 201.979 490.333 202.551 489.749 203.27C488.222 204.923 487.196 206.975 486.79 209.188C486.386 211.4 486.618 213.682 487.461 215.767C487.723 216.642 488.193 217.441 488.831 218.094C488.941 218.094 488.379 217.163 487.872 215.603C487.203 213.579 487.048 211.42 487.42 209.32C487.822 207.227 488.73 205.263 490.063 203.599C491.159 202.326 491.995 201.696 491.926 201.601Z" fill="#DCDDEB"/>
<path d="M490.351 240.364C490.447 240.295 489.762 239.378 488.981 237.75C487.944 235.632 487.29 233.347 487.05 231.001C486.818 228.264 487.05 225.677 488.078 224.281C488.658 223.522 489.463 222.966 490.378 222.693C490.378 222.693 490.091 222.584 489.557 222.693C488.816 222.901 488.159 223.337 487.68 223.938C486.99 224.838 486.555 225.907 486.421 227.032C486.261 228.364 486.261 229.71 486.421 231.043C486.651 233.476 487.398 235.833 488.612 237.955C489.019 238.869 489.611 239.689 490.351 240.364Z" fill="#DCDDEB"/>
<path d="M480.45 219.86C481.446 219.617 482.457 219.438 483.476 219.325C484.497 219.424 485.509 219.598 486.503 219.845C486.654 219.709 485.408 218.6 483.476 218.613C482.908 218.556 482.335 218.64 481.807 218.858C481.279 219.076 480.813 219.42 480.45 219.86Z" fill="#DCDDEB"/>
<path d="M597.278 278.374C597.278 278.374 555.736 267.628 548.217 281.768C540.698 295.907 539.342 393.253 539.342 393.253C539.342 393.253 599.332 395.457 599.47 392.939C599.607 390.42 597.278 278.374 597.278 278.374Z" fill="#EB996E"/>
<path d="M598.385 277.463C598.385 277.463 572.133 270.803 564.586 281.233C557.039 291.663 555.121 393.678 555.121 393.678C555.121 393.678 598.95 395.046 599.8 394.088C600.649 393.129 598.385 277.463 598.385 277.463Z" fill="#F78E53"/>
<path d="M583.446 328.743C583.446 328.743 583.651 328.675 583.966 328.743C584.175 328.783 584.368 328.879 584.526 329.022C584.683 329.164 584.797 329.348 584.857 329.551C585.04 330.207 585.068 330.895 584.939 331.563C584.93 331.743 584.882 331.92 584.8 332.081C584.718 332.241 584.602 332.382 584.461 332.495C584.32 332.608 584.157 332.689 583.982 332.734C583.807 332.778 583.624 332.785 583.446 332.754C583.198 332.685 582.967 332.563 582.77 332.398C582.572 332.234 582.411 332.028 582.299 331.797C582.186 331.565 582.124 331.312 582.116 331.055C582.109 330.797 582.155 330.542 582.254 330.304C582.53 329.573 583.004 328.933 583.624 328.456L583.884 328.237H583.583C583.09 328.127 582.829 328.1 582.802 328.155C582.802 328.155 583.021 328.346 583.487 328.552V328.264C582.691 328.669 582.064 329.343 581.72 330.167C581.489 330.785 581.489 331.465 581.72 332.083C581.846 332.454 582.069 332.783 582.364 333.038C582.661 333.293 583.02 333.464 583.405 333.534C583.688 333.584 583.978 333.57 584.255 333.495C584.532 333.419 584.789 333.283 585.007 333.096C585.375 332.727 585.607 332.245 585.664 331.727C585.789 330.938 585.699 330.129 585.404 329.387C585.3 329.114 585.11 328.881 584.864 328.724C584.617 328.566 584.327 328.492 584.035 328.51C583.556 328.497 583.418 328.716 583.446 328.743Z" fill="#DCDDEB"/>
<path d="M575.638 310.237C575.46 310.347 577.816 314.344 580.062 319.477C582.308 324.61 583.582 329.058 583.801 329.058C583.721 328.049 583.509 327.056 583.171 326.101C582.505 323.767 581.682 321.48 580.705 319.257C579.743 317.027 578.631 314.865 577.378 312.783C576.924 311.855 576.337 310.998 575.638 310.237Z" fill="#DCDDEB"/>
<path d="M592.019 311.963C591.417 312.669 590.919 313.457 590.541 314.304C589.719 315.81 588.664 317.931 587.623 320.327C586.582 322.722 585.76 324.953 585.227 326.581C584.871 327.458 584.636 328.38 584.528 329.32C584.734 329.388 586.212 325.446 588.281 320.669C590.349 315.892 592.211 312.073 592.019 311.963Z" fill="#DCDDEB"/>
<path d="M575.831 361.923C576.261 360.525 576.591 359.097 576.818 357.652C577.351 355.01 578.104 351.356 579.009 347.345C579.913 343.335 580.803 339.694 581.46 337.079C581.875 335.675 582.191 334.243 582.405 332.795C581.824 334.119 581.366 335.494 581.035 336.902C580.269 339.489 579.297 343.116 578.379 347.14C577.461 351.165 576.803 354.846 576.393 357.529C576.066 358.972 575.877 360.444 575.831 361.923Z" fill="#DCDDEB"/>
<path d="M591.993 350.754C591.932 349.823 591.752 348.903 591.458 348.017C590.857 345.807 590.12 343.636 589.253 341.516C588.389 339.397 587.392 337.335 586.268 335.342C585.86 334.476 585.329 333.675 584.693 332.96C584.514 333.07 586.583 336.862 588.583 341.803C590.582 346.744 591.787 350.809 591.993 350.754Z" fill="#DCDDEB"/>
<g opacity="0.5">
<path d="M201.877 439.109V63.9319H352.452V439.109H201.877Z" fill="#DCDDEB"/>
<path d="M210.149 183.768V73.3298H344.203V183.768H210.149Z" fill="#A0A3BD"/>
<path d="M210.149 304.134V193.695H344.203V304.134H210.149Z" fill="#A0A3BD"/>
<path d="M210.149 424.499V314.06H344.203V424.499H210.149Z" fill="#A0A3BD"/>
<path d="M291.469 183.768V73.3298H344.201V183.768H291.469Z" fill="#EFF0F7"/>
<path d="M291.469 304.134V193.695H344.201V304.134H291.469Z" fill="#EFF0F7"/>
<path d="M291.497 424.499V314.06H344.23V424.499H291.497Z" fill="#EFF0F7"/>
<path d="M160.994 439.109V63.9319H201.872V439.109H160.994Z" fill="#F7F9FC"/>
<path d="M40.882 439.109V63.9319H191.456V439.109H40.882Z" fill="#DCDDEB"/>
<path d="M49.1583 183.768V73.3298H183.213V183.768H49.1583Z" fill="#A0A3BD"/>
<path d="M49.1583 304.134V193.695H183.213V304.134H49.1583Z" fill="#A0A3BD"/>
<path d="M49.1266 424.459V314.021H183.182V424.459H49.1266Z" fill="#A0A3BD"/>
<path d="M130.478 183.768V73.3298H183.211V183.768H130.478Z" fill="#EFF0F7"/>
<path d="M130.478 304.134V193.695H183.211V304.134H130.478Z" fill="#EFF0F7"/>
<path d="M130.507 424.499V314.06H183.238V424.499H130.507Z" fill="#EFF0F7"/>
<path d="M0.00643921 439.109V63.9319H40.8848V439.109H0.00643921Z" fill="#F7F9FC"/>
<path d="M174.098 424.469H65.2433V329.943H174.098V424.469Z" fill="#DCDDEB"/>
<path d="M49.1574 329.971H65.2697V424.497H49.1574V329.971Z" fill="#EFF0F7"/>
<path d="M335.089 183.781H226.234V89.2548H335.089V183.781Z" fill="#DCDDEB"/>
<path d="M210.145 89.2446H226.257V183.771H210.145V89.2446Z" fill="#EFF0F7"/>
</g>
<path d="M82.6138 465.124C82.6138 464.578 80.7925 411.075 72.0777 402.618C63.6711 394.413 53.8635 402.31 53.4992 402.618L52.6025 401.539C52.7146 401.442 63.7132 392.48 73.0585 401.539C82.1655 410.375 83.9449 462.771 84.015 464.997L82.6138 465.124Z" fill="#263238"/>
<path d="M83.3709 475.639C83.3709 474.995 77.4162 411.383 100.66 384.723L101.725 385.647C78.8594 411.831 84.6739 474.841 84.7579 475.499L83.3709 475.639Z" fill="#263238"/>
<path d="M82.5445 468.917L81.1435 468.819C81.1435 468.091 85.6971 396.525 68.6598 380.857L69.5985 379.821C87.1401 395.937 82.7408 465.935 82.5445 468.917Z" fill="#263238"/>
<path d="M84.7718 468.877H83.3707C83.3707 466.903 83.9312 420.514 97.1154 412.952C98.3698 412.142 99.8009 411.644 101.288 411.5C102.775 411.357 104.275 411.571 105.662 412.126C113.648 415.416 117.599 429.615 117.767 430.217L116.367 430.581C116.367 430.441 112.429 416.452 105.088 413.414C103.896 412.948 102.611 412.773 101.339 412.904C100.067 413.036 98.844 413.47 97.774 414.17C85.318 421.312 84.7718 468.401 84.7718 468.877Z" fill="#263238"/>
<path d="M79.6285 468.903L78.2275 468.819C78.2275 468.455 80.2171 432.176 70.4234 419.405C68.0556 416.311 65.4775 414.841 62.7594 415.023C56.3424 415.471 50.9763 424.824 50.9202 424.951L49.7013 424.264C49.9394 423.844 55.5017 414.127 62.6613 413.622C65.8698 413.399 68.8682 415.023 71.5442 418.551C81.6461 431.742 79.7126 467.391 79.6285 468.903Z" fill="#263238"/>
<path d="M81.7459 473.848C81.4798 470.319 75.343 387.454 86.1451 372.85L87.266 373.69C76.7721 387.874 83.063 472.881 83.1471 473.735L81.7459 473.848Z" fill="#263238"/>
<path d="M108.591 420.526C108.591 420.526 102.117 422.907 104.037 428.55C105.957 434.193 126.455 443.463 126.455 443.463C126.455 443.463 135.043 435.593 127.155 422.809C119.267 410.025 108.773 416.494 108.591 420.526Z" fill="#11845B"/>
<path d="M80.4699 409.786C80.4699 409.786 87.3635 409.506 87.7553 415.387C88.1479 421.267 72.8059 437.79 72.8059 437.79C72.8059 437.79 61.8634 433.842 64.2172 418.999C66.571 404.157 78.7046 406.131 80.4699 409.786Z" fill="#11845B"/>
<path d="M74.5855 381.349C74.5855 381.349 79.1811 380.845 78.7888 378.045C78.3965 375.244 60.8969 368.047 50.5708 379.697C50.5708 379.697 57.1839 391.052 66.7534 391.207C76.3228 391.361 74.5855 381.349 74.5855 381.349Z" fill="#11845B"/>
<path d="M83.1602 374.543C83.1602 374.543 78.9569 376.559 77.822 373.983C76.6871 371.407 87.6295 356.032 102.635 360.471C102.635 360.471 103.041 373.605 94.9993 378.786C86.9573 383.967 83.1602 374.543 83.1602 374.543Z" fill="#05C168"/>
<path d="M61.3728 418.258C61.3728 418.258 64.5533 415.696 61.1206 414.45C57.6879 413.203 40.8888 413.553 40.7066 430.188C40.7066 430.188 60.3219 433.451 62.7178 427.108C65.1137 420.765 61.3728 418.258 61.3728 418.258Z" fill="#05C168"/>
<path d="M101.305 380.927C101.305 380.927 98.125 378.365 101.557 377.118C104.99 375.873 121.803 376.223 121.971 392.857C121.971 392.857 102.356 396.12 99.9598 389.777C97.5641 383.434 101.305 380.927 101.305 380.927Z" fill="#05C168"/>
<path d="M90.9508 394.329C90.9508 394.329 90.6703 391.22 93.1926 392.438C95.7149 393.656 104.401 403.107 95.392 412.041C95.392 412.041 83.1608 402.982 85.3606 398.277C87.5599 393.572 90.9508 394.329 90.9508 394.329Z" fill="#05C168"/>
<path d="M58.5421 398.766C58.5421 398.766 60.4336 396.288 57.6594 395.966C54.8853 395.644 42.4156 398.976 45.3158 411.369C45.3158 411.369 60.4896 410.22 61.1482 405.068C61.8066 399.914 58.5421 398.766 58.5421 398.766Z" fill="#05C168"/>
<path d="M109.81 515H57.7302L52.1257 458.025H115.429L109.81 515Z" fill="#6E7191"/>
<path opacity="0.7" d="M109.81 515H57.7302L52.1257 458.025H115.429L109.81 515Z" fill="white"/>
<path d="M118.202 451.737H49.3374V464.312H118.202V451.737Z" fill="#211F54"/>
<path opacity="0.5" d="M118.202 451.737H49.3374V464.312H118.202V451.737Z" fill="white"/>
<g opacity="0.3">
<path d="M493.652 0H405.324V115.108L493.652 117.321V0Z" fill="#A0A3BD"/>
<path d="M487.831 4.09961H410.545V108.488L487.831 111.09V4.09961Z" fill="white"/>
<path d="M474.308 23.056L423.023 21.1124V94.0733H474.308V23.056Z" fill="#CEE5FF"/>
<path d="M423.023 94.0733L474.308 56.5912L423.023 21.1124V94.0733Z" fill="#E0623B"/>
</g>
<path d="M74.1921 162.082C74.1921 174.064 93.587 183.769 117.593 183.769C141.599 183.769 160.994 174.064 160.994 162.082H74.1921Z" fill="#FF630B"/>
<path d="M74.1921 145.838C74.1921 157.819 93.587 167.525 117.593 167.525C141.599 167.525 160.994 157.792 160.994 145.838H74.1921Z" fill="#B54607"/>
<path d="M248.609 281.986C248.609 293.968 264.125 303.673 283.249 303.673C302.373 303.673 317.779 293.914 317.779 281.986H248.609Z" fill="#D84E00"/>
<path d="M248.612 265.769C248.612 277.751 264.127 287.456 283.251 287.456C302.374 287.456 317.863 277.751 317.863 265.769H248.612Z" fill="#E0623B"/>
<path d="M386.332 371.516C386.332 373.214 401.579 411.296 401.579 411.296L438.42 425.871L432.913 435.892C432.913 435.892 394.415 433.905 388.483 430.635C382.55 427.366 376.381 419.298 376.381 419.298L365.588 380.229L386.332 371.516Z" fill="#FFBF9D"/>
<path d="M402.445 411.136C398.108 412.416 394.378 415.217 391.942 419.026C392.151 418.388 392.468 417.791 392.876 417.259C394.731 414.568 397.418 412.56 400.525 411.544C401.137 411.297 401.786 411.16 402.445 411.136Z" fill="#FF9A6C"/>
<path d="M356.35 392.153V437.421L375.998 490.996H391.575L380.281 428.724L382.788 384.051L356.35 392.153Z" fill="#FFBF9D"/>
<path d="M387.871 470.646C387.802 470.475 387.754 470.295 387.727 470.112C387.65 469.721 387.54 469.211 387.412 468.583C387.14 467.198 386.766 465.279 386.316 462.935L382.866 444.25C381.829 438.432 380.869 433.065 380.095 428.716C380.308 425.396 380.486 422.661 380.622 420.682C380.69 419.765 380.75 419.026 380.792 418.466C380.8 418.202 380.831 417.941 380.886 417.684C380.911 417.946 380.911 418.211 380.886 418.474C380.886 419.04 380.86 419.779 380.809 420.69C380.724 422.67 380.597 425.412 380.444 428.733V428.691C381.242 433.031 382.228 438.398 383.299 444.208C384.591 451.477 385.764 458.052 386.622 462.892C387.021 465.245 387.344 467.139 387.582 468.557C387.676 469.194 387.752 469.704 387.82 470.103C387.854 470.283 387.871 470.464 387.871 470.646Z" fill="#FF9A6C"/>
<path d="M243.396 495.31L225.685 489.705C225.685 489.705 203.214 503.591 199.433 501.008L228.863 463.248L235.866 469.949L240.642 470.884L258.693 482.375L243.396 495.31Z" fill="#4A4566"/>
<path d="M236.41 479.301C236.58 478.851 236.579 478.353 236.406 477.904C236.235 477.454 235.902 477.084 235.475 476.863C235.032 476.677 234.535 476.667 234.086 476.834C233.635 477.001 233.266 477.334 233.053 477.764C232.88 478.236 232.886 478.755 233.07 479.225C233.253 479.694 233.6 480.079 234.047 480.311C234.53 480.461 235.051 480.419 235.503 480.192C235.954 479.966 236.301 479.573 236.469 479.097" fill="#CFE5FF"/>
<path d="M228.098 462.612L231.055 464.888L202.518 501.017C202.518 501.017 200.478 502.13 199.441 501.017L228.098 462.612Z" fill="#211F54"/>
<path d="M225.388 490.469C225.201 490.317 225.838 489.331 225.957 487.963C226.076 486.596 225.668 485.501 225.872 485.416C226.076 485.331 226.935 486.409 226.765 488.065C226.595 489.722 225.549 490.639 225.388 490.469Z" fill="#211F54"/>
<path d="M220.653 493.187C220.449 493.085 220.755 492.04 220.466 490.809C220.178 489.577 219.489 488.754 219.617 488.575C219.744 488.397 220.908 489.094 221.24 490.63C221.571 492.167 220.84 493.28 220.653 493.187Z" fill="#211F54"/>
<path d="M214.161 491.709C214.255 491.505 215.377 491.972 216.014 493.229C216.651 494.487 216.388 495.667 216.175 495.625C215.963 495.582 215.836 494.63 215.326 493.603C214.816 492.575 214.034 491.904 214.161 491.709Z" fill="#211F54"/>
<path d="M424.958 273.938C426.05 273.461 427.263 273.333 428.431 273.574C429.598 273.814 430.662 274.41 431.476 275.28C433.229 275.306 434.924 275.917 436.29 277.016C437.655 278.114 438.615 279.638 439.014 281.344C440.214 281.493 441.355 281.951 442.324 282.672C443.294 283.394 444.06 284.354 444.548 285.459C445.036 286.564 445.229 287.777 445.108 288.979C444.987 290.181 444.557 291.331 443.858 292.317C444.933 292.907 445.795 293.821 446.322 294.928C446.849 296.035 447.014 297.28 446.794 298.486C446.574 299.692 445.98 300.798 445.097 301.648C444.213 302.498 443.084 303.049 441.87 303.222C442.652 304.372 442.98 305.771 442.79 307.148C442.599 308.526 441.904 309.783 440.839 310.678C439.773 311.572 438.413 312.04 437.023 311.99C435.633 311.94 434.31 311.376 433.312 310.407L421.771 279.773C421.632 278.59 421.864 277.394 422.436 276.348C423.007 275.303 423.888 274.461 424.958 273.938Z" fill="#211F54"/>
<path d="M433.474 311.529C436.755 306.519 438.025 300.457 437.029 294.554C436.033 288.65 432.846 283.338 428.103 279.68L427.134 278.924C416.138 271.408 403.602 276.538 396.378 287.723L370.78 323.912L368.817 329.433L375.727 351.634L387.625 349.884L396.973 340.38C396.973 340.38 408.301 346.631 416.256 336.618C420.064 331.819 427.168 321.194 433.474 311.529Z" fill="#FFBF9D"/>
<path d="M397.041 340.431C392.344 336.799 388.787 331.897 386.792 326.307C386.792 326.307 383.698 335.989 394.491 342.885L397.041 340.431Z" fill="#FF9A6C"/>
<path d="M423.302 318.62C423.012 319.007 422.581 319.263 422.103 319.333C421.626 319.403 421.14 319.281 420.752 318.994C420.557 318.867 420.388 318.701 420.258 318.508C420.128 318.314 420.038 318.097 419.994 317.867C419.95 317.639 419.951 317.403 420 317.175C420.048 316.947 420.142 316.731 420.276 316.54C420.418 316.348 420.597 316.185 420.803 316.062C421.009 315.94 421.236 315.858 421.473 315.823C421.71 315.788 421.951 315.801 422.183 315.86C422.415 315.918 422.634 316.023 422.826 316.166C423.02 316.293 423.189 316.459 423.319 316.652C423.449 316.846 423.539 317.063 423.583 317.293C423.627 317.521 423.625 317.757 423.577 317.985C423.528 318.213 423.435 318.429 423.302 318.62Z" fill="#211F54"/>
<path d="M427.185 315.385C426.862 315.436 426.395 313.779 424.84 312.582C423.285 311.385 421.543 311.283 421.526 310.96C421.526 310.815 421.95 310.611 422.724 310.637C423.758 310.689 424.751 311.063 425.562 311.707C426.376 312.327 426.971 313.19 427.262 314.17C427.449 314.909 427.347 315.376 427.185 315.385Z" fill="#211F54"/>
<path d="M409.465 308.981C409.176 309.367 408.746 309.624 408.269 309.695C407.792 309.767 407.306 309.648 406.916 309.364C406.721 309.235 406.555 309.07 406.425 308.876C406.295 308.682 406.206 308.465 406.162 308.236C406.118 308.007 406.119 307.773 406.167 307.544C406.215 307.316 406.307 307.101 406.44 306.909C406.728 306.521 407.158 306.263 407.636 306.192C408.114 306.12 408.6 306.241 408.989 306.527C409.184 306.655 409.351 306.821 409.481 307.015C409.61 307.208 409.7 307.425 409.744 307.654C409.788 307.882 409.786 308.118 409.738 308.346C409.69 308.573 409.598 308.79 409.465 308.981Z" fill="#211F54"/>
<path d="M412.516 303.672C412.193 303.723 411.726 302.067 410.162 300.87C408.599 299.672 406.865 299.57 406.848 299.247C406.848 299.095 407.273 298.9 408.055 298.925C409.087 298.98 410.078 299.35 410.893 299.987C411.708 300.609 412.304 301.475 412.593 302.458C412.746 303.189 412.644 303.655 412.516 303.672Z" fill="#211F54"/>
<path d="M408.692 319.139C409.71 319.521 410.677 320.026 411.573 320.642C411.998 320.905 412.423 321.118 412.712 320.897C413.063 320.514 413.288 320.034 413.358 319.521C413.732 318.273 414.114 316.973 414.522 315.589C416.222 310.034 417.785 305.584 418.006 305.652C418.227 305.72 417.029 310.289 415.329 315.844C414.904 317.214 414.497 318.516 414.106 319.75C413.98 320.416 413.625 321.017 413.103 321.449C412.937 321.545 412.751 321.603 412.56 321.616C412.368 321.629 412.176 321.598 411.998 321.525C411.735 321.414 411.487 321.272 411.259 321.101C410.326 320.554 409.465 319.896 408.692 319.139Z" fill="#211F54"/>
<path d="M403.287 316.676C403.551 316.863 402.25 318.544 402.769 320.863C403.287 323.181 405.225 324.379 405.055 324.625C404.995 324.744 404.4 324.625 403.627 324.073C402.63 323.324 401.929 322.247 401.647 321.033C401.383 319.872 401.577 318.655 402.191 317.635C402.667 316.854 403.168 316.582 403.287 316.676Z" fill="#211F54"/>
<path d="M415.916 299.256C415.414 299.511 414.361 298.118 412.712 296.886C411.063 295.655 409.449 294.941 409.593 294.415C409.669 294.169 410.222 294.007 411.063 294.109C412.121 294.257 413.121 294.682 413.961 295.341C414.808 295.972 415.469 296.82 415.873 297.795C416.205 298.56 416.179 299.12 415.916 299.256Z" fill="#211F54"/>
<path d="M430.134 310.858C429.599 311.045 428.724 309.914 427.364 309.014C426.004 308.114 424.687 307.622 424.67 307.061C424.67 306.798 425.103 306.543 425.843 306.518C426.796 306.535 427.723 306.835 428.507 307.379C429.29 307.923 429.896 308.688 430.245 309.575C430.474 310.271 430.364 310.756 430.134 310.858Z" fill="#211F54"/>
<path d="M436.092 306.136C436.092 306.136 438.327 297.745 436.423 293.906C434.103 289.26 429.378 292.088 426.616 288.377C423.854 284.665 421.653 280.224 415.942 280.156C409.695 280.088 409.924 283.604 406.211 287.901C391.143 305.32 383.843 307.885 389.528 298.594C390.149 297.575 388.118 294.815 390.803 290.551C394.287 285.03 398.919 278.661 402.896 275.875C406.245 273.547 409.644 272.783 414.599 272.868C422.426 273.013 429.31 278.21 433.576 282.262C437.842 286.313 442.652 298.543 436.092 306.136Z" fill="#211F54"/>
<path d="M390.421 298.815C390.694 298.434 390.888 298.001 390.991 297.544C391.093 297.086 391.101 296.613 391.016 296.151C390.93 295.691 390.752 295.251 390.492 294.861C390.231 294.47 389.895 294.137 389.503 293.88C387.48 292.606 384.548 292.054 381.659 296.037C376.56 303.121 384.701 306.807 384.854 306.611C385.007 306.416 388.262 301.796 390.421 298.815Z" fill="#FFBF9D"/>
<path d="M385.21 302.832C385.21 302.789 385.023 302.832 384.743 302.772C384.36 302.687 384.025 302.455 383.808 302.127C383.264 301.278 383.495 299.665 384.377 298.365C384.804 297.747 385.361 297.231 386.009 296.853C386.236 296.679 386.501 296.563 386.783 296.513C387.064 296.465 387.353 296.485 387.624 296.573C387.789 296.639 387.926 296.76 388.014 296.914C388.101 297.067 388.135 297.247 388.108 297.422C388.057 297.694 387.904 297.796 387.938 297.838C387.972 297.881 388.176 297.838 388.329 297.498C388.405 297.29 388.405 297.062 388.329 296.853C388.242 296.563 388.044 296.319 387.778 296.173C387.445 296.023 387.078 295.959 386.715 295.989C386.35 296.019 385.999 296.14 385.695 296.343C384.945 296.749 384.306 297.333 383.834 298.042C382.848 299.503 382.61 301.363 383.417 302.399C383.568 302.592 383.76 302.749 383.979 302.858C384.198 302.967 384.439 303.025 384.683 303.027C385.074 302.993 385.227 302.866 385.21 302.832Z" fill="#FF9A6C"/>
<path d="M400.882 285.54C401.199 286.882 401.848 288.123 402.768 289.15C403.763 290.101 405.488 290.432 406.499 289.506C406.95 289.09 407.264 288.437 407.867 288.309C408.471 288.182 409.176 288.835 409.712 289.345C410.662 290.205 411.879 290.712 413.159 290.782C414.438 290.852 415.703 290.48 416.741 289.727C416.656 290.891 417.879 291.782 419.044 291.884C420.211 291.861 421.371 291.673 422.486 291.323C423.046 291.157 423.638 291.129 424.211 291.243C424.784 291.357 425.321 291.609 425.774 291.978C426.233 292.445 426.471 293.116 427.024 293.473C427.992 294.092 429.259 293.371 430.092 292.624C430.924 291.876 431.851 290.857 432.998 290.925C434.145 290.993 434.783 291.995 435.547 292.767C436.312 293.541 437.519 294.169 438.369 293.524C438.574 293.332 438.737 293.1 438.85 292.843C438.962 292.586 439.022 292.309 439.023 292.029C439.107 290.759 438.762 289.499 438.043 288.449C437.322 287.4 436.27 286.624 435.055 286.245C435.618 284.831 435.746 283.281 435.423 281.793C435.1 280.305 434.339 278.948 433.239 277.895C432.139 276.843 430.749 276.142 429.248 275.884C427.748 275.624 426.204 275.82 424.814 276.444C424.594 275.211 424.08 274.05 423.315 273.058C422.55 272.066 421.557 271.273 420.42 270.747C419.283 270.22 418.037 269.975 416.785 270.033C415.533 270.089 414.314 270.448 413.23 271.076C412.556 270.197 411.638 269.535 410.59 269.173C409.543 268.812 408.411 268.767 407.338 269.045C406.265 269.322 405.297 269.908 404.555 270.732C403.814 271.556 403.331 272.579 403.168 273.675C401.383 273.421 399.361 273.828 398.23 275.238C397.1 276.648 397.381 279.153 399.08 279.85C398.373 280.202 397.825 280.808 397.547 281.548C397.268 282.287 397.281 283.105 397.582 283.836C397.882 284.566 398.448 285.156 399.166 285.486C399.884 285.817 400.701 285.863 401.451 285.617" fill="#211F54"/>
<path d="M398.537 279.442C398.321 279.657 398.156 279.917 398.053 280.203C397.95 280.49 397.912 280.795 397.942 281.098C397.943 281.802 398.206 282.48 398.681 283C398.989 283.326 399.364 283.581 399.782 283.745C400.199 283.909 400.647 283.98 401.095 283.952L400.84 283.68C400.705 284.605 400.72 285.545 400.882 286.466C400.987 287.088 401.209 287.684 401.536 288.223C401.853 288.732 402.299 289.149 402.828 289.43C403.249 289.705 403.726 289.884 404.224 289.953C404.722 290.021 405.229 289.979 405.709 289.829C406.335 289.608 406.913 289.267 407.409 288.827C407.757 288.529 407.91 288.334 407.893 288.308C407.876 288.283 407.664 288.427 407.29 288.674C406.786 289.043 406.227 289.33 405.633 289.523C405.147 289.62 404.645 289.615 404.161 289.508C403.676 289.401 403.22 289.194 402.821 288.901C402.42 288.607 402.086 288.234 401.839 287.805C401.592 287.375 401.436 286.899 401.384 286.406C401.233 285.536 401.213 284.649 401.324 283.773V283.476H401.027C400.646 283.505 400.264 283.451 399.907 283.319C399.549 283.187 399.223 282.98 398.953 282.711C398.519 282.278 398.257 281.702 398.214 281.09C398.21 280.525 398.32 279.964 398.537 279.442Z" fill="#4A4566"/>
<path d="M423.82 273.761C423.82 273.761 423.964 273.955 424.168 274.321C424.457 274.837 424.585 275.43 424.534 276.02V276.215L424.729 276.164C426.502 275.664 428.374 275.623 430.168 276.045C431.325 276.319 432.411 276.834 433.355 277.557C434.269 278.278 434.995 279.208 435.471 280.27C435.948 281.332 436.16 282.493 436.092 283.655C436.028 284.6 435.736 285.515 435.242 286.321L435.097 286.559L435.352 286.661C436.512 287.148 437.442 288.06 437.953 289.209C438.34 290.123 438.433 291.136 438.216 292.105C437.992 292.968 437.603 293.779 437.069 294.492C437.27 294.358 437.446 294.188 437.587 293.991C438.016 293.457 438.325 292.837 438.497 292.173C438.768 291.144 438.702 290.055 438.31 289.065C437.793 287.784 436.791 286.758 435.522 286.211L435.633 286.551C436.183 285.681 436.511 284.69 436.584 283.663C436.664 282.42 436.439 281.175 435.928 280.038C435.418 278.901 434.636 277.906 433.653 277.141C432.643 276.388 431.484 275.861 430.253 275.595C428.39 275.181 426.449 275.278 424.636 275.875L424.806 276.02C424.844 275.366 424.665 274.718 424.296 274.176C424.168 274.005 424.006 273.864 423.82 273.761Z" fill="#4A4566"/>
<path d="M318.591 427.077C318.591 427.077 366.837 456.472 369.633 464.515C371.29 469.279 376.254 494.902 355.186 496.083C332.962 497.323 230.257 496.083 230.257 496.083L240.71 468.413L263.334 469.406L301.39 469.848C301.39 469.848 258.558 452.157 249.2 437.574C237.498 419.297 255.608 392.315 255.608 392.315L318.591 427.077Z" fill="#211F54"/>
<path d="M341.189 484.159C341.024 484.149 340.861 484.118 340.704 484.065L339.336 483.718C338.164 483.378 336.472 482.868 334.406 482.146C330.268 480.736 324.616 478.621 318.412 476.201C312.209 473.78 306.625 471.471 302.597 469.78L297.838 467.75L296.554 467.173C296.4 467.116 296.254 467.04 296.121 466.943C296.28 466.983 296.437 467.034 296.588 467.096L297.906 467.589L302.716 469.491L318.574 475.785C324.778 478.222 330.404 480.379 334.508 481.866C336.557 482.622 338.231 483.182 339.387 483.565L340.73 483.989C340.888 484.031 341.041 484.088 341.189 484.159Z" fill="#4A4566"/>
<path d="M456.394 434.712C456.126 433.452 455.561 432.274 454.747 431.276C453.932 430.277 452.892 429.487 451.711 428.97C450.525 428.47 449.247 428.225 447.96 428.251C446.673 428.278 445.406 428.575 444.241 429.123C443.286 429.524 442.46 430.179 441.853 431.018C441.554 431.439 441.363 431.928 441.298 432.44C441.233 432.953 441.295 433.474 441.479 433.956L442.924 433.599C446.834 434.948 450.891 435.829 455.009 436.224C455.211 436.268 455.42 436.27 455.623 436.23C455.826 436.191 456.019 436.111 456.19 435.994C456.326 435.813 456.415 435.602 456.451 435.378C456.486 435.155 456.467 434.926 456.394 434.712Z" fill="#CFE5FF"/>
<path d="M423.99 419.026C424.389 419.161 434.324 423.799 434.324 423.799L449.162 423.74C449.9 423.731 450.619 423.981 451.193 424.444L458.842 430.576L462.123 439.434C462.123 439.434 462.497 442.067 459.624 439.868C456.752 437.668 451.975 430.797 451.975 430.797L444.981 429.49L434.715 438.075L416.979 435.919C416.979 435.919 417.319 432.453 420.276 426.576C423.233 420.699 423.99 419.026 423.99 419.026Z" fill="#CFE5FF"/>
<path d="M454.457 437.336L447.114 434.933L437.596 428.844L431.588 436.776C431.588 436.776 437.953 439.188 440.757 440.173C444.822 441.407 449.064 441.958 453.309 441.804C455.255 441.642 456.479 440.394 456.709 439.528C456.938 438.661 455.663 437.982 454.457 437.336Z" fill="#CFE5FF"/>
<path d="M446.987 428.767C447.581 428.947 448.152 429.199 448.686 429.514C449.723 430.033 451.134 430.771 452.68 431.612C453.082 431.811 453.455 432.066 453.785 432.368C454.084 432.658 454.339 432.99 454.542 433.353C454.86 433.957 455.143 434.578 455.391 435.213C455.825 436.275 456.241 436.819 456.241 436.861C455.738 436.469 455.353 435.946 455.128 435.349C454.584 434.339 454.1 432.708 452.485 432.003C450.938 431.154 449.545 430.381 448.55 429.795C447.992 429.513 447.467 429.168 446.987 428.767Z" fill="#211F54"/>
<path d="M456.632 439.528C456.581 439.528 456.692 439.239 456.437 438.856C456.028 438.346 455.499 437.944 454.899 437.685C452.897 436.768 450.811 436.048 448.669 435.536C448.125 435.392 447.581 435.264 447.072 435.145C445.151 434.041 443.528 432.988 442.321 432.317C441.656 431.991 441.012 431.624 440.392 431.222C441.114 431.414 441.809 431.699 442.457 432.071C443.715 432.674 445.372 433.684 447.284 434.763H447.225C447.751 434.873 448.287 435.009 448.839 435.154C451.015 435.666 453.121 436.439 455.111 437.455C455.736 437.762 456.268 438.231 456.649 438.814C456.706 438.925 456.734 439.049 456.732 439.173C456.728 439.298 456.694 439.419 456.632 439.528Z" fill="#211F54"/>
<path d="M425.265 418.652L417.727 437.013C417.608 437.299 417.381 437.525 417.096 437.642C416.811 437.76 416.49 437.76 416.206 437.642C416.064 437.584 415.936 437.499 415.828 437.392C415.72 437.284 415.635 437.157 415.577 437.017C415.518 436.876 415.488 436.726 415.488 436.574C415.488 436.422 415.518 436.27 415.577 436.13L423.115 417.768C423.233 417.483 423.46 417.257 423.744 417.139C424.03 417.022 424.35 417.022 424.636 417.14C424.776 417.198 424.904 417.283 425.012 417.39C425.12 417.497 425.206 417.624 425.264 417.765C425.323 417.905 425.353 418.056 425.353 418.208C425.353 418.36 425.323 418.511 425.265 418.652Z" fill="#CFE5FF"/>
<path d="M425.12 418.762C424.91 419.678 424.627 420.576 424.27 421.446C423.684 423.085 422.826 425.327 421.797 427.773C420.769 430.219 419.783 432.411 419.027 433.982C418.662 434.847 418.225 435.68 417.718 436.47C417.994 435.573 418.337 434.698 418.747 433.854C419.469 432.156 420.378 429.982 421.39 427.603L423.982 421.336C424.295 420.45 424.676 419.59 425.12 418.762Z" fill="#211F54"/>
<path d="M408.268 488.092L403.704 486.469C402.267 486.35 392.494 485.17 392.494 485.17L389.299 472.532L371.452 481.713C371.452 481.713 374.605 493.849 377.112 496.075C379.619 498.3 403.712 500.152 406.764 500.373C407.589 500.47 408.427 500.403 409.227 500.175C410.026 499.946 410.772 499.559 411.421 499.039C411.421 499.039 418.772 499.591 420.565 499.039C422.358 498.487 422.18 497.255 422.18 497.255C422.18 497.255 424.508 496.805 425.086 495.557C425.452 493.9 423.897 492.915 422.324 492.287C417.463 490.384 408.268 488.092 408.268 488.092Z" fill="#CFE5FF"/>
<path d="M390.08 473.186L372.038 481.483C371.9 481.548 371.751 481.584 371.599 481.591C371.447 481.597 371.296 481.574 371.152 481.522C371.01 481.47 370.879 481.391 370.766 481.288C370.654 481.185 370.564 481.061 370.5 480.922C370.372 480.642 370.36 480.322 370.467 480.033C370.574 479.744 370.79 479.508 371.069 479.377L389.111 471.105C389.25 471.041 389.398 471.004 389.55 470.997C389.703 470.99 389.854 471.014 389.997 471.066C390.14 471.118 390.271 471.198 390.383 471.301C390.495 471.403 390.585 471.528 390.649 471.665C390.772 471.943 390.78 472.258 390.674 472.541C390.568 472.825 390.354 473.056 390.08 473.186Z" fill="#CFE5FF"/>
<path d="M389.51 473.882C388.628 474.284 387.722 474.635 386.8 474.935C385.1 475.556 382.814 476.464 380.324 477.594C377.834 478.723 375.641 479.853 374.06 480.711C373.24 481.21 372.388 481.658 371.511 482.053C371.693 481.863 371.902 481.703 372.131 481.577C372.548 481.288 373.16 480.898 373.933 480.439C377.971 478.042 382.261 476.097 386.723 474.638C387.573 474.366 388.278 474.154 388.763 474.035C389.003 473.946 389.256 473.894 389.51 473.882Z" fill="#211F54"/>
<path d="M392.528 485.178C392.528 485.305 390.829 485.739 388.848 486.545C386.868 487.352 385.322 488.244 385.254 488.099C386.248 487.229 387.402 486.559 388.653 486.129C389.871 485.565 391.186 485.241 392.528 485.178Z" fill="#211F54"/>
<path d="M411.48 499.047C411.48 499.047 411.539 498.885 411.624 498.597C411.737 498.2 411.719 497.777 411.573 497.391L411.658 497.467C410.264 497.11 408.097 496.499 405.709 495.768C403.585 495.14 401.681 494.545 400.304 494.07C399.547 493.854 398.81 493.569 398.103 493.22C398.881 493.315 399.647 493.488 400.389 493.739C401.791 494.113 403.712 494.656 405.828 495.285C408.25 496.006 410.4 496.678 411.777 497.136H411.853V497.187C412.003 497.634 411.982 498.121 411.794 498.554C411.667 498.936 411.497 499.055 411.48 499.047Z" fill="#211F54"/>
<path d="M403.457 490.368C403.742 490.342 404.029 490.362 404.307 490.427C404.834 490.504 405.582 490.631 406.508 490.835C408.895 491.394 411.253 492.074 413.57 492.873C416.298 493.79 418.746 494.572 420.564 495.123C420.941 495.216 421.293 495.387 421.598 495.626C421.902 495.864 422.153 496.165 422.332 496.508C422.407 496.635 422.453 496.777 422.466 496.924C422.479 497.071 422.459 497.219 422.408 497.357C422.373 497.095 422.295 496.839 422.179 496.601C421.988 496.305 421.738 496.048 421.446 495.848C421.155 495.648 420.826 495.509 420.479 495.438C418.669 494.97 416.162 494.223 413.451 493.315C410.74 492.405 408.259 491.616 406.449 491.157C404.638 490.699 403.449 490.436 403.457 490.368Z" fill="#211F54"/>
<path d="M255.608 392.263C253.492 388.127 256.951 385.469 259.101 384.051C275.563 373.443 326.945 339.165 336.82 332.863C348.429 325.457 365.052 323.92 365.052 323.92L372.539 317.975L394.143 346.257L391.593 355.658L389.766 368.509L322.968 419.696L323.044 424.334L319.364 427.408L285.183 412.121L255.608 392.263Z" fill="#E0623B"/>
<path d="M383.817 401.275L396.369 395.092C396.369 395.092 387.088 358.232 386.4 360.33C385.712 362.427 373.423 384.042 373.423 384.042L383.817 401.275Z" fill="#E0623B"/>
<path d="M383.808 401.3L373.423 384.042C373.551 383.83 385.72 362.402 386.4 360.338C386.4 360.27 386.451 360.237 386.494 360.237C386.596 360.237 386.901 360.237 388.533 365.715C389.383 368.61 390.53 372.636 391.882 377.69C394.185 386.301 396.377 395.015 396.403 395.1L383.808 401.3ZM373.423 384.042L383.791 401.24L396.369 395.083C396.258 394.641 394.108 386.115 391.848 377.69C390.496 372.593 389.366 368.601 388.499 365.706C387.156 361.222 386.672 360.271 386.502 360.262C386.502 360.262 386.46 360.262 386.443 360.329C385.754 362.393 373.797 383.457 373.423 384.042Z" fill="#211F54"/>
<path d="M386.579 394.243L394.925 389.572C395.21 389.412 395.53 389.324 395.856 389.312C396.183 389.3 396.508 389.366 396.805 389.505C397.1 389.643 397.36 389.851 397.56 390.108C397.761 390.367 397.898 390.669 397.959 390.989L399.437 398.846C399.525 399.314 399.448 399.799 399.218 400.217C398.989 400.635 398.622 400.961 398.18 401.139L387.412 405.496C387.079 405.631 386.717 405.676 386.361 405.628C386.005 405.579 385.668 405.438 385.384 405.22C385.099 405.001 384.877 404.711 384.74 404.379C384.602 404.048 384.553 403.686 384.599 403.33L385.543 395.789C385.582 395.468 385.696 395.16 385.877 394.892C386.057 394.623 386.297 394.402 386.579 394.243Z" fill="#E0623B"/>
<path d="M386.579 394.243C386.579 394.243 386.435 394.336 386.205 394.566C385.876 394.905 385.673 395.345 385.627 395.814C385.474 397.122 385.279 398.923 385.033 401.114C384.965 401.675 384.897 402.252 384.829 402.863C384.775 403.161 384.756 403.463 384.769 403.763C384.794 404.067 384.893 404.358 385.058 404.613C385.231 404.872 385.464 405.085 385.738 405.233C386.012 405.381 386.318 405.46 386.63 405.462C386.964 405.451 387.291 405.367 387.591 405.216L388.61 404.8L397.568 401.156C397.953 401.041 398.316 400.856 398.638 400.613C398.918 400.357 399.114 400.022 399.199 399.654C399.275 399.275 399.257 398.885 399.148 398.515C399.071 398.108 398.995 397.708 398.927 397.309C398.63 395.721 398.35 394.184 398.078 392.723C398.01 392.358 397.941 391.992 397.873 391.644C397.831 391.303 397.754 390.967 397.644 390.642C397.464 390.215 397.131 389.869 396.709 389.674C396.288 389.479 395.809 389.449 395.367 389.589C395.084 389.691 394.814 389.822 394.558 389.98L393.012 390.829L388.33 393.377L387.047 394.048C386.898 394.135 386.742 394.206 386.579 394.26C386.703 394.143 386.843 394.046 386.996 393.972L388.245 393.224L392.859 390.557L394.389 389.708C394.657 389.536 394.942 389.391 395.239 389.275C395.578 389.164 395.94 389.138 396.293 389.198C396.663 389.257 397.014 389.409 397.311 389.639C397.608 389.869 397.842 390.17 397.993 390.515C398.118 390.864 398.206 391.226 398.256 391.593C398.324 391.95 398.401 392.307 398.468 392.672C398.749 394.133 399.038 395.67 399.318 397.258L399.547 398.455C399.663 398.888 399.68 399.341 399.598 399.78C399.486 400.236 399.24 400.646 398.893 400.962C398.721 401.121 398.523 401.25 398.307 401.343L397.704 401.59L388.729 405.207L387.7 405.615C387.354 405.778 386.978 405.867 386.596 405.879C386.22 405.872 385.852 405.772 385.525 405.588C385.197 405.404 384.92 405.142 384.718 404.826C384.526 404.527 384.41 404.186 384.378 403.831C384.367 403.508 384.393 403.182 384.455 402.863L384.684 401.114C384.99 398.931 385.236 397.139 385.423 395.84C385.482 395.338 385.728 394.878 386.111 394.549C386.208 394.465 386.313 394.391 386.425 394.328L386.579 394.243Z" fill="#211F54"/>
<path d="M393.904 346.614C393.835 346.768 393.743 346.911 393.632 347.039L392.782 348.219C391.983 349.28 390.887 350.716 389.553 352.466L389.417 352.644L389.281 352.457C387.139 349.391 384.224 345.34 380.859 341.025C377.213 336.338 373.746 332.227 371.188 329.297L368.129 325.873L367.279 324.931C367.175 324.825 367.087 324.705 367.015 324.574C367.137 324.658 367.247 324.755 367.347 324.863L368.197 325.713C368.953 326.494 370.032 327.649 371.341 329.11C373.967 331.997 377.485 336.083 381.131 340.78C384.53 345.102 387.394 349.187 389.476 352.296H389.213L392.561 348.126C392.944 347.675 393.25 347.277 393.496 347.005C393.619 346.862 393.756 346.731 393.904 346.614Z" fill="#211F54"/>
<path d="M351.03 372.135V412.316L383.809 414.567C384.403 412.246 384.818 409.884 385.05 407.5C385.339 398.922 388.772 381.724 389.418 378.624C392.817 362.189 389.758 345.399 370.908 345.399" fill="#E0623B"/>
<path d="M370.874 345.407H372.446C373.949 345.466 375.443 345.669 376.907 346.01C379.643 346.592 382.182 347.865 384.285 349.707C386.387 351.55 387.982 353.899 388.916 356.533C390.237 360.141 390.868 363.963 390.778 367.803C390.701 372.187 390.155 376.548 389.146 380.815C388.296 385.35 387.395 390.115 386.596 395.075C386.222 397.554 385.865 400.085 385.585 402.659C385.449 403.942 385.33 405.207 385.262 406.549C385.262 407.194 385.211 407.874 385.126 408.536C385.041 409.199 384.939 409.861 384.82 410.524C384.574 411.908 384.293 413.267 383.97 414.609L383.919 414.796H383.741L351.013 412.502H350.834V412.324C350.834 400.323 350.894 390.285 350.911 383.227C350.911 379.719 350.953 376.95 350.97 375.04C350.97 374.113 350.97 373.392 350.97 372.882V372.331C350.964 372.269 350.964 372.206 350.97 372.144C350.977 372.206 350.977 372.269 350.97 372.331C350.97 372.475 350.97 372.653 350.97 372.882C350.97 373.392 350.97 374.113 350.97 375.04C350.97 376.95 350.97 379.719 351.021 383.227C351.021 390.285 351.072 400.323 351.106 412.324L350.919 412.129L383.707 414.354L383.477 414.524C383.8 413.191 384.081 411.832 384.327 410.464C384.438 409.81 384.548 409.156 384.625 408.502C384.701 407.849 384.727 407.211 384.761 406.549C384.829 405.224 384.948 403.925 385.092 402.625C385.373 400.077 385.73 397.529 386.112 395.024C386.885 390.056 387.761 385.291 388.661 380.756C389.685 376.513 390.256 372.174 390.361 367.812C390.459 364.017 389.854 360.236 388.576 356.66C387.5 353.718 385.633 351.129 383.18 349.178C381.287 347.759 379.124 346.742 376.822 346.189C375.367 345.832 373.883 345.607 372.386 345.517L371.222 345.458C371.105 345.449 370.989 345.432 370.874 345.407Z" fill="#211F54"/>
<path d="M365.35 344.015C365.392 344.083 364.296 344.719 362.681 345.952C358.45 349.169 355.124 353.426 353.027 358.309C352.228 360.169 351.88 361.391 351.803 361.366C351.824 361.076 351.884 360.791 351.982 360.517C352.19 359.736 352.442 358.968 352.738 358.216C354.702 353.195 358.086 348.854 362.477 345.722C363.137 345.253 363.82 344.82 364.525 344.423C364.781 344.251 365.058 344.114 365.35 344.015Z" fill="#211F54"/>
<path d="M361.381 346.741C361.321 346.741 360.778 345.67 359.826 343.938C357.353 339.423 354.411 335.181 351.047 331.284C349.755 329.789 348.914 328.889 348.965 328.846C349.208 329.001 349.431 329.186 349.628 329.398C350.036 329.78 350.596 330.35 351.276 331.097C353.037 332.995 354.662 335.016 356.137 337.144C357.612 339.272 358.938 341.499 360.106 343.811C360.548 344.702 360.88 345.432 361.092 345.942C361.225 346.194 361.321 346.462 361.381 346.741Z" fill="#211F54"/>
<path d="M383.893 417.684H351.71C351.208 417.682 350.726 417.494 350.355 417.157C349.985 416.819 349.753 416.356 349.704 415.857L348.854 406.473C348.828 406.195 348.86 405.915 348.949 405.65C349.037 405.386 349.18 405.143 349.368 404.936C349.556 404.73 349.785 404.565 350.041 404.453C350.296 404.34 350.572 404.282 350.851 404.282H385.057C385.341 404.285 385.622 404.349 385.879 404.469C386.137 404.589 386.367 404.762 386.552 404.977C386.738 405.192 386.876 405.444 386.957 405.717C387.037 405.99 387.059 406.276 387.02 406.558L385.865 415.9C385.809 416.386 385.577 416.835 385.215 417.164C384.852 417.492 384.383 417.676 383.893 417.684Z" fill="#E0623B"/>
<path d="M383.893 417.684C384.221 417.656 384.539 417.56 384.828 417.403C385.171 417.206 385.446 416.91 385.618 416.553C385.806 416.048 385.907 415.514 385.915 414.974C386.06 413.735 386.23 412.231 386.434 410.49C386.536 409.64 386.646 408.689 386.765 407.696C386.808 407.211 386.918 406.668 386.91 406.192C386.894 405.942 386.829 405.698 386.718 405.473C386.607 405.249 386.453 405.048 386.264 404.884C386.062 404.715 385.827 404.589 385.574 404.513C385.321 404.437 385.056 404.414 384.794 404.442H379.244H370.933H351.88C351.472 404.442 351.03 404.442 350.647 404.442C350.275 404.486 349.926 404.645 349.649 404.898C349.373 405.151 349.184 405.485 349.109 405.852C349.084 406.036 349.084 406.221 349.109 406.405L349.169 407.016C349.31 408.653 349.455 410.266 349.602 411.857C349.67 412.647 349.746 413.437 349.814 414.21L349.916 415.373C349.918 415.734 349.996 416.089 350.146 416.418C350.809 417.827 352.627 417.267 354.03 417.403L369.59 417.454L380.086 417.522L382.932 417.565H383.672C383.757 417.557 383.842 417.557 383.927 417.565H383.672H382.932H380.086L369.59 417.641H354.03H351.812C351.392 417.65 350.978 417.542 350.616 417.329C350.255 417.116 349.959 416.806 349.763 416.435C349.59 416.059 349.497 415.651 349.491 415.237L349.389 414.074C349.313 413.293 349.245 412.511 349.169 411.721C349.022 410.13 348.874 408.517 348.727 406.881L348.667 406.26C348.652 406.032 348.666 405.805 348.71 405.58C348.806 405.127 349.04 404.714 349.381 404.4C349.725 404.085 350.159 403.883 350.622 403.823C351.098 403.823 351.472 403.823 351.913 403.823H370.967H379.278H384.828C385.133 403.796 385.44 403.83 385.733 403.923C386.024 404.017 386.294 404.167 386.527 404.366C386.747 404.556 386.924 404.79 387.05 405.051C387.175 405.313 387.246 405.597 387.258 405.886C387.258 406.464 387.139 406.939 387.097 407.441C386.961 408.426 386.842 409.36 386.731 410.235C386.502 411.934 386.306 413.471 386.136 414.711C386.113 415.268 385.995 415.816 385.788 416.333C385.631 416.627 385.403 416.877 385.126 417.062C384.849 417.248 384.53 417.362 384.199 417.395C384.115 417.509 384.012 417.606 383.893 417.684Z" fill="#211F54"/>
<path d="M308.027 406.108C308.278 406.202 308.513 406.333 308.724 406.498C309.158 406.77 309.769 407.187 310.517 407.722C312.446 409.135 314.285 410.667 316.024 412.308C317.768 413.946 319.406 415.693 320.928 417.539C321.506 418.245 321.956 418.83 322.254 419.238C322.422 419.448 322.567 419.676 322.687 419.918C321.978 419.23 321.311 418.501 320.69 417.735C319.475 416.367 317.749 414.533 315.727 412.639C313.704 410.745 311.758 409.114 310.33 407.985C309.527 407.403 308.759 406.776 308.027 406.108Z" fill="#211F54"/>
<g opacity="0.3">
<path opacity="0.3" d="M348.327 400.231C348.548 400.061 348.497 370.802 349.713 367.294C350.206 365.638 350.914 364.053 351.82 362.581L351.03 398.167L348.327 400.231Z" fill="#9C3A03"/>
</g>
<g opacity="0.3">
<path opacity="0.3" d="M368.707 326.341L390.122 354.971L392.893 347.905L389.4 352.372C389.4 352.372 370.959 327.649 368.707 326.341Z" fill="#9C3A03"/>
</g>
<g opacity="0.3">
<path opacity="0.3" d="M351.03 404.282C351.03 404.282 369.845 400.137 384.904 404.282H351.03Z" fill="#9C3A03"/>
</g>
<g opacity="0.3">
<path opacity="0.3" d="M314.366 411.483C311.171 407.73 306.471 405.624 301.823 403.984C297.174 402.345 292.339 401.037 288.175 398.396C287.561 398.067 287.04 397.588 286.662 397.003C286.478 396.709 286.393 396.364 286.42 396.018C286.449 395.672 286.586 395.344 286.815 395.083C287.41 394.515 288.37 394.693 289.16 394.93C298.688 397.813 307.222 403.292 313.806 410.753" fill="#9C3A03"/>
</g>
<path d="M298.152 398.498C297.462 398.385 296.791 398.183 296.154 397.894C294.59 397.28 293.08 396.533 291.642 395.661C290.205 394.793 288.848 393.798 287.588 392.688C287.038 392.259 286.549 391.756 286.135 391.193C286.718 391.567 287.272 391.985 287.792 392.442C289.095 393.469 290.457 394.419 291.871 395.287C293.296 396.144 294.769 396.917 296.282 397.605C296.93 397.849 297.556 398.147 298.152 398.498Z" fill="#211F54"/>
<path d="M303.82 407.17C303.879 407.289 301.117 408.605 298.058 410.779C294.999 412.954 292.831 415.102 292.738 415.025C293.112 414.465 293.561 413.96 294.072 413.522C295.237 412.403 296.484 411.372 297.803 410.44C299.125 409.505 300.514 408.67 301.959 407.942C302.542 407.603 303.168 407.343 303.82 407.17Z" fill="#211F54"/>
<path d="M345.811 380.178C345.871 380.28 337.993 385.443 328.211 391.712C318.429 397.979 310.441 402.974 310.365 402.872C310.288 402.77 318.183 397.606 327.965 391.338C337.746 385.07 345.743 380.076 345.811 380.178Z" fill="#211F54"/>
<path d="M392.528 350.682C392.528 350.682 392.605 350.581 392.783 350.411C392.962 350.241 393.251 350.011 393.633 349.739C394.709 348.96 395.891 348.34 397.143 347.896C397.534 347.761 397.993 347.625 398.401 347.515L399.089 347.353C399.366 347.272 399.662 347.272 399.939 347.353C400.085 347.419 400.21 347.525 400.299 347.658C400.388 347.792 400.437 347.948 400.44 348.109C400.447 348.264 400.423 348.42 400.369 348.565C400.315 348.711 400.232 348.845 400.126 348.958C399.709 349.335 399.233 349.639 398.715 349.858C397.665 350.367 396.558 350.748 395.418 350.996C394.811 351.135 394.194 351.228 393.574 351.277C393.384 351.298 393.193 351.272 393.016 351.2C392.84 351.13 392.684 351.016 392.562 350.869C392.373 350.605 392.216 350.321 392.095 350.02C391.597 348.879 391.18 347.703 390.846 346.503C390.684 345.926 390.548 345.348 390.438 344.805C390.276 344.234 390.221 343.638 390.276 343.047C390.337 342.727 390.52 342.444 390.786 342.257C390.922 342.161 391.081 342.103 391.248 342.089C391.413 342.076 391.58 342.108 391.729 342.181C392.21 342.462 392.573 342.909 392.749 343.438C393.121 344.283 393.376 345.174 393.506 346.088C393.703 347.403 393.642 348.744 393.327 350.037C393.24 350.386 393.128 350.729 392.996 351.064C392.955 351.183 392.901 351.297 392.834 351.404C392.792 351.404 392.979 350.903 393.157 350.003C393.405 348.725 393.419 347.413 393.2 346.13C393.051 345.251 392.788 344.394 392.418 343.582C392.265 343.146 391.964 342.776 391.568 342.537C391.194 342.334 390.718 342.665 390.676 343.132C390.64 343.667 390.698 344.204 390.846 344.72C390.965 345.272 391.109 345.841 391.262 346.419C391.594 347.599 392.008 348.754 392.503 349.875C392.603 350.152 392.737 350.414 392.902 350.656C392.98 350.752 393.082 350.826 393.196 350.871C393.31 350.915 393.435 350.929 393.557 350.911C394.152 350.86 394.741 350.769 395.324 350.639C396.435 350.409 397.513 350.044 398.537 349.552C399.009 349.363 399.448 349.099 399.837 348.771C400.143 348.466 400.134 347.922 399.837 347.778C399.409 347.711 398.97 347.752 398.562 347.896C398.142 347.99 397.728 348.106 397.321 348.245C396.081 348.658 394.899 349.23 393.803 349.943C392.97 350.385 392.545 350.707 392.528 350.682Z" fill="#4A4566"/>
<path d="M394.33 376.831C394.643 375.571 394.669 374.256 394.406 372.984C394.194 371.804 393.718 370.436 393.268 368.899C392.685 367.215 392.555 365.408 392.894 363.659C393.089 362.742 393.353 361.875 393.506 361.035C393.653 360.231 393.653 359.409 393.506 358.606C393.217 357.068 392.605 355.726 392.367 354.521C392.123 353.568 392.123 352.568 392.367 351.616C392.439 351.363 392.542 351.121 392.673 350.893C392.775 350.741 392.834 350.665 392.843 350.673C392.851 350.682 392.673 351.012 392.528 351.658C392.361 352.588 392.407 353.543 392.664 354.453C392.928 355.616 393.574 356.924 393.896 358.538C394.055 359.38 394.055 360.243 393.896 361.085C393.743 361.934 393.48 362.835 393.293 363.727C392.97 365.406 393.084 367.141 393.625 368.763C394.058 370.123 394.41 371.506 394.678 372.908C394.858 373.865 394.858 374.847 394.678 375.804C394.635 376.168 394.517 376.517 394.33 376.831Z" fill="#4A4566"/>
<path d="M397.432 362.538C396.876 362.149 396.392 361.667 396.004 361.111C393.957 358.522 392.902 355.287 393.03 351.99C393.015 351.311 393.121 350.635 393.344 349.994C393.158 352.251 393.424 354.523 394.126 356.677C394.828 358.831 395.951 360.823 397.432 362.538Z" fill="#4A4566"/>
<path d="M363.106 318.774C363.04 318.833 362.965 318.885 362.885 318.926L362.231 319.334L359.681 320.846L350.333 326.4C342.413 331.106 331.526 337.671 319.619 345.136C307.713 352.602 297.048 359.574 289.364 364.611L280.279 370.641L277.806 372.271L277.152 372.687C277.005 372.783 276.929 372.826 276.923 372.815L277.127 372.645L277.755 372.195L280.186 370.497C282.294 369.027 285.37 366.92 289.195 364.356C296.844 359.209 307.475 352.228 319.381 344.763C331.288 337.297 342.217 330.766 350.172 326.128C354.149 323.819 357.387 321.958 359.63 320.701L362.18 319.257L362.86 318.892L363.106 318.774Z" fill="#211F54"/>
</g>
<defs>
<clipPath id="clip0_265_299">
<rect width="599.983" height="515" fill="white" transform="translate(0.00643921)"/>
</clipPath>
</defs>
</svg>
